<?xml version="1.0" encoding="UTF-8"?>
<svg xmlns="http://www.w3.org/2000/svg" xmlns:xlink="http://www.w3.org/1999/xlink" viewBox="0 0 652.19 370.57">
  <defs>
    <style>
      .cls-1, .cls-2, .cls-3, .cls-4, .cls-5 {
        mix-blend-mode: multiply;
      }

      .cls-1, .cls-3, .cls-6 {
        opacity: .2;
      }

      .cls-1, .cls-7, .cls-8 {
        fill: #36597f;
      }

      .cls-9 {
        fill: #7edded;
      }

      .cls-10 {
        fill: #fff;
      }

      .cls-2, .cls-7 {
        opacity: .4;
      }

      .cls-2, .cls-4, .cls-11 {
        fill: #219d9d;
      }

      .cls-12 {
        fill: #fff7ee;
      }

      .cls-13 {
        fill: #c6776a;
      }

      .cls-14 {
        isolation: isolate;
      }

      .cls-15 {
        fill: #caeaea;
      }

      .cls-6, .cls-16, .cls-17 {
        fill: #e8dfca;
      }

      .cls-18 {
        fill: #30393e;
      }

      .cls-19 {
        fill: #57bda5;
      }

      .cls-20 {
        fill: #441337;
      }

      .cls-21 {
        opacity: .3;
      }

      .cls-17, .cls-22 {
        opacity: .5;
      }

      .cls-23 {
        fill: #ffbbb0;
      }

      .cls-24 {
        fill: #ad4263;
      }

      .cls-25 {
        fill: #250a1d;
      }

      .cls-26 {
        fill: #ffcac0;
      }

      .cls-27 {
        fill: #edf9f9;
      }

      .cls-28 {
        fill: #222221;
      }

      .cls-29 {
        fill: #0ae2c7;
      }

      .cls-30 {
        fill: #07ac9b;
      }

      .cls-22 {
        fill: #fe6168;
      }

      .cls-31 {
        fill: #afdaf9;
      }

      .cls-32 {
        fill: url(#linear-gradient);
      }

      .cls-33 {
        fill: #ffedd7;
      }

      .cls-34 {
        fill: #853249;
      }

      .cls-35 {
        fill: #dfefef;
      }
    </style>
    <linearGradient id="linear-gradient" x1="326.1" y1="357.06" x2="326.1" y2="3.83" gradientUnits="userSpaceOnUse">
      <stop offset="0" stop-color="#cce4fc"/>
      <stop offset="1" stop-color="#f6f9fe"/>
    </linearGradient>
  </defs>
  <g class="cls-14">
    <g id="Layer_2" data-name="Layer 2">
      <g id="BACKGROUND">
        <g>
          <path class="cls-32" d="m9.12,366.52S-26.92,210.04,44.29,171.22c82.48-44.97,89.37-36.87,131.68-100.37C259.21-54.07,387.58,4.67,474.17,104.92c77.9,90.19,102.5,8.04,161.3,123.29,29.83,58.47,10.67,138.3,10.67,138.3H9.12Z"/>
          <rect class="cls-31" x="1.77" y="363.29" width="648.6" height="7.29"/>
        </g>
      </g>
      <g id="OBJECTS">
        <g>
          <g>
            <g>
              <path class="cls-26" d="m316.47,350.26l-3.32,8.15s-14.58,1.08-16.58,6.86c0,0,23.26,2.98,32.81-1.78l-2.01-13.17-10.9-.06Z"/>
              <g>
                <path class="cls-10" d="m332.27,360.91c.99-.23,1.92,3.44-2.76,4.54-2.13.5-31.2,1.26-36.59,1.13-2.9-.07-3.42-3.09.02-3.37,4.01-.32,27.3.47,39.33-2.3Z"/>
                <path class="cls-10" d="m310.73,364.06s-1.28-6.21-4.42-8.49c0,0-13.42,1.34-14.81,7.85,0,0,2.62,1.47,19.23.64Z"/>
                <path class="cls-16" d="m306.2,354.57s.02,0,.03,0h0c1.05.15,2.3,1.75,2.9,2.53,1.4,1.83,2.22,3.88,2.43,6.22.16,1.73-3.4-4.03-4.54-5.8-.47-.73-1.12-3.05-.83-2.97Z"/>
                <g>
                  <path class="cls-16" d="m305.73,362.53c.01.39.33.7.69.68.37-.01.65-.34.64-.73-.01-.39-.32-.7-.69-.68-.36.02-.65.34-.64.73Z"/>
                  <path class="cls-16" d="m302.34,362.67c.02.39.32.7.69.68.37-.01.65-.34.64-.74-.01-.39-.33-.7-.69-.68-.37.01-.66.34-.64.73Z"/>
                  <path class="cls-16" d="m298.94,362.8c.01.39.33.7.69.68.37-.02.65-.34.64-.74-.01-.39-.33-.7-.69-.68-.37.01-.66.34-.64.73Z"/>
                  <path class="cls-16" d="m303.93,360.01c.02.39.32.7.69.68.36-.01.66-.34.64-.73-.02-.39-.33-.7-.69-.68-.37.01-.66.34-.64.73Z"/>
                  <path class="cls-16" d="m302.25,358.11c.02.39.32.7.69.68.37-.01.65-.34.64-.74-.01-.39-.33-.7-.69-.68-.37.01-.65.34-.64.73Z"/>
                  <path class="cls-16" d="m300.53,360.14c.02.39.33.7.69.68.37-.01.65-.34.64-.73-.01-.39-.32-.69-.69-.68-.37.01-.65.34-.64.73Z"/>
                  <path class="cls-16" d="m297.13,360.27c.02.39.33.7.7.68.37-.01.65-.34.64-.73-.01-.39-.32-.69-.69-.68-.37.02-.66.34-.64.73Z"/>
                  <path class="cls-16" d="m298.73,358.25c.01.39.32.7.69.68.37-.01.65-.34.64-.73-.01-.39-.33-.7-.69-.68-.37.01-.65.34-.64.73Z"/>
                  <path class="cls-16" d="m295.55,362.93c.02.39.33.7.69.68.37-.01.65-.34.64-.74-.02-.39-.32-.7-.69-.68-.37.01-.65.34-.64.73Z"/>
                </g>
                <path class="cls-10" d="m315.57,363.87c.08.78-4.63,1-4.83.19-.2-.81-2.27-7.1-4.42-8.49-2.15-1.4,2.43-2.63,4.03-1.71,1.6.92,4.81,6.07,5.23,10.01Z"/>
                <path class="cls-6" d="m291.7,363.5c-.15-.05-.2-.08-.2-.08.03-.15.1-.29.15-.44,1.88.02,3.76.05,5.66,0,2.86-.06,5.76-.25,8.55-.93,1.23-.31,2.5-.7,3.5-1.57.87-.76,1.6-1.84,1.71-3.06.14-1.46-.62-2.72-1.5-3.83.29.05.56.14.77.26,1.46.84,4.24,5.18,5.04,8.93,6.14-.28,12.33-.82,16.89-1.87.99-.23,1.92,3.44-2.76,4.54-2.13.5-31.2,1.26-36.59,1.13-2.48-.06-3.21-2.27-1.22-3.09Z"/>
              </g>
            </g>
            <g>
              <path class="cls-26" d="m366.12,350.28l2.01,7.58s15.88-1,18.1,4.69c0,0-23.13,3.88-32.85-.5l1.86-11.29,10.89-.48Z"/>
              <g>
                <path class="cls-10" d="m348.97,361.58c-.99-.19-1.78,3.51,2.92,4.43,2.13.42,31.05.05,36.4-.29,2.88-.18,3.28-3.22-.15-3.37-3.99-.17-27.1,1.53-39.16-.77Z"/>
                <path class="cls-10" d="m370.5,363.88s1.04-6.25,4.07-8.65c0,0,13.38.82,15.02,7.27,0,0-2.55,1.57-19.09,1.39Z"/>
                <path class="cls-16" d="m374.63,354.23s-.03,0-.04,0h0c-1.03.19-2.22,1.84-2.78,2.65-1.32,1.88-2.05,3.97-2.17,6.31-.09,1.74,3.22-4.16,4.28-5.97.43-.75,1-3.09.71-3Z"/>
                <g>
                  <path class="cls-16" d="m375.41,362.17c0,.39-.3.71-.66.71s-.66-.32-.66-.71.3-.71.66-.71.66.32.66.71Z"/>
                  <path class="cls-16" d="m378.78,362.17c0,.39-.29.71-.66.71s-.67-.32-.67-.71.3-.71.67-.71.66.32.66.71Z"/>
                  <path class="cls-16" d="m382.17,362.17c0,.39-.3.71-.66.71s-.66-.32-.66-.71.29-.71.66-.71.66.32.66.71Z"/>
                  <path class="cls-16" d="m377.11,359.58c0,.39-.3.71-.66.71s-.66-.31-.66-.71.3-.71.66-.71.66.32.66.71Z"/>
                  <path class="cls-16" d="m378.7,357.62c0,.39-.3.71-.67.71s-.66-.32-.66-.71.3-.71.66-.71.67.32.67.71Z"/>
                  <path class="cls-16" d="m380.49,359.58c0,.39-.3.71-.66.71s-.66-.31-.66-.71.3-.71.66-.71.66.32.66.71Z"/>
                  <path class="cls-16" d="m383.87,359.58c0,.39-.3.71-.66.71s-.66-.31-.66-.71.3-.71.66-.71.66.32.66.71Z"/>
                  <path class="cls-16" d="m382.2,357.62c0,.39-.29.71-.66.71s-.66-.32-.66-.71.3-.71.66-.71.66.32.66.71Z"/>
                  <path class="cls-16" d="m385.55,362.17c0,.39-.3.71-.67.71s-.66-.32-.66-.71.3-.71.66-.71.67.32.67.71Z"/>
                </g>
                <path class="cls-10" d="m365.69,363.88c-.05.78,4.64.81,4.8,0,.16-.81,1.99-7.18,4.07-8.65,2.08-1.48-2.51-2.54-4.07-1.55-1.55.98-4.55,6.25-4.8,10.21Z"/>
                <path class="cls-6" d="m389.39,362.59c.14-.05.2-.09.2-.09-.04-.15-.12-.29-.16-.43-1.87.1-3.74.2-5.62.23-2.84.05-5.73-.02-8.53-.6-1.23-.26-2.51-.6-3.54-1.43-.89-.72-1.66-1.77-1.81-2.99-.2-1.45.51-2.75,1.34-3.89-.29.06-.55.16-.76.29-1.41.9-4.02,5.34-4.67,9.12-6.11-.04-12.28-.34-16.86-1.21-.99-.19-1.78,3.51,2.92,4.43,2.13.42,31.05.05,36.4-.29,2.47-.15,3.1-2.39,1.09-3.14Z"/>
              </g>
            </g>
            <g>
              <path class="cls-19" d="m365.4,234.96s6.03,23.56,6.01,61.04c-.01,25.11-3.89,55.37-3.89,55.37h-12.79s.4-45.4-.96-61.22c-1.35-15.82-5.9-43.37-5.9-43.37h-8.64s-6.17,60.56-10.94,104.58h-13.64s2.19-96.61,1.76-118.65l48.98,2.24Z"/>
              <path class="cls-11" d="m356.53,272.37c2.04,21.9,1.8,44.36-1.74,66.04.01-14.66-.12-37.85-1.02-48.25-1.13-13.17-4.47-34.47-5.56-41.23,6.47-.51,7.81,18.41,8.31,23.44Z"/>
              <path class="cls-11" d="m316.42,232.72l48.98,2.24s.42,1.66,1.04,4.76c-8.87,3.22-17.81,5.83-27.19,6.88-9.66.92-16.47,68.79-24.48,100.2.43-19.42,2.03-94.91,1.66-114.07Z"/>
            </g>
          </g>
          <g>
            <g>
              <path class="cls-10" d="m374.19,296.85s-34.95,10-63.79-1.33c0,0,9.29-128.45,10.64-133.19,1.35-4.73,29.75-6.59,34.99-.84,5.24,5.75,18.15,135.36,18.15,135.36Z"/>
              <path class="cls-7" d="m339.03,164.93c-1.28,44.84.9,89.11-.71,133.92-.07,1.96-1.78,1.91-1.67,0,2.77-44.77.06-89.1,2.3-133.92,0-.09.07,0,.07,0Z"/>
              <g class="cls-3">
                <path class="cls-8" d="m338.22,177.5c.25.22.3.5.29.82-.04,1.07-1.71,1.07-1.67,0,0-.06,0-.12,0-.19.02-.47.37-.81.83-.83.21-.01.38.06.54.2h0Z"/>
                <path class="cls-8" d="m337.4,192.08s0,.09.01.13c.32,1.23-1.78,1.1-1.4,0,.06-.17.11-.31.21-.45.34-.46,1.2-.36,1.17.32h0Z"/>
                <path class="cls-8" d="m336.96,205.77s0,.04-.02.06c-.03-.21-.05-.43-.08-.64.02.03.04.07.05.1.31.6-.07,1.36-.78,1.36-.66,0-1.16-.78-.78-1.36.17-.25.33-.42.63-.5.59-.16,1.14.39.98.99h0Z"/>
                <path class="cls-8" d="m336.76,220.63c.17.49.31.85.03,1.33-.29.5-1.02.5-1.31,0-.29-.48-.14-.84.03-1.33.22-.62,1.04-.62,1.26,0h0Z"/>
                <path class="cls-8" d="m335.55,234.32c-1.5,0-1.5-2.32,0-2.32s1.5,2.32,0,2.32h0Z"/>
              </g>
              <path class="cls-27" d="m325.58,211.57c-3.11.28-1.56-50.01-4.52-49.23-.42,5.41-5.35,62.05-5.77,67.58,3.1-.55,6.14-1.38,8.17-1.61,3.72-.53,7.44-1.33,11.42-1.06,29.89.91,35.84,40.9,36.33,40.86-.79-6.7-5.93-51.98-6.75-58.43-6.5,1.15-12.95,1.9-20.01,1.9-6.38,0-12.75-.8-18.86,0Z"/>
            </g>
            <g>
              <g>
                <g>
                  <path class="cls-12" d="m321.27,239.13c.02.84.71,1.51,1.55,1.5l34.59-.67c.84-.02,1.51-.71,1.49-1.55l-.9-46.2c-.02-.84-.71-1.51-1.55-1.49l-34.59.68c-.84.01-1.51.71-1.49,1.55l.9,46.2Z"/>
                  <path class="cls-33" d="m328.75,233.22c6.99-6.01,12.09-13.67,16.1-21.94,3.34-6.64,5.94-13.55,8.35-20.53l3.25-.06c.84-.02,1.54.65,1.55,1.49l.9,46.2c.02.84-.65,1.54-1.49,1.55l-34.59.67c-.84.02-1.54-.65-1.55-1.5v-.27c2.64-1.66,5.15-3.5,7.48-5.63Z"/>
                </g>
                <path class="cls-18" d="m346.77,187.38h-3.51c0-1.63-1.32-2.95-2.95-2.95s-2.95,1.32-2.95,2.95h-3.51c-1.58,0-2.86,1.28-2.86,2.85s1.28,2.86,2.86,2.86h12.92c1.58,0,2.85-1.28,2.85-2.86s-1.28-2.85-2.85-2.85Zm-6.46,1.48c-.82,0-1.48-.66-1.48-1.48s.66-1.48,1.48-1.48,1.48.66,1.48,1.48-.66,1.48-1.48,1.48Z"/>
              </g>
              <g>
                <g>
                  <path class="cls-26" d="m324.39,213.09c1.01-.38,3.13-.21,5.2-.04,2.07.17,2.37-.25,1.44-.68-3.24-1.47-4.94-3.21-3.8-4.02,1.14-.8,7.94,2.41,8.62,2.58.67.17.38-.72-.76-2.49-1.14-1.78-1.86-3.97,0-3.72,1.86.25,8.66,7.86,8.66,7.86,0,0,16.9-1.21,18.83-1.91,1.92-.7.67-12.08.3-16.09-2.23-24.2-6.83-33.1-6.83-33.1,0,0,20.06,21.91,21.86,40.62,1.8,18.59-3.28,24.88-34.81,16.34-2.15.14-13.06.87-15.5.99-2.71.13-2.45-2.2-.76-2.37,1.69-.17,5.11-.97,4.99-1.23-.13-.25-3.38-.04-5.79-.3-2.41-.25-2.66-2.07-1.65-2.46Z"/>
                  <path class="cls-23" d="m324.39,213.09c1.01-.38,3.13-.21,5.2-.04,2.07.17,2.37-.25,1.44-.68-3.24-1.47-4.94-3.21-3.8-4.02,1.14-.8,7.94,2.41,8.62,2.58.67.17.38-.72-.76-2.49-1.14-1.78-1.86-3.97,0-3.72,1.86.25,8.66,7.86,8.66,7.86,0,0,3.44-.25,7.39-.58-.1.19-.14.35-.06.48.22.39,1.41.06,1.74.06.73-.06,1.41-.11,2.08.22,1.07.45,1.86,1.46.84,2.42-.45.45-1.46.67-1.74,1.18-.34.51.11.79.45,1.18.95,1.22,1.27,2.5,1.01,3.72-3.58-.62-7.67-1.56-12.36-2.83-2.15.14-13.06.87-15.5.99-2.71.13-2.45-2.2-.76-2.37,1.69-.17,5.11-.97,4.99-1.23-.13-.25-3.38-.04-5.79-.3-2.41-.25-2.66-2.07-1.65-2.46Z"/>
                  <g>
                    <path class="cls-10" d="m356.04,161.49s9.14,47.09,6.31,48.4c-2.83,1.31-18.3.98-18.3.98l-1.02,9.91s23.88,6.69,31.87.49c7.99-6.2,7.52-39.17-18.86-59.79Z"/>
                    <path class="cls-27" d="m367.54,212.17c2.8-2.9,1.56-8.72.93-12.25-1.04-6.85-9.13-35.86-12.43-38.44,0,0,9.14,47.09,6.31,48.4-2.83,1.31-18.3.98-18.3.98l-.19,1.85c4.36.3,8.73.67,13.09,1,3.11.21,8.09.94,10.58-1.56Z"/>
                  </g>
                </g>
                <g>
                  <path class="cls-26" d="m300.66,202.11c1.81-18.71,20.39-39.78,20.39-39.78l-3.43,32.37s-3.55,15.28-1.63,15.98c1.78.65,16.81,1.55,19.03,1.69,1.11-1.22,6.79-7.41,8.46-7.64,1.86-.25,1.14,1.94,0,3.72-1.14,1.77-1.44,2.66-.76,2.49.68-.17,7.48-3.38,8.62-2.58,1.14.8-.57,2.54-3.8,4.02-.93.42-.63.84,1.44.68,2.07-.17,4.18-.35,5.2.04,1.01.39.76,2.2-1.65,2.46-2.41.25-5.66.04-5.79.3-.13.25,3.3,1.06,4.99,1.23,1.69.17,1.95,2.49-.76,2.37-2.29-.11-12.03-.75-15-.96-32.08,8.79-37.11,2.34-35.31-16.37Z"/>
                  <path class="cls-23" d="m320.19,213.51c-1.76-.14-4.08,0-5.13-1.62-1.33-2.32-3.52-3.31-5.91-4.43-2.92-1.38-5.79-2.75-8.59-4.23.03-.37.06-.74.1-1.12,1.81-18.71,20.39-39.78,20.39-39.78l-3.43,32.37s-3.55,15.28-1.63,15.98c1.64.6,14.52,1.41,18.27,1.64-1.16.98-2.36,1.57-4.01,1.68-3.31.21-6.75-.21-10.06-.49Z"/>
                </g>
              </g>
              <g>
                <path class="cls-27" d="m323.82,160.2s-9.23,47.53-6.4,48.83c2.83,1.31,18.3.98,18.3.98l1.02,9.91s-25.44,7.52-33.43,1.32c-7.99-6.2-3.85-47.53,20.52-61.04Z"/>
                <path class="cls-10" d="m312.23,211.32c-2.8-2.9-1.56-8.72-.93-12.25,1.04-6.85,2.59-13.7,3.32-20.75.33-3.15.08-7.72.04-10.87,2.52-2.89,5.83-5.86,9.16-7.24,0,0-9.23,47.53-6.4,48.83,2.83,1.31,18.3.98,18.3.98l.19,1.85c-4.36.3-8.73.67-13.09,1-3.11.21-8.09.94-10.58-1.56Z"/>
              </g>
            </g>
          </g>
          <g>
            <g>
              <path class="cls-23" d="m334.87,161.54c0,2.41.83,3.71,3.24,3.71l2.24.1c2.41,0,3.24-1.4,3.24-3.81v-7.79c0-2.41-1.95-4.36-4.36-4.36h0c-2.41,0-4.36,1.95-4.36,4.36v7.79Z"/>
              <g>
                <g>
                  <path class="cls-26" d="m309.4,130.48c0,3.52,2.85,6.38,6.38,6.38s6.38-2.85,6.38-6.38-2.86-6.38-6.38-6.38-6.38,2.86-6.38,6.38Z"/>
                  <path class="cls-13" d="m317.79,130.28c.97,1.05,2.17,3.34,1.04,4.63-.19.22-.56.09-.64-.17-.17-.63,0-1.26-.16-1.91-.04-.18-.11-.36-.18-.53-.51-.41-1.14-.66-1.83-.71-1.22-.07-1.4.9-1.06,1.87.25.73-.95,1.07-1.15.32-.39-1.5.11-2.95,1.81-3.11.45-.04.88.05,1.27.22-.03-.04-.06-.07-.09-.11-1.07-1.16-2.49-2.21-3.97-2.78-.11-.04-.1-.23.03-.21,1.92.26,3.63,1.05,4.94,2.48Z"/>
                </g>
                <g>
                  <path class="cls-26" d="m356.95,130.48c0,3.52,2.86,6.38,6.38,6.38s6.38-2.85,6.38-6.38-2.86-6.38-6.38-6.38-6.38,2.86-6.38,6.38Z"/>
                  <path class="cls-13" d="m366.44,129.08c.06.01.04.11-.01.11-1.46.01-2.89.35-3.98,1.37-.38.36-.63.81-.82,1.29,1.47-.54,3.5.12,2.82,2.01-.21.6-1.05.36-.94-.26.2-1.08-1.15-1.29-2.12-1.03-.14.62-.19,1.26-.18,1.87.01.77-1.24.77-1.2,0,.09-1.68.54-3.32,1.83-4.49,1.26-1.15,3.02-1.18,4.61-.87Z"/>
                </g>
              </g>
              <g>
                <path class="cls-25" d="m356.95,104.38c2.87,3.68,6.27,16.39,3.66,32.48-2.61,16.08-14.78,18.77-20.8,18.77s-19.67-1.54-21.69-13.58c-2.01-12.04-3.55-31.01,3.5-38.31,7.05-7.3,28.54-8.07,35.34.64Z"/>
                <path class="cls-20" d="m344.18,140.18c1.56-5.41-2.84-5.13-6.6-6.23-4.31-1.28,1.92-3.3,3.48-3.39,1.01-.09,8.34,1.1,8.62-.09.37-2.2-8.62-3.39-9.9-3.57-1.56-.19-3.39-.19-4.77-1.1-1.19-.73-1.83-2.11-2.57-3.3-2.02-3.58-5.59-7.61-5.87-11.82-.28-3.76,3.21-5.68,6.51-5.68,4.49,0,8.71,1.28,13.2.18,1.92-.46,4.22-1.28,5.13-3.21.24-.48.34-.98.37-1.48,2.1.99,3.89,2.28,5.16,3.91,2.87,3.68,6.27,16.39,3.66,32.48-2.24,13.77-11.47,17.71-17.86,18.56-.01,0-.03-.02-.04-.03-4.95-3.67.18-10.91,1.47-15.22Z"/>
              </g>
              <g>
                <g>
                  <path class="cls-26" d="m355.69,108.61c2.66,4.86,3.04,25.23.86,25.02-2.18-.22-12.33-3.02-17.81-3.15-5.48-.13-17.3,3.39-19.33,3.15-2.03-.25-2.29-24.38,3.74-27.19,6.02-2.82,5.47,2.31,15.42,2.05,9.95-.26,14.96-3.83,17.12.13Z"/>
                  <path class="cls-23" d="m323.15,106.43c6.02-2.82,5.47,2.31,15.42,2.05,2.87-.07,5.32-.42,7.41-.79-1.64.49-3.31.92-5.01,1.23-4.12.64-8.52.18-12.56,1.1-7.88,1.93-7.7,13.47-6.42,19.61.27,1.25.66,2.4,1.18,3.45-1.8.37-3.19.61-3.77.54-2.03-.25-2.29-24.38,3.74-27.19Z"/>
                </g>
                <g>
                  <g>
                    <path class="cls-34" d="m346.84,123.53c0,1,.64,1.81,1.43,1.81s1.43-.81,1.43-1.81-.64-1.82-1.43-1.82-1.43.81-1.43,1.82Z"/>
                    <path class="cls-34" d="m326.87,123.36c0,1,.64,1.81,1.43,1.81s1.43-.81,1.43-1.81-.64-1.81-1.43-1.81-1.43.81-1.43,1.81Z"/>
                  </g>
                  <g>
                    <path class="cls-26" d="m338.66,122.33c-.7.03-.87,4.25-2.32,5.61-1.45,1.35-3.29,2.22-2.9,4.06.39,1.84,4.28,2.82,6.48,0,2.03-2.61.68-9.76-1.26-9.66Z"/>
                    <path class="cls-22" d="m338.66,122.33c-.7.03-.87,4.25-2.32,5.61-1.45,1.35-3.29,2.22-2.9,4.06.39,1.84,4.28,2.82,6.48,0,2.03-2.61.68-9.76-1.26-9.66Z"/>
                  </g>
                  <path class="cls-28" d="m328.11,116.12c.39.19.12.82-.29.69-1.23-.37-2.43.42-3.49.97-.52.27-1.15-.44-.66-.85,1.21-1.04,2.95-1.56,4.44-.81Z"/>
                  <path class="cls-28" d="m347.11,115.13c.78-.25,1.54-.18,2.31.09.78.27,1.25.92,1.74,1.55.33.43-.31,1.06-.74.74-.43-.32-.92-.55-1.35-.86-.6-.44-1.08-.78-1.86-.77-.44,0-.5-.62-.1-.75Z"/>
                  <path class="cls-13" d="m334.36,137.2c.58.57.96,1.28,1.57,1.84,1.04.98,2.66,1.13,4,.93,2.56-.39,3.32-3.11,3.54-5.29,0-.07.1-.07.11,0,.19,2.83-.43,5.34-3.38,6.27-2.41.76-6.18-.53-6.74-3.23-.11-.52.5-.92.91-.53Z"/>
                </g>
              </g>
            </g>
            <g>
              <path class="cls-27" d="m345.67,158.34c.08.37,1.08,12.78-.62,12.68-1.7-.1-6.32-5.24-6.07-5.71.25-.47,4.09-9.08,4.55-9.18.45-.1,2.05,1.78,2.15,2.21Z"/>
              <path class="cls-27" d="m332.15,158.34c-.08.37-1.08,12.78.62,12.68,1.7-.1,6.46-5.24,6.21-5.71-.25-.47-4.23-9.08-4.69-9.18-.45-.1-2.05,1.78-2.15,2.21Z"/>
            </g>
            <g>
              <path class="cls-30" d="m317.49,111.66s20.87,4.28,42.41-.75c0,0-2.19-10.79-4.29-15.06-2.29-4.66-30.66-4.73-33.77,0-3.12,4.73-4.34,15.81-4.34,15.81Z"/>
              <path class="cls-29" d="m355.51,95.72c-.97.52-2.01.96-3.09,1.34-4.42,1.52-9.13,1.41-13.72,1.9-2.83.32-5.59.65-8.36,1.3-.59.11-3.06.49-1.94,1.14.53.33,1.71.27,2.35.33,1.18.11,2.36.22,3.54.33,2.47.27,4.89.65,7.3,1.14-1.53.16-3.12.38-4.65.76-1.24.33-3.53.6-4.47,1.47-.88.81.53.92,1.24,1.08,1.47.27,3.3.38,4.59,1.14,2.59,1.47-4.95,2.88-5.77,3.09-1.85.51-3.42,1.13-4.32,2.28,8.09.61,19.79.68,31.69-2.1,0,0-2.19-10.79-4.29-15.06-.02-.04-.06-.09-.09-.13Z"/>
            </g>
          </g>
        </g>
        <g>
          <g>
            <path class="cls-23" d="m98.27,157.39c0,2.25,1.83,4.08,4.07,4.08h0c2.25,0,4.07-1.83,4.07-4.08v-7.55c0-2.25-1.82-4.07-4.07-4.07h0c-2.25,0-4.07,1.82-4.07,4.07v7.55Z"/>
            <g>
              <g>
                <path class="cls-26" d="m78.22,123.97c0,14.11,10.6,25.55,23.69,25.55s23.69-11.44,23.69-25.55-10.6-25.55-23.69-25.55-23.69,11.44-23.69,25.55Z"/>
                <path class="cls-23" d="m78.22,123.97c0-13.6,9.85-24.69,22.27-25.47-1.94.94-3.77,2.07-5.36,3.53-3.51,3.28-4.91,7.61-5.97,12.05-1.87,8.19-6.55,18.72-.7,26.21,2.74,3.55,6.37,6.43,10.26,8.98-11.57-1.68-20.51-12.35-20.51-25.3Z"/>
              </g>
              <g>
                <path class="cls-22" d="m101.77,124.17c-.71.04-.88,4.33-2.36,5.7-1.47,1.37-3.34,2.26-2.95,4.13.39,1.87,4.36,2.87,6.59,0,2.06-2.65.69-9.93-1.28-9.83Z"/>
                <g>
                  <path class="cls-34" d="m91.34,117.43c-1.25-.38-2.48.43-3.55.99-.53.28-1.16-.44-.67-.87,1.23-1.06,3-1.59,4.52-.83.4.2.12.83-.3.71Z"/>
                  <path class="cls-34" d="m114.32,118.13c-.44-.32-.93-.56-1.37-.88-.61-.44-1.1-.79-1.89-.79-.45,0-.51-.63-.1-.76.79-.26,1.57-.19,2.35.09.79.28,1.27.93,1.77,1.58.33.44-.32,1.07-.76.76Z"/>
                </g>
                <g>
                  <path class="cls-34" d="m87.94,124.38c-.35,1.81-.17,3.69.75,5.3.89,1.55,1.91,1.23,2.88.17,1.42-1.54,2.02-3.8,2.76-5.71.05-.13.25-.08.21.06-.54,2.31-.87,6.12-3.2,7.39-1.23.68-2.42-.21-3.12-1.21-1.28-1.82-1.52-4.1-1.15-6.25.1-.56.96-.32.85.23Z"/>
                  <path class="cls-34" d="m109.75,125.56c-.34,1.58-.75,3.55.13,5.01.72,1.2,2.53,1.5,3.38.34,1.26-1.71,1.63-3.78,2.04-5.82.02-.12.21-.09.21.03,0,2.37.33,6.58-2.43,7.64-1.48.57-3.09-.13-3.79-1.51-.87-1.71-.53-4.08-.19-5.87.08-.42.73-.24.64.18Z"/>
                </g>
                <path class="cls-13" d="m97.93,138.76c.67.49,1.15,1.15,1.84,1.63,1.18.83,2.84.76,4.16.37,2.52-.76,2.9-3.6,2.81-5.83,0-.07.1-.09.11-.02.6,2.82.33,5.44-2.5,6.8-2.32,1.11-6.3.35-7.25-2.3-.18-.51.37-1,.84-.66Z"/>
              </g>
            </g>
            <g>
              <g>
                <path class="cls-34" d="m125.6,108.68c1.01.38,2.6,16.18,1.18,17.58-1.43,1.39-5.37,2.74-5.37,2.74,0,0-2.24,1.31-2.66-1.9-.42-3.21,3.13-6.25,3.13-6.25,0,0-1.78-7.35-1.78-8.7s3.47-4.23,5.5-3.47Z"/>
                <path class="cls-24" d="m122.42,109.41c1.05-.67,2.25-1.08,3.17-.74,1.01.38,2.6,16.18,1.18,17.58-.48.47-1.25.93-2.05,1.34-.2-3.43-.46-6.83-1.04-10.24-.39-2.57-.63-5.34-1.26-7.94Z"/>
              </g>
              <g>
                <path class="cls-34" d="m78.46,108.76c-.8.38-2.05,16.05-.93,17.43,1.12,1.38,4.22,2.72,4.22,2.72,0,0,1.76,1.31,2.09-1.88.33-3.18-2.46-6.2-2.46-6.2,0,0,1.4-7.29,1.4-8.63s-2.73-4.19-4.32-3.43Z"/>
                <path class="cls-24" d="m80.63,124.37c-.82-1.29-1.52-1.87-1.4-3.39.12-1.87.35-3.86.59-5.62.35-1.29,1.05-2.57.7-3.98-.24-.97-.85-1.87-1.59-2.71,1.61-.14,3.86,2.3,3.86,3.52,0,1.34-1.4,8.63-1.4,8.63,0,0,2.79,3.02,2.46,6.2-.33,3.18-2.09,1.88-2.09,1.88,0,0-.12-.05-.28-.12.22-1.46.02-2.92-.84-4.41Z"/>
              </g>
            </g>
            <g>
              <path class="cls-16" d="m112.35,136.43c1.94-.05,3.89-2.2,5.22-3.37,2.01-1.76,3.91-3.63,5.82-5.48.51-.5-.29-1.29-.78-.78-1.57,1.63-3.11,3.27-4.72,4.87-.94.93-1.89,1.85-2.89,2.72-.76.65-1.67,1.72-2.66,1.99-.03,0-.03.06,0,.06h0Z"/>
              <path class="cls-16" d="m123.35,134.72c-2.88,4.31-5.48,9.09-9.66,12.29-.39.3,0,.98.39.67,4.35-3.29,7.2-7.97,9.38-12.89.03-.08-.06-.14-.11-.07h0Z"/>
              <path class="cls-16" d="m80.81,127.6c1.59,1.4,2.91,3.04,4.44,4.49s3.04,2.94,4.42,4.56c.54.63,1.47-.29.92-.92-2.8-3.16-6.01-6.12-9.59-8.38-.15-.1-.34.13-.2.25h0Z"/>
              <path class="cls-16" d="m78.21,133.77c1.38,3.34,3.51,6.35,5.78,9.14,1.56,1.93,4.56,5.67,7.51,4.63.93-.33.55-1.81-.41-1.5-2.35.76-5.74-3.76-7.04-5.26-1.95-2.27-3.77-4.71-5.54-7.13-.1-.13-.37-.06-.3.12h0Z"/>
              <path class="cls-10" d="m88.02,134.63s.52,7.34-1.02,11.75c0,0,3.65,4.86,13.56,5.17,11.29.36,15.74-5.68,15.74-5.68,0,0-2.48-7.3-1.32-11.78,0,0-11.92-3.1-26.96.53Z"/>
              <path class="cls-17" d="m109.05,148.55c-1.58,0-3.72.23-5.18-.51-1.74-.85.45-2.53,1.01-3.49.73-1.24.22-2.08-.96-2.64-.62-.23-2.19-.39-1.29-.96.67-.39,1.91-.39,2.65-.51,1.01-.17,2.03-.39,3.03-.67.34-.06,1.35-.28,1.24-.73-.11-.51-1.85-.56-2.19-.62-3.15-.51-6.36-.51-9.56-.84-.28-.06-1.69-.06-1.57-.45.06-.34,2.3-.51,2.58-.56,4.43-.78,9.59-1.11,13.94-2.92-4.13-.7-13.56-1.72-24.73.98,0,0,.52,7.34-1.02,11.75,0,0,3.65,4.86,13.56,5.17,6.16.19,10.27-1.51,12.74-3.1-1.42.06-2.85.1-4.26.1Z"/>
            </g>
            <g>
              <path class="cls-23" d="m70.1,130.66c0,3.58,2.91,6.49,6.49,6.49s6.49-2.9,6.49-6.49-2.91-6.48-6.49-6.48-6.49,2.9-6.49,6.48Z"/>
              <path class="cls-13" d="m78.39,129.7c.99,1.07,2.21,3.4,1.06,4.71-.19.22-.58.09-.65-.17-.17-.64,0-1.28-.17-1.95-.04-.18-.11-.36-.18-.53-.52-.41-1.15-.67-1.87-.72-1.24-.07-1.42.92-1.08,1.9.25.74-.97,1.09-1.17.32-.4-1.53.12-3,1.83-3.16.46-.04.89.05,1.29.23-.03-.04-.06-.07-.09-.11-1.09-1.18-2.53-2.25-4.04-2.82-.11-.04-.1-.23.03-.22,1.95.26,3.69,1.07,5.02,2.52Z"/>
            </g>
            <g>
              <path class="cls-26" d="m120.97,131.33c0,3.58,2.9,6.49,6.49,6.49s6.48-2.9,6.48-6.49-2.9-6.49-6.48-6.49-6.49,2.9-6.49,6.49Z"/>
              <path class="cls-13" d="m130.62,129.9c.06.02.05.11-.02.11-1.48.01-2.94.36-4.05,1.4-.39.36-.64.82-.83,1.31,1.5-.55,3.56.12,2.87,2.04-.22.61-1.07.37-.96-.26.2-1.09-1.17-1.31-2.15-1.05-.14.63-.2,1.28-.18,1.9.02.79-1.26.78-1.22,0,.09-1.71.55-3.38,1.86-4.56,1.28-1.17,3.07-1.2,4.68-.89Z"/>
            </g>
          </g>
          <g>
            <g>
              <path class="cls-26" d="m64.83,350.15l-3.28,6.06s-14.61.52-16.83,6.21c0,0,23.12,3.88,32.85-.5l-1.86-11.29-10.89-.48Z"/>
              <g>
                <path class="cls-10" d="m80.57,359.46c.99-.19,1.79,3.51-2.93,4.43-2.15.42-31.23.05-36.61-.29-2.9-.18-3.29-3.22.16-3.37,4.01-.17,27.26,1.53,39.38-.77Z"/>
                <path class="cls-10" d="m58.93,361.77s-1.04-6.25-4.09-8.65c0,0-13.46.82-15.11,7.27,0,0,2.56,1.57,19.19,1.39Z"/>
                <path class="cls-16" d="m54.77,352.11s.02,0,.03,0h0c1.04.19,2.23,1.84,2.8,2.65,1.33,1.88,2.07,3.97,2.18,6.31.09,1.74-3.24-4.16-4.31-5.97-.44-.75-1-3.09-.71-3Z"/>
                <g>
                  <path class="cls-16" d="m53.99,360.05c0,.39.3.71.67.71s.67-.32.67-.71-.29-.71-.67-.71-.67.32-.67.71Z"/>
                  <path class="cls-16" d="m50.59,360.05c0,.39.3.71.67.71s.67-.32.67-.71-.3-.71-.67-.71-.67.32-.67.71Z"/>
                  <path class="cls-16" d="m47.19,360.05c0,.39.3.71.67.71s.67-.32.67-.71-.3-.71-.67-.71-.67.32-.67.71Z"/>
                  <path class="cls-16" d="m52.28,357.46c0,.39.3.71.67.71s.67-.31.67-.71-.3-.71-.67-.71-.67.32-.67.71Z"/>
                  <path class="cls-16" d="m50.68,355.5c0,.39.3.71.67.71s.67-.32.67-.71-.3-.71-.67-.71-.67.32-.67.71Z"/>
                  <path class="cls-16" d="m48.88,357.46c0,.39.3.71.66.71s.67-.31.67-.71-.3-.71-.67-.71-.66.32-.66.71Z"/>
                  <path class="cls-16" d="m45.48,357.46c0,.39.3.71.67.71s.67-.31.67-.71-.3-.71-.67-.71-.67.32-.67.71Z"/>
                  <path class="cls-16" d="m47.15,355.5c0,.39.29.71.67.71s.67-.32.67-.71-.3-.71-.67-.71-.67.32-.67.71Z"/>
                  <path class="cls-16" d="m43.79,360.05c0,.39.3.71.66.71s.67-.32.67-.71-.3-.71-.67-.71-.66.32-.66.71Z"/>
                </g>
                <path class="cls-10" d="m63.76,361.77c.05.78-4.67.81-4.84,0-.17-.81-2-7.18-4.09-8.65-2.1-1.48,2.53-2.54,4.09-1.55,1.56.98,4.57,6.25,4.84,10.21Z"/>
                <path class="cls-6" d="m39.93,360.47c-.14-.05-.2-.09-.2-.09.04-.15.11-.29.17-.43,1.88.1,3.76.2,5.65.23,2.86.05,5.76-.02,8.58-.6,1.24-.26,2.52-.6,3.56-1.43.9-.72,1.67-1.77,1.82-2.99.2-1.45-.51-2.75-1.35-3.89.29.06.56.16.76.29,1.42.9,4.04,5.34,4.69,9.12,6.14-.04,12.35-.34,16.95-1.21.99-.19,1.79,3.51-2.93,4.43-2.15.42-31.23.05-36.61-.29-2.48-.15-3.12-2.39-1.1-3.14Z"/>
              </g>
            </g>
            <g>
              <path class="cls-26" d="m122.25,350.15l2.01,7.58s15.88-1,18.1,4.69c0,0-23.12,3.88-32.85-.5l1.86-11.29,10.89-.48Z"/>
              <g>
                <path class="cls-10" d="m105.11,361.44c-.99-.19-1.78,3.51,2.92,4.43,2.13.42,31.05.05,36.4-.29,2.88-.18,3.28-3.22-.15-3.37-3.99-.17-27.1,1.53-39.17-.77Z"/>
                <path class="cls-10" d="m126.63,363.75s1.04-6.25,4.07-8.65c0,0,13.38.82,15.02,7.27,0,0-2.55,1.57-19.09,1.39Z"/>
                <path class="cls-16" d="m130.77,354.09s-.03,0-.03,0h0c-1.03.19-2.22,1.84-2.78,2.65-1.32,1.88-2.05,3.97-2.17,6.31-.09,1.74,3.22-4.16,4.28-5.97.43-.75,1-3.09.71-3Z"/>
                <g>
                  <path class="cls-16" d="m131.54,362.03c0,.39-.3.71-.66.71s-.66-.32-.66-.71.3-.71.66-.71.66.32.66.71Z"/>
                  <path class="cls-16" d="m134.92,362.03c0,.39-.29.71-.66.71s-.67-.32-.67-.71.3-.71.67-.71.66.32.66.71Z"/>
                  <path class="cls-16" d="m138.3,362.03c0,.39-.3.71-.66.71s-.66-.32-.66-.71.29-.71.66-.71.66.32.66.71Z"/>
                  <path class="cls-16" d="m133.24,359.44c0,.39-.3.71-.67.71s-.66-.31-.66-.71.3-.71.66-.71.67.32.67.71Z"/>
                  <path class="cls-16" d="m134.83,357.48c0,.39-.3.71-.66.71s-.66-.32-.66-.71.3-.71.66-.71.66.32.66.71Z"/>
                  <path class="cls-16" d="m136.62,359.44c0,.39-.3.71-.66.71s-.66-.31-.66-.71.3-.71.66-.71.66.32.66.71Z"/>
                  <path class="cls-16" d="m140,359.44c0,.39-.3.71-.66.71s-.66-.31-.66-.71.3-.71.66-.71.66.32.66.71Z"/>
                  <path class="cls-16" d="m138.34,357.48c0,.39-.29.71-.66.71s-.66-.32-.66-.71.3-.71.66-.71.66.32.66.71Z"/>
                  <path class="cls-16" d="m141.68,362.03c0,.39-.3.71-.67.71s-.66-.32-.66-.71.3-.71.66-.71.67.32.67.71Z"/>
                </g>
                <path class="cls-10" d="m121.83,363.75c-.05.78,4.64.81,4.81,0,.16-.81,1.99-7.18,4.07-8.65,2.08-1.48-2.51-2.54-4.07-1.56-1.55.98-4.55,6.25-4.81,10.21Z"/>
                <path class="cls-6" d="m145.52,362.45c.14-.05.2-.09.2-.09-.04-.15-.12-.29-.17-.43-1.87.1-3.74.2-5.62.23-2.84.05-5.73-.02-8.53-.6-1.23-.26-2.51-.6-3.54-1.43-.89-.72-1.66-1.77-1.81-2.99-.2-1.45.51-2.75,1.34-3.89-.29.06-.55.16-.76.29-1.41.9-4.02,5.34-4.67,9.12-6.11-.04-12.28-.34-16.86-1.21-.99-.19-1.78,3.51,2.92,4.43,2.13.42,31.05.05,36.4-.29,2.47-.15,3.1-2.39,1.1-3.14Z"/>
              </g>
            </g>
            <path class="cls-11" d="m122.03,227.66s6.37,24.87,6.35,64.45c-.01,26.51-4.1,58.46-4.1,58.46h-13.5s.41-47.94-1.02-64.64c-1.43-16.7-6.23-45.79-6.23-45.79h-9.12s-13.65,64.01-18.68,110.49h-14.8s5.58-96.12,11.13-125.26l49.98,2.28Z"/>
            <path class="cls-19" d="m76.21,288.6c-4.44,11.41-8.87,22.92-13.52,34.33,2.08-30.73,5.73-78.49,9.36-97.56l49.98,2.28s1.14,4.48,2.46,12.63c-5.44,1.23-11.16,1.02-17.35,1.28,1.82,16.03,7.08,36.45,3.13,53.43-.14-3.52-.31-6.63-.52-9.06-1.43-16.7-6.23-45.79-6.23-45.79h-9.12s-.33,1.56-.91,4.38c-3.32,5.09-4.56,10.51-6.69,16.53-2.96,9.32-6.78,18.65-10.59,27.54Z"/>
          </g>
          <g>
            <g>
              <path class="cls-10" d="m82.62,161.09s18.89-8.83,38.81,1.59c0,0,4.4,42.53,4.82,52.08.42,9.55,3.5,75.42,3.5,75.42l-65.13-3.89s6-59.86,8.64-75.83c3.33-20.12,9.86-49.9,9.86-49.9"/>
              <g class="cls-21">
                <path class="cls-8" d="m102.25,158.31c-1.23,21.69-.27,43.6-.97,65.34-.68,21.04-2.3,42.01-4.05,62.98-.05.55.78.53.84,0,2.54-20.9,3.73-41.94,4.42-62.98.71-21.6,1.69-43.78.02-65.34-.01-.17-.25-.17-.26,0h0Z"/>
                <path class="cls-8" d="m97.74,178.06c-.23.35-.25.68-.19,1.09.06.46.58.6.96.54.05,0,.11-.01.16-.02.28-.04.6-.36.64-.64,0-.06.02-.11.03-.16.07-.4-.04-.82-.42-1.03-.03-.02-.07-.04-.1-.06-.39-.21-.84-.08-1.08.28h0Z"/>
                <path class="cls-8" d="m97.74,202.56c-.23.35-.25.68-.19,1.09.06.46.58.6.96.54.05,0,.11-.01.16-.02.28-.04.6-.36.64-.64,0-.05.02-.11.03-.16.07-.4-.04-.82-.42-1.03-.03-.02-.07-.04-.1-.05-.39-.21-.84-.08-1.08.28h0Z"/>
                <path class="cls-8" d="m97.74,227.06c-.23.35-.25.68-.19,1.09.06.46.58.6.96.54.05,0,.11-.01.16-.02.28-.04.6-.36.64-.64,0-.06.02-.11.03-.17.07-.4-.04-.82-.42-1.03-.03-.02-.07-.04-.1-.06-.39-.21-.84-.08-1.08.28h0Z"/>
                <path class="cls-8" d="m96.36,251.56c-.23.35-.25.68-.19,1.09.06.46.58.6.96.54.05,0,.11-.02.16-.02.28-.04.6-.36.64-.64,0-.06.02-.11.03-.17.07-.4-.04-.82-.42-1.03-.03-.02-.07-.04-.1-.06-.39-.21-.84-.08-1.08.28h0Z"/>
                <path class="cls-8" d="m93.96,276.06c-.23.35-.25.68-.19,1.09.06.46.58.6.96.54.05,0,.11-.01.16-.02.28-.04.6-.36.64-.64,0-.06.02-.11.03-.16.07-.4-.04-.82-.42-1.03-.03-.02-.07-.04-.1-.06-.39-.21-.84-.08-1.08.28h0Z"/>
              </g>
              <g class="cls-5">
                <path class="cls-27" d="m94.14,161.52c-1.64,6.03-3.26,13.68-.18,19.57,2.09,4,5.31,7.27,7.03,11.47,1.72,4.2-1.4,8.97-.82,13.29.64,4.76,8.99,21.26,14.69,12.92.74-1.09-.89-2.26-1.78-1.38-3.34,3.32-9.47-8.13-10.25-10.37-1.69-4.84,3.24-10.24,1.38-15.36-1.48-4.08-3.84-7.16-6.41-10.61-4.11-5.52-3.53-13.02-3.4-19.5,0-.15-.22-.17-.25-.04h0Z"/>
              </g>
              <path class="cls-27" d="m83.8,225.87c2.24-6.56-5.36-11.18-10.68-14.58-1.44,9.1-3.75,29.72-5.6,47.03,2.45-5.26,4.98-10.5,7.6-15.65,2.77-5.54,6.46-10.89,8.68-16.8Z"/>
              <g>
                <path class="cls-28" d="m109.93,178.17c1.07-5.33,1.49-13.3-2.69-17.49-.02-.02-.04,0-.04.02,1.82,5.92,2.31,10.8.75,16.92-1.09,4.28-2.72,8.19-4.68,12.1-3.1-4.08-5.79-7.66-7.64-12.61-2.09-5.6-1.46-10.84-.41-16.54,0-.02-.03-.04-.04-.02-6.31,9.33-.78,24.77,7.81,30.66.05.03.09.05.14.06.95,7.68-6.17,22.89,5.35,24.24.53.06.52-.69.12-.85-3.17-1.31-5.26-2.57-5.41-6.37-.07-1.81.2-3.71.38-5.5.4-4.04,1.2-7.67.13-11.56,0,0,.02,0,.03-.01,3.64-2.73,5.34-8.85,6.19-13.05Z"/>
                <path class="cls-18" d="m115.66,216.63c0,1.93-1.56,3.49-3.49,3.49s-3.49-1.56-3.49-3.49,1.56-3.49,3.49-3.49,3.49,1.57,3.49,3.49Z"/>
                <path class="cls-28" d="m114.04,216.63c0,1.03-.84,1.87-1.87,1.87s-1.87-.84-1.87-1.87.84-1.87,1.87-1.87,1.87.84,1.87,1.87Z"/>
              </g>
              <path class="cls-27" d="m97.75,153.81l4.59,3.22s4.27-3.37,4.64-3.22c.37.14,2.09,1.64,2.15,2.21.06.57.79,12.23-.62,12.68-1.41.45-5.07-6.57-5.95-8.54,0,0-5.19,9.67-6.37,8.89s-.91-12.4-.59-12.99c.33-.59,1.58-2.33,2.15-2.24Z"/>
            </g>
            <g>
              <path class="cls-27" d="m122.45,189.65c7.38,13.06,12.77,34,2.23,46.94-.62.75-2.02.34-2.2-.58-.62-3.08-.13-4.87.76-7.98,1.52-5.27-.04-8.64-1.02-14.03-1.45-8-8.33-32.12-2.26-44.92.2-.42,2.27,20.16,2.5,20.57h0Z"/>
              <path class="cls-26" d="m116.49,238.18s3.05-.69,6.06-1.55c.94,2.65,2.21,5.2,3.74,7.55-1.66,1.71-3.33,3.18-4.93,4.43,0,0-5.35-3.38-4.87-10.43Z"/>
              <path class="cls-27" d="m116.62,236.98c.42,5.33,2.52,9.93,6.81,13.26.58.45-.24,1.27-.81.81-4.6-3.61-6.54-8.31-6.34-14.07,0-.22.34,0,.34,0Z"/>
              <path class="cls-10" d="m124.49,205.91c-7.75-21.19-5.48-34.92-3.06-43.23,0,0,20.09,19.67,18.87,44.86-.91,18.79-7.36,29.78-14.02,36.64-1.53-2.35-3.17-5.51-4.11-8.16,1.86-3.21,7.14-19.24,2.32-30.11Z"/>
            </g>
            <g>
              <path class="cls-26" d="m65.37,215.52s9.44-.47,10.81.59c1.38,1.06-.54,2.02-2.45,2.42-1.91.4-2.69.78-2.14,1.12.55.34,7.1,2.73,7.31,4,.21,1.28-2.05,1.29-5.12.11-.88-.34-.97.13.49,1.39,1.46,1.25,2.95,2.53,3.36,3.45.4.92-.96,1.93-2.69.51-1.74-1.42-3.72-3.7-3.97-3.62-.25.08,1.45,2.86,2.44,4.08.99,1.22-.38,2.9-2.05,1.04-1.68-1.87-9.68-11.13-9.68-11.13l3.68-3.96Z"/>
              <path class="cls-10" d="m67.41,214.63l-6.49,6.75s-17.26-18.82-16.49-26.77c.77-7.95,23.48-27.47,40.4-33.52,0,0-2.69,26.76-5.92,28.3-3.23,1.54-14.92,5.37-16.71,7.56-1.79,2.19,3.65,12.64,5.21,17.68Z"/>
              <path class="cls-27" d="m69.19,184.86c-3.23,1.85-8.3,4.15-9.92,7.61-1.61,3.92,2.08,9.68,3.46,13.14,1.31,3.34,2.49,6.72,3.66,10.08l1.03-1.07c-1.56-5.04-7-15.49-5.21-17.68,1.79-2.19,13.48-6.02,16.71-7.56,2.2-1.05,4.15-13.79,5.17-21.82-3,7.13-8.33,13.32-14.89,17.29Z"/>
            </g>
          </g>
        </g>
        <g>
          <g>
            <path class="cls-34" d="m566.61,145.12c-.22.33-4.54,7.85.88,16.81,0,0-4.31,4.76-3.7,11.17.61,6.42,7.13,12.39,14.54,13.27,7.41.88,23.8,3.21,29.21-3.87,5.41-7.08,6.42-20.02,4.81-25.99-1.61-5.97-45.75-11.39-45.75-11.39Z"/>
            <g>
              <path class="cls-26" d="m595.29,174.96l-.56-6.63c0-2.34-1.89-4.23-4.23-4.23s-4.23,1.89-4.23,4.23l.56,6.98c0,.06.01.11.02.17-5.08.44-9.27.97-9.27.97-1.22,13.11.99,20.41,19.08,15.66,4.19-1.1,4.43-17.04,4.43-17.04-1.59-.15-3.61-.17-5.79-.11Z"/>
              <path class="cls-23" d="m589.63,188.07c-2.91,1.7-6.3,2.5-9.81,2.84,2.64,2.93,7.72,3.6,16.84,1.2,4.19-1.1,4.43-17.04,4.43-17.04-1.19-.11-2.62-.15-4.18-.14-1.25,5-2.5,10.46-7.27,13.14Z"/>
              <path class="cls-23" d="m590.5,164.1c-2.34,0-4.23,1.89-4.23,4.23l.37,4.62c2.86-.31,5.69-1.17,8.31-2.01l-.22-2.62c0-2.34-1.89-4.23-4.23-4.23Z"/>
            </g>
          </g>
          <g>
            <g>
              <path class="cls-26" d="m560.72,350.08l-3.28,6.06s-14.61.52-16.83,6.21c0,0,23.13,3.88,32.85-.5l-1.86-11.29-10.89-.48Z"/>
              <g>
                <path class="cls-10" d="m576.46,359.4c.99-.19,1.79,3.51-2.93,4.43-2.15.42-31.23.05-36.61-.29-2.9-.18-3.29-3.22.16-3.37,4.01-.17,27.26,1.53,39.38-.77Z"/>
                <path class="cls-10" d="m554.82,361.7s-1.05-6.25-4.09-8.65c0,0-13.46.82-15.1,7.27,0,0,2.56,1.57,19.19,1.39Z"/>
                <path class="cls-16" d="m550.66,352.04s.02,0,.03,0h0c1.04.19,2.23,1.84,2.8,2.65,1.33,1.88,2.07,3.97,2.18,6.31.09,1.74-3.24-4.16-4.3-5.97-.44-.75-1-3.09-.71-3Z"/>
                <g>
                  <path class="cls-16" d="m549.88,359.98c0,.39.3.71.67.71s.67-.32.67-.71-.29-.71-.67-.71-.67.32-.67.71Z"/>
                  <path class="cls-16" d="m546.48,359.98c0,.39.3.71.67.71s.67-.32.67-.71-.3-.71-.67-.71-.67.32-.67.71Z"/>
                  <path class="cls-16" d="m543.08,359.98c0,.39.3.71.67.71s.67-.32.67-.71-.3-.71-.67-.71-.67.32-.67.71Z"/>
                  <path class="cls-16" d="m548.17,357.39c0,.39.3.71.67.71s.67-.31.67-.71-.3-.71-.67-.71-.67.32-.67.71Z"/>
                  <path class="cls-16" d="m546.57,355.43c0,.39.3.71.67.71s.67-.32.67-.71-.3-.71-.67-.71-.67.32-.67.71Z"/>
                  <path class="cls-16" d="m544.77,357.39c0,.39.3.71.66.71s.67-.31.67-.71-.3-.71-.67-.71-.66.32-.66.71Z"/>
                  <path class="cls-16" d="m541.37,357.39c0,.39.3.71.67.71s.67-.31.67-.71-.3-.71-.67-.71-.67.32-.67.71Z"/>
                  <path class="cls-16" d="m543.04,355.43c0,.39.29.71.67.71s.66-.32.66-.71-.3-.71-.66-.71-.67.32-.67.71Z"/>
                  <path class="cls-16" d="m539.68,359.98c0,.39.3.71.66.71s.67-.32.67-.71-.3-.71-.67-.71-.66.32-.66.71Z"/>
                </g>
                <path class="cls-10" d="m559.65,361.7c.05.78-4.67.81-4.83,0-.17-.81-2-7.18-4.09-8.65-2.1-1.48,2.53-2.54,4.09-1.56,1.56.98,4.57,6.25,4.83,10.21Z"/>
                <path class="cls-6" d="m535.82,360.4c-.14-.05-.2-.09-.2-.09.04-.15.11-.29.17-.43,1.88.1,3.76.2,5.65.23,2.86.05,5.76-.02,8.58-.6,1.24-.26,2.52-.6,3.56-1.43.9-.72,1.67-1.77,1.82-2.99.2-1.45-.51-2.75-1.35-3.89.29.06.56.16.76.28,1.42.9,4.04,5.34,4.69,9.12,6.14-.04,12.35-.34,16.95-1.21.99-.19,1.79,3.51-2.93,4.43-2.15.42-31.23.05-36.61-.29-2.48-.15-3.12-2.39-1.1-3.14Z"/>
              </g>
            </g>
            <g>
              <path class="cls-26" d="m618.14,350.08l2.01,7.58s15.88-1,18.1,4.69c0,0-23.12,3.88-32.85-.5l1.86-11.29,10.89-.48Z"/>
              <g>
                <path class="cls-10" d="m601,361.38c-.99-.19-1.78,3.51,2.92,4.43,2.13.42,31.05.05,36.4-.29,2.89-.18,3.28-3.22-.15-3.37-3.99-.17-27.1,1.53-39.16-.77Z"/>
                <path class="cls-10" d="m622.52,363.68s1.04-6.25,4.07-8.65c0,0,13.38.82,15.02,7.27,0,0-2.55,1.57-19.09,1.39Z"/>
                <path class="cls-16" d="m626.66,354.03s-.03,0-.03,0h0c-1.03.19-2.22,1.84-2.78,2.65-1.33,1.88-2.05,3.97-2.17,6.31-.09,1.74,3.22-4.16,4.28-5.97.43-.75,1-3.09.71-3Z"/>
                <g>
                  <path class="cls-16" d="m627.43,361.97c0,.39-.3.71-.66.71s-.66-.32-.66-.71.3-.71.66-.71.66.32.66.71Z"/>
                  <path class="cls-16" d="m630.81,361.97c0,.39-.29.71-.66.71s-.66-.32-.66-.71.3-.71.66-.71.66.32.66.71Z"/>
                  <path class="cls-16" d="m634.19,361.97c0,.39-.3.71-.66.71s-.66-.32-.66-.71.29-.71.66-.71.66.32.66.71Z"/>
                  <path class="cls-16" d="m629.13,359.38c0,.39-.3.71-.67.71s-.66-.31-.66-.71.3-.71.66-.71.67.32.67.71Z"/>
                  <path class="cls-16" d="m630.72,357.42c0,.39-.3.71-.66.71s-.67-.32-.67-.71.3-.71.67-.71.66.32.66.71Z"/>
                  <path class="cls-16" d="m632.51,359.38c0,.39-.29.71-.66.71s-.67-.31-.67-.71.3-.71.67-.71.66.32.66.71Z"/>
                  <path class="cls-16" d="m635.89,359.38c0,.39-.3.71-.67.71s-.66-.31-.66-.71.3-.71.66-.71.67.32.67.71Z"/>
                  <path class="cls-16" d="m634.23,357.42c0,.39-.29.71-.66.71s-.66-.32-.66-.71.3-.71.66-.71.66.32.66.71Z"/>
                  <path class="cls-16" d="m637.57,361.97c0,.39-.3.71-.67.71s-.66-.32-.66-.71.3-.71.66-.71.67.32.67.71Z"/>
                </g>
                <path class="cls-10" d="m617.72,363.68c-.05.78,4.64.81,4.81,0,.16-.81,1.99-7.18,4.07-8.65,2.08-1.48-2.51-2.54-4.07-1.56-1.55.98-4.55,6.25-4.81,10.21Z"/>
                <path class="cls-6" d="m641.41,362.38c.14-.05.2-.09.2-.09-.04-.15-.12-.29-.17-.43-1.87.1-3.74.2-5.62.23-2.84.05-5.73-.02-8.53-.6-1.23-.26-2.51-.6-3.54-1.43-.89-.72-1.66-1.77-1.81-2.99-.2-1.45.51-2.75,1.34-3.89-.29.06-.55.16-.76.29-1.41.9-4.02,5.34-4.67,9.12-6.11-.04-12.28-.34-16.86-1.21-.99-.19-1.78,3.51,2.92,4.43,2.13.42,31.05.05,36.4-.29,2.47-.15,3.11-2.39,1.1-3.14Z"/>
              </g>
            </g>
            <g>
              <path class="cls-26" d="m571.07,226.61s-7.8,41.69-9.65,65.96c-1.85,24.27,0,61.15,0,61.15h8.71s2.04-82.09,13.9-111.18l-12.95-15.94Z"/>
              <path class="cls-26" d="m587.17,247.39s17.42,59.83,20.2,106.34h8.6s-1.12-88.57-7.55-120.81l-21.25,14.48Z"/>
              <path class="cls-27" d="m570.83,222.6s-17.19,70.9-13.1,127.55l15.07.27s4.71-70.43,13.47-96.61c0,0,15.39,62.43,16.92,97.16,0,0,11.94,1.33,16.59-.82,0,0,.02-95.86-15.07-128.97l-33.88,1.42Z"/>
              <path class="cls-10" d="m566.59,242.75c-4.79,25.15-11.6,69.46-8.85,107.4l2.39.04c.14-14.68,2.11-29.35,3.78-43.7,2.1-20.45,6.55-42.98,2.68-63.74Z"/>
              <path class="cls-35" d="m591.23,238.01c4-.4,11.6-1.96,17.69-4.75-1.25-4.58-2.65-8.67-4.2-12.08l-33.88,1.42s-.97,3.98-2.38,10.8c6.24,4.31,16.3,5.41,22.78,4.6Z"/>
            </g>
          </g>
          <g>
            <g>
              <g>
                <path class="cls-26" d="m576.64,177.2c-6.24.98-6.79,16.78-11.76,31.32-4.97,14.54-14.92,28.21-19.86,30.21-4.94,2-10.72,2.6-10.62,3.66.09,1.06,6.03.32,6.03.32,0,0-5.98,1.49-6.2,2.84-.22,1.35,5.16-.33,6.54-.71,1.38-.38-4.38,2.79-3.55,4.19.83,1.4,5.74-2.71,8.04-3.34,2.3-.64.45,2.96,1.14,4.1.7,1.14,3.43-3.96,2.42-8.44,0,0,13.47-6.38,20.2-16.9,6.48-10.14,10.52-23.43,11.2-30.43.68-7.01,2.24-17.73-3.57-16.82Z"/>
                <path class="cls-23" d="m576.64,177.2c-5.67.89-6.64,14.03-10.51,27.34,1.36,5.3-.56,11.32-2.05,17.04-1.06,4.11-2.3,8.18-3.66,12.22,3.11-2.56,6.25-5.7,8.58-9.35,6.48-10.14,10.52-23.43,11.2-30.43.68-7.01,2.24-17.73-3.57-16.82Z"/>
              </g>
              <path class="cls-27" d="m577.3,175.56s-3.88-.73-7.02,7.53c-3.14,8.26-3.54,11.07-3.54,11.07,0,0,6.85,7.11,13.46,6.77,0,0-3.7-16.27-2.89-25.37Z"/>
            </g>
            <g>
              <path class="cls-10" d="m578.58,175.22c-1.57.12-3.69.81-5.28,3.45l-5.19,51.42s5.31,3.91,13.54,3.72c8.23-.19,27.39-6.25,27.39-6.25,0,0-2.7-13.7-2.86-21.55-.15-7.85-1.68-29.25-2.68-30.96l-7.13-.72s-.86,8.58-8.42,8.4c-7.55-.18-4.27-7.18-4.27-7.18,0,0-3.84-.43-5.11-.33Z"/>
              <path class="cls-27" d="m609.05,227.55s-2.7-13.7-2.86-21.55c-.15-7.85-1.68-29.25-2.68-30.96l-5.65-.57c-2.39,11.21-5.57,22.16-9.77,32.86-3.35,8.52-8.83,17.85-14.09,25.44,2.25,1.02,5.13,1.08,7.65,1.02,8.23-.19,27.39-6.25,27.39-6.25Z"/>
              <g>
                <g>
                  <path class="cls-19" d="m600.35,202.07c-.08.5-.55.84-1.06.76l-12.77-2.09c-.5-.08-.84-.55-.76-1.06l1.16-7.09c.08-.5.55-.84,1.06-.76l12.77,2.09c.5.08.84.55.76,1.06l-1.16,7.09Z"/>
                  <path class="cls-2" d="m600.76,193.92l-1.91-.31c-1.12.73-2.23,1.44-3.37,2.09-3.16,1.67-6.39,2.91-9.69,3.89l-.02.1c-.08.5.26.97.76,1.06l12.77,2.09c.5.08.97-.26,1.06-.76l1.16-7.09c.08-.5-.26-.97-.76-1.06Z"/>
                  <path class="cls-10" d="m596,197.36l-1.15-.19.19-1.15c.06-.33-.17-.65-.5-.7l-.82-.13c-.33-.06-.65.17-.71.5l-.19,1.15-1.15-.19c-.33-.05-.65.17-.7.51l-.13.82c-.05.33.17.65.5.7l1.15.19-.19,1.15c-.05.33.17.65.51.7l.82.13c.33.05.65-.17.71-.51l.19-1.15,1.15.19c.33.05.65-.17.7-.51l.14-.82c.05-.33-.17-.65-.51-.7Z"/>
                </g>
                <path class="cls-18" d="m595.39,193.26c-.08.5-.55.84-1.05.76l-.3-.05c-.5-.08-.84-.55-.76-1.06l.3-1.81c.08-.5.55-.84,1.05-.76l.29.05c.5.08.84.55.76,1.05l-.3,1.81Z"/>
              </g>
            </g>
            <g>
              <path class="cls-26" d="m612.79,245.89c-.12,1.93-.05,12.5-1.24,12.67-1.2.18-1.94-6.56-1.94-6.56,0,0-.07,6.99-1.5,7.58-1.43.6-.99-5.77-.94-7.39.05-1.62-1.92,5.56-3.69,5.01-1.77-.55,1.48-7.04,1.58-9.74.1-2.7-3.38.29-4.82-.18-1.44-.47,3.46-4.83,8.67-4.89,0,0,2.18-15.33,3.48-25.82,1.59-12.79-11.31-24.9-9.57-39.47.72-6,14.04,5.65,17.63,29.6,2.25,15-7.21,33.4-7.66,39.18Z"/>
              <g>
                <path class="cls-27" d="m603.52,175.05s3.68-1.43,8.29,6.1c4.61,7.54,5.53,10.22,5.53,10.22,0,0-5.42,8.25-11.97,9.15,0,0-9.46-18.09-1.85-25.47Z"/>
                <path class="cls-10" d="m604.7,174.97c-.75-.08-1.19.08-1.19.08-7.6,7.38,1.85,25.47,1.85,25.47.91-.12,1.8-.4,2.65-.77-1.51-3.79-2.68-7.69-3.24-11.74-.44-3.32-1.02-8.71-.08-13.05Z"/>
              </g>
            </g>
          </g>
          <g>
            <g>
              <g>
                <path class="cls-26" d="m607.41,148.27c0,12.43-9.34,22.5-20.86,22.5s-20.86-10.07-20.86-22.5,9.34-22.5,20.86-22.5,20.86,10.07,20.86,22.5Z"/>
                <path class="cls-23" d="m607.41,148.27c0-12.43-9.34-22.5-20.86-22.5-6.28,0-11.9,3.01-15.73,7.75,2.37,2.75,5,5.13,8.32,6.69,4.18,1.9,8.62,2.16,13.06,3.04,3.17.76,5.58,2.03,5.83,5.7.25,4.56-1.39,9.25-1.77,13.82-.11,1.81-.08,3.6.03,5.38,6.61-3.77,11.12-11.26,11.12-19.89Z"/>
              </g>
              <g>
                <path class="cls-34" d="m574.1,153.29c0,1.09-.7,1.97-1.55,1.97s-1.55-.88-1.55-1.97.7-1.97,1.55-1.97,1.55.88,1.55,1.97Z"/>
                <path class="cls-34" d="m587.83,153.29c0,1.09-.7,1.97-1.55,1.97s-1.55-.88-1.55-1.97.7-1.97,1.55-1.97,1.55.88,1.55,1.97Z"/>
                <path class="cls-22" d="m577.86,151.92c-.63.03-.78,3.81-2.08,5.02-1.3,1.21-2.94,1.99-2.6,3.63.35,1.65,3.83,2.53,5.8,0,1.82-2.33.61-8.74-1.12-8.65Z"/>
                <path class="cls-34" d="m584.58,145c-.35.17-.1.73.26.62,1.1-.33,2.18.38,3.12.87.47.24,1.03-.39.59-.76-1.08-.93-2.64-1.4-3.98-.73Z"/>
                <path class="cls-34" d="m573.17,144.58c-.7-.23-1.38-.16-2.07.08-.7.24-1.12.82-1.55,1.39-.29.39.28.94.67.67.39-.28.82-.49,1.21-.77.53-.39.97-.7,1.66-.69.39,0,.45-.55.09-.67Z"/>
                <path class="cls-13" d="m576.55,165.42c1.67.88,3.31,1.14,5.02.2,1.54-.85,2.35-2.68,2.38-4.37,0-.4-.6-.49-.7-.09-.36,1.46-.82,2.82-2.13,3.68-1.25.82-3.09.7-4.46.35-.14-.04-.23.17-.1.24h0Z"/>
              </g>
            </g>
            <path class="cls-24" d="m575.57,133.62s-8.06,10.74-9.67,17.7c0,0-2.49-.93-2.05-6.88.44-5.95,4.64-12.15,8.41-14.58l3.32,3.76Z"/>
            <g>
              <path class="cls-34" d="m569.79,130.73c-.33.52,7.79,11.45,31.15,13.47,0,0-4.32,24.29,3.74,26.57,0,0-9.3,2.73-7.35,11.58,2.4,10.93,9.63,13.21,19.13,10.12,9.5-3.1,12.59-23.54.62-27.82,0,0,4.33-24.74-7.85-24.74,1.19-13.36-26.8-29.06-39.44-9.17Z"/>
              <path class="cls-24" d="m615.74,170.68c-1.48-2.96-6.29-2.22-7.76-5.18-1.11-2.96,2.59-7.02,2.22-10.35-.74-4.07-3.7-5.18-5.54-8.13-1.85-3.33-1.11-7.76-3.7-11.09-2.59-3.33-5.92-2.96-9.98-2.96-6.75-.44-11.82-3.71-15.09-8.59-2.25,1.49-4.32,3.56-6.09,6.34-.33.52,7.79,11.45,31.15,13.47,0,0-4.32,24.29,3.74,26.57,0,0-9.3,2.73-7.35,11.58,1.21,5.51,3.65,8.81,6.98,10.35.47-4.35,4.82-7.64,7.37-10.92,2.22-2.59,6.29-7.39,4.07-11.09Z"/>
            </g>
            <g>
              <path class="cls-30" d="m608.73,135.78s-20.58,4.33-41.81-.76c0,0,2.16-10.93,4.23-15.26,2.26-4.72,30.22-4.79,33.3,0,3.07,4.79,4.28,16.02,4.28,16.02Z"/>
              <path class="cls-29" d="m571.24,119.63c.96.53,1.98.98,3.05,1.35,4.35,1.54,9,1.43,13.53,1.92,2.79.33,5.52.66,8.24,1.32.58.11,3.02.5,1.92,1.15-.52.33-1.68.27-2.32.33-1.16.11-2.32.22-3.48.33-2.44.27-4.82.66-7.2,1.15,1.51.16,3.08.38,4.59.77,1.22.33,3.48.6,4.41,1.48.87.83-.52.94-1.22,1.1-1.45.27-3.25.39-4.53,1.15-2.55,1.48,4.88,2.91,5.69,3.13,1.83.52,3.38,1.15,4.26,2.31-7.97.62-19.51.69-31.25-2.13,0,0,2.16-10.93,4.23-15.26.02-.05.06-.09.08-.13Z"/>
            </g>
          </g>
          <g>
            <path class="cls-23" d="m612.36,157.04c0,3.15-2.56,5.71-5.71,5.71s-5.71-2.56-5.71-5.71,2.56-5.71,5.71-5.71,5.71,2.56,5.71,5.71Z"/>
            <path class="cls-13" d="m610.23,154.72c-1.55-.14-3.23.26-4.37,1.37-.66.64-1.76,3.2-.81,3.95,0,.01,0,.02,0,.03.03.08.11.11.18.09.08.01.15,0,.22-.05.44-.34.29-.9.4-1.4,0-.01,0-.02.01-.04.26-.25.59-.44,1.01-.48.75-.07,1.64.31,1.41,1.19-.13.49.6.69.75.21.51-1.63-1.15-2.41-2.53-2.21.09-.12.19-.23.29-.34,1-1.06,1.98-1.73,3.47-1.94.23-.03.15-.36-.05-.38Z"/>
          </g>
        </g>
        <g>
          <g>
            <path class="cls-26" d="m191.38,355.13l-2.56,4.74s-11.42.4-13.15,4.85c0,0,18.07,3.03,25.67-.39l-2.46-10.31-7.5,1.11Z"/>
            <g>
              <path class="cls-10" d="m203.68,362.41c.78-.15,1.4,2.74-2.29,3.46-1.68.33-24.4.04-28.61-.23-2.27-.14-2.57-2.52.12-2.63,3.14-.13,21.3,1.2,30.78-.6Z"/>
              <path class="cls-10" d="m186.76,364.21s-.82-4.89-3.2-6.76c0,0-10.52.64-11.8,5.68,0,0,2,1.23,15,1.08Z"/>
              <path class="cls-16" d="m183.51,356.67s.02,0,.02,0h0c.81.15,1.74,1.44,2.19,2.07,1.04,1.47,1.61,3.1,1.71,4.93.07,1.36-2.53-3.25-3.36-4.66-.34-.58-.78-2.41-.56-2.34Z"/>
              <g>
                <path class="cls-16" d="m182.9,362.87c0,.31.24.55.52.55s.52-.25.52-.55-.23-.55-.52-.55-.52.25-.52.55Z"/>
                <path class="cls-16" d="m180.25,362.87c0,.31.23.55.52.55s.52-.25.52-.55-.23-.55-.52-.55-.52.25-.52.55Z"/>
                <path class="cls-16" d="m177.59,362.87c0,.31.23.55.52.55s.52-.25.52-.55-.23-.55-.52-.55-.52.25-.52.55Z"/>
                <path class="cls-16" d="m181.57,360.85c0,.31.23.55.52.55s.52-.25.52-.55-.23-.55-.52-.55-.52.25-.52.55Z"/>
                <path class="cls-16" d="m180.32,359.31c0,.3.23.55.52.55s.52-.25.52-.55-.23-.55-.52-.55-.52.25-.52.55Z"/>
                <path class="cls-16" d="m178.91,360.85c0,.31.23.55.52.55s.52-.25.52-.55-.23-.55-.52-.55-.52.25-.52.55Z"/>
                <path class="cls-16" d="m176.25,360.85c0,.31.23.55.52.55s.52-.25.52-.55-.23-.55-.52-.55-.52.25-.52.55Z"/>
                <path class="cls-16" d="m177.56,359.31c0,.3.23.55.52.55s.52-.25.52-.55-.23-.55-.52-.55-.52.25-.52.55Z"/>
                <path class="cls-16" d="m174.94,362.87c0,.31.23.55.52.55s.52-.25.52-.55-.23-.55-.52-.55-.52.25-.52.55Z"/>
              </g>
              <path class="cls-10" d="m190.54,364.21c.04.61-3.65.63-3.78,0-.13-.64-1.56-5.61-3.2-6.76-1.64-1.16,1.98-1.98,3.2-1.22,1.22.77,3.57,4.89,3.78,7.98Z"/>
              <path class="cls-6" d="m171.92,363.2c-.11-.04-.16-.07-.16-.07.03-.12.09-.22.13-.33,1.47.07,2.94.15,4.42.18,2.23.04,4.5-.02,6.7-.47.97-.21,1.97-.47,2.78-1.12.7-.56,1.3-1.38,1.42-2.33.16-1.14-.4-2.15-1.05-3.04.23.05.43.12.6.22,1.11.7,3.16,4.17,3.67,7.13,4.8-.03,9.65-.26,13.25-.95.78-.15,1.4,2.74-2.29,3.46-1.68.33-24.4.04-28.61-.23-1.94-.12-2.44-1.87-.86-2.45Z"/>
            </g>
          </g>
          <g>
            <path class="cls-26" d="m219.16,353.14l1.57,5.92s12.41-.78,14.14,3.67c0,0-18.07,3.03-25.67-.39l1.45-8.82,8.51-.38Z"/>
            <g>
              <path class="cls-10" d="m205.77,361.97c-.77-.15-1.39,2.74,2.28,3.46,1.67.33,24.27.04,28.44-.23,2.25-.14,2.56-2.52-.12-2.63-3.12-.13-21.18,1.2-30.6-.6Z"/>
              <path class="cls-10" d="m222.59,363.77s.81-4.89,3.18-6.76c0,0,10.45.64,11.74,5.68,0,0-1.99,1.23-14.92,1.08Z"/>
              <path class="cls-16" d="m225.82,356.23s-.02,0-.03,0h0c-.81.15-1.73,1.44-2.17,2.07-1.04,1.47-1.6,3.1-1.7,4.93-.07,1.36,2.52-3.25,3.35-4.66.34-.58.78-2.41.55-2.34Z"/>
              <g>
                <path class="cls-16" d="m226.42,362.43c0,.31-.23.55-.52.55s-.52-.25-.52-.55.23-.55.52-.55.52.25.52.55Z"/>
                <path class="cls-16" d="m229.06,362.43c0,.31-.23.55-.52.55s-.52-.25-.52-.55.23-.55.52-.55.52.25.52.55Z"/>
                <path class="cls-16" d="m231.71,362.43c0,.31-.23.55-.52.55s-.52-.25-.52-.55.23-.55.52-.55.52.25.52.55Z"/>
                <path class="cls-16" d="m227.75,360.41c0,.31-.23.55-.52.55s-.52-.25-.52-.55.23-.55.52-.55.52.25.52.55Z"/>
                <path class="cls-16" d="m229,358.88c0,.31-.23.55-.52.55s-.52-.25-.52-.55.23-.55.52-.55.52.25.52.55Z"/>
                <path class="cls-16" d="m230.39,360.41c0,.31-.23.55-.52.55s-.52-.25-.52-.55.23-.55.52-.55.52.25.52.55Z"/>
                <ellipse class="cls-16" cx="232.52" cy="360.41" rx=".52" ry=".55"/>
                <path class="cls-16" d="m231.74,358.88c0,.31-.23.55-.52.55s-.52-.25-.52-.55.23-.55.52-.55.52.25.52.55Z"/>
                <path class="cls-16" d="m234.35,362.43c0,.31-.23.55-.52.55s-.52-.25-.52-.55.23-.55.52-.55.52.25.52.55Z"/>
              </g>
              <path class="cls-10" d="m218.83,363.77c-.04.61,3.63.64,3.76,0,.13-.63,1.55-5.61,3.18-6.76,1.63-1.16-1.96-1.98-3.18-1.21-1.21.77-3.55,4.88-3.76,7.98Z"/>
              <path class="cls-6" d="m237.35,362.76c.11-.04.16-.07.16-.07-.03-.12-.09-.22-.13-.33-1.46.07-2.92.15-4.39.18-2.22.04-4.48-.02-6.67-.47-.96-.2-1.96-.47-2.76-1.12-.7-.56-1.29-1.38-1.42-2.34-.16-1.13.4-2.15,1.05-3.04-.23.05-.43.12-.59.22-1.1.7-3.14,4.17-3.65,7.13-4.78-.03-9.6-.26-13.17-.95-.77-.15-1.39,2.74,2.28,3.46,1.67.33,24.27.04,28.44-.23,1.93-.12,2.42-1.87.86-2.45Z"/>
            </g>
          </g>
          <g>
            <path class="cls-19" d="m226.37,234.89h-39.92s-10.8,48.59,4.69,120.68h9.66s-1.81-38.72-.64-61.39c1.32-25.83,3.97-37.93,3.97-37.93h4.56s3.44,17.9,3.97,37.93c.6,22.69-3.45,60.37-3.45,60.37l10.75-.83c15.93-74.01,6.41-118.83,6.41-118.83Z"/>
            <path class="cls-11" d="m216.88,250.12c4.84,8.76,11.43,34,12,36.16,1.81-32.15-2.51-51.38-2.51-51.38h-39.92s-.74,4.59-1.27,13.12c11.5-5.12,25.41-9.46,31.7,2.1Z"/>
            <path class="cls-4" d="m207.19,242.05c6.63-.44,13.26-1.53,19.69-3.05-.29-2.7-.52-4.1-.52-4.1h-39.92s-.4,2.49-.82,7.19c7.26.46,14.5.55,21.57-.04Z"/>
          </g>
          <g>
            <g>
              <path class="cls-34" d="m228.94,145.34s.96,26.74-.64,30.77c-1.59,4.03-36.71,4.77-41.48,2.22-4.77-2.55-4.46-17.42-4.43-22.19l46.55-10.8Z"/>
              <path class="cls-24" d="m195.57,177.02c7.9.4,18.56,1.97,25.41-2.76,5-3.55,5.79-9.88,5.27-15.54-.31-4.14-1.15-8.21-2.26-12.23l4.95-1.15s.96,26.74-.64,30.77c-1.59,4.03-36.71,4.77-41.48,2.22-.76-.41-1.38-1.12-1.91-2.05,3.56.25,7.13.49,10.65.74Z"/>
            </g>
            <g>
              <path class="cls-26" d="m205.6,170.54h.92c2.14,0,3.88,1.74,3.88,3.88v10.23c0,2.14-1.74,3.88-3.88,3.88h-.92c-2.14,0-3.88-1.74-3.88-3.88v-10.23c0-2.14,1.74-3.88,3.88-3.88Z"/>
              <path class="cls-23" d="m201.72,178.64v-4.22c0-2.14,1.74-3.88,3.88-3.88h.92c2.14,0,3.88,1.74,3.88,3.88v4.92c-2.87.09-5.81-.18-8.68-.7Z"/>
            </g>
            <g>
              <g>
                <path class="cls-26" d="m220.61,162.01c0,3.24,2.63,5.86,5.87,5.86s5.87-2.63,5.87-5.86-2.63-5.87-5.87-5.87-5.87,2.63-5.87,5.87Z"/>
                <path class="cls-13" d="m230.15,159.86c-1.53-.48-3.29-.44-4.68.43-.8.5-2.46,2.84-1.66,3.8,0,0,0,.02,0,.03.01.09.09.13.16.13.07.03.15.03.23,0,.51-.24.49-.84.7-1.32,0-.01.01-.02.02-.03.31-.2.68-.31,1.12-.26.77.09,1.58.66,1.16,1.5-.23.46.46.82.71.37.86-1.53-.64-2.67-2.07-2.76.12-.1.24-.19.37-.28,1.24-.84,2.36-1.31,3.9-1.2.24.02.23-.33.03-.4Z"/>
              </g>
              <g>
                <path class="cls-26" d="m184.6,153.01c0,12.76,9.59,23.11,21.42,23.11s21.42-10.35,21.42-23.11-9.59-23.11-21.42-23.11-21.42,10.35-21.42,23.11Z"/>
                <path class="cls-23" d="m184.6,153.01c0-12.76,9.59-23.11,21.42-23.11,10.61,0,19.41,8.33,21.12,19.25-5.61,2.1-11.74,2.18-17.77,2.35-4.43.14-8.8.14-13.09-1.04-.28,3.74-1.18,7.41-1.38,11.08-.3,4.23.25,8.41,1.75,12.23-7.13-3.75-12.04-11.64-12.04-20.77Z"/>
              </g>
            </g>
            <g>
              <path class="cls-34" d="m217.66,158.77c0,1.09.69,1.96,1.55,1.96s1.55-.88,1.55-1.96-.69-1.96-1.55-1.96-1.55.88-1.55,1.96Z"/>
              <path class="cls-34" d="m200.85,158.77c0,1.09.7,1.96,1.55,1.96s1.55-.88,1.55-1.96-.69-1.96-1.55-1.96-1.55.88-1.55,1.96Z"/>
              <path class="cls-22" d="m210.81,155.83c.65.03.8,3.91,2.13,5.16,1.33,1.25,3.02,2.04,2.67,3.73-.35,1.69-3.94,2.59-5.95,0-1.87-2.4-.62-8.98,1.15-8.89Z"/>
              <path class="cls-13" d="m213.17,170.24c-2.34,1.97-7.24.42-7.88-2.69-.06-.31.31-.56.54-.31.9.93,1.5,1.82,2.68,2.48,1.44.81,2.98.72,4.52.27.14-.04.26.15.15.25h0Z"/>
              <path class="cls-34" d="m202.89,150.43c.36.18.11.75-.27.64-1.13-.34-2.24.38-3.21.89-.48.25-1.06-.4-.61-.79,1.11-.95,2.71-1.44,4.08-.75Z"/>
              <path class="cls-34" d="m219.16,150.96c.72-.23,1.42-.17,2.13.08.72.25,1.15.84,1.6,1.43.3.4-.29.97-.69.69-.4-.29-.63-.61-1.03-.9-.55-.4-1.21-.61-1.92-.61-.4,0-.46-.57-.09-.69Z"/>
            </g>
            <g>
              <path class="cls-24" d="m229.68,146.82s-14.32,3.92-35.96-.11l-4.67,17.5-5.94-.88s-2.02-10.69.53-20.34c2.55-9.65,10.72-15.91,19.92-16.38,7.53-.38,22.19-1.76,26.12,20.2Z"/>
              <path class="cls-34" d="m215.19,135.81c2.24,6.19-6.06,5.66-9.87,5.27-4.21-.39-12.11-2.5-14.88,2.11-1.71,3.16.29,12.43-1.56,15.59-1.13,2.01-4.04-.19-6.5.79-.26-3.98-.13-11.3,1.26-16.56,2.55-9.65,10.72-15.91,19.92-16.38,1.02-.05,2.18-.12,3.42-.15,3.58,2.5,6.9,5.51,8.2,9.34Z"/>
            </g>
            <g>
              <path class="cls-16" d="m218.98,164.63c1.63-.05,3.19-2.1,4.21-3.14,1.57-1.61,2.99-3.36,4.59-4.93.43-.43-.25-1.1-.66-.66-1.32,1.4-2.5,2.95-3.76,4.41-.76.87-1.52,1.74-2.34,2.56-.56.55-1.25,1.49-2.03,1.71-.03,0-.02.06,0,.05h0Z"/>
              <path class="cls-16" d="m223.44,165.88c-2.39,3.55-4.58,6.95-8.2,9.39-.35.24-.02.81.33.57,3.8-2.53,6.17-5.77,7.96-9.91.03-.06-.05-.12-.1-.06h0Z"/>
              <path class="cls-16" d="m189.48,158.64c1.68,1.33,3.53,2.53,5.35,3.65s4.33,2.23,5.88,3.87c.49.52,1.27-.27.78-.78-1.47-1.51-3.67-2.51-5.47-3.56-2.08-1.21-4.31-2.15-6.36-3.4-.13-.08-.29.12-.17.22h0Z"/>
              <path class="cls-16" d="m188.89,167.2c1.01,2.31,3.43,3.92,5.52,5.18,1.94,1.17,4.56,2.52,6.87,1.68.79-.29.47-1.54-.35-1.27-2.09.69-4.92-.89-6.68-1.88s-3.81-2.28-5.14-3.88c-.11-.13-.27.04-.22.17h0Z"/>
              <path class="cls-10" d="m199.17,163.07s.42,6.11-.84,9.79c0,0,3.01,4.05,11.17,4.31,9.29.3,11.44-6.63,11.44-6.63,0,0-.51-4.18.44-7.91,0,0-9.82-2.58-22.21.44Z"/>
              <path class="cls-17" d="m216.49,174.67c-1.3,0-3.06.19-4.26-.42-1.43-.7.37-2.11.83-2.91.6-1.03.18-1.73-.79-2.2-.51-.19-1.81-.33-1.06-.8.56-.33,1.57-.33,2.18-.42.83-.14,1.67-.33,2.5-.56.28-.05,1.11-.23,1.02-.61-.09-.42-1.53-.47-1.8-.52-2.6-.42-5.24-.42-7.88-.7-.23-.04-1.39-.04-1.3-.37.05-.28,1.9-.42,2.13-.47,3.65-.65,7.9-.92,11.48-2.43-3.4-.58-11.17-1.43-20.36.82,0,0,.42,6.11-.84,9.79,0,0,3.01,4.05,11.17,4.31,5.07.16,6.77-1.52,8.81-2.84-1.17.04-.66.34-1.82.34Z"/>
            </g>
            <g>
              <path class="cls-23" d="m180.36,163.35c0,3.24,2.63,5.87,5.87,5.87s5.86-2.63,5.86-5.87-2.62-5.86-5.86-5.86-5.87,2.63-5.87,5.86Z"/>
              <path class="cls-13" d="m182.56,160.97c1.59-.14,3.31.26,4.49,1.4.68.66,1.81,3.29.83,4.06,0,.01,0,.02-.01.03-.03.08-.12.11-.19.1-.08.01-.16,0-.23-.05-.45-.35-.3-.93-.41-1.44,0-.01,0-.02-.01-.04-.27-.26-.61-.45-1.04-.49-.77-.07-1.68.31-1.45,1.22.13.5-.62.7-.77.21-.52-1.68,1.18-2.48,2.6-2.27-.09-.12-.19-.24-.3-.35-1.03-1.09-2.04-1.78-3.56-1.99-.24-.03-.15-.37.06-.39Z"/>
            </g>
          </g>
          <g>
            <g>
              <path class="cls-26" d="m255.6,213.1c4.29-2.11,7.65-5.07,10.87-7.56,1.78-1.38.46-2.7-.73-1.94-1.19.76-3.83,2.01-3.88,1.78-.05-.23,2.18-1.78,3.62-3.19,1.43-1.41.66-2.73-.2-2.45-.86.27-2.14,1.48-3.4,2.66-1.26,1.18-3.4,2.58-1.44.11,2.41-3.04.35-6.05-.7-5.57-1.79.82.71,3.22-3.02,7.32-.39.43-2.22.22-2.59-1.19-.52-1.97,1.47-4.69.13-5.12-5.72-1.86-1.83,11.47-1.83,11.47-.66.87-12.64,9.07-13.63,9.7-.98.63-6.6-10.63-8.82-17.38-2.22-6.75-6.83-16.8-10-18.56-3.17-1.76-3.73,15.1-1.08,24.24,2.65,9.15,13.92,21.59,16.24,22.61,2.31,1.01,13.14-7.33,20.48-16.94Z"/>
              <path class="cls-23" d="m219.96,183.2c.73.4,1.54,1.25,2.37,2.38.48,4.14,1.02,8.26,1.67,12.34.85,5.19,1.91,10.38,3.71,15.26,1.38,3.6,3.28,7.63,6.89,9.64,4.55,2.61,9.82.6,14.6-2.43-6.12,6.12-12.38,10.4-14.08,9.66-2.32-1.01-13.59-13.46-16.24-22.61-2.65-9.15-2.09-26,1.08-24.24Z"/>
              <g>
                <path class="cls-15" d="m260.45,190.2l-2.15-.25-.77-.09-2.03-.24c-.72-.08-1.37.43-1.45,1.15-.08.72.43,1.37,1.15,1.45l.34.04-1.71,14.78c-.11.93.56,1.78,1.49,1.88l.77.09c.93.11,1.77-.56,1.88-1.49l1.71-14.77.46.05c.72.08,1.37-.43,1.45-1.15.08-.72-.43-1.37-1.15-1.45Z"/>
                <path class="cls-9" d="m256.61,207.56c.56.07,1.06-.33,1.12-.89l1.61-13.95-2.01-.23-1.61,13.95c-.06.56.33,1.06.89,1.12Z"/>
                <g>
                  <path class="cls-10" d="m259.31,194.12c-.01.1-.1.16-.19.15l-2.5-.29c-.09-.01-.16-.1-.15-.19h0c.01-.1.1-.16.19-.15l2.5.29c.09.01.16.1.15.19h0Z"/>
                  <path class="cls-10" d="m258.88,197.81c0,.09-.1.16-.19.15l-2.5-.29c-.1-.01-.16-.1-.15-.19h0c.01-.09.1-.16.19-.15l2.5.29c.09.01.16.1.15.19h0Z"/>
                  <path class="cls-10" d="m258.46,201.5c-.01.09-.1.16-.19.15l-2.5-.29c-.09-.01-.16-.1-.15-.19h0c.01-.09.1-.16.19-.15l2.5.29c.09,0,.16.1.15.19h0Z"/>
                  <path class="cls-10" d="m258.03,205.2c-.01.09-.1.16-.19.15l-2.5-.29c-.1-.01-.16-.1-.15-.19h0c.01-.09.1-.16.19-.15l2.5.29c.09,0,.16.1.15.19h0Z"/>
                  <g>
                    <path class="cls-10" d="m258.97,194.77c0,.07-.07.12-.14.11l-1.01-.12c-.07,0-.12-.07-.11-.14h0c0-.07.07-.12.14-.11l1.01.12c.07,0,.12.07.11.14h0Z"/>
                    <path class="cls-10" d="m258.88,195.52c0,.07-.07.12-.14.11l-1.01-.12c-.07,0-.12-.07-.11-.14h0c0-.07.07-.12.14-.11l1.01.12c.07,0,.12.07.11.14h0Z"/>
                    <path class="cls-10" d="m258.79,196.27c0,.07-.07.12-.14.11l-1.01-.11c-.07,0-.12-.07-.11-.14h0c0-.07.07-.12.14-.11l1.01.12c.07,0,.12.07.11.14h0Z"/>
                    <path class="cls-10" d="m258.7,197.03c0,.07-.07.12-.14.11l-1.01-.12c-.07,0-.12-.07-.11-.14h0c0-.07.07-.12.14-.11l1.01.11c.07,0,.12.07.11.14h0Z"/>
                  </g>
                  <g>
                    <path class="cls-10" d="m258.53,198.5c0,.07-.07.12-.14.11l-1.01-.12c-.07,0-.12-.07-.11-.14h0c0-.07.07-.12.14-.11l1.01.12c.07,0,.12.07.11.14h0Z"/>
                    <path class="cls-10" d="m258.44,199.25c0,.07-.07.12-.14.11l-1.01-.12c-.07,0-.12-.07-.11-.14h0c0-.07.07-.12.14-.11l1.01.12c.07,0,.12.07.11.14h0Z"/>
                    <path class="cls-10" d="m258.36,200c0,.07-.07.12-.14.11l-1.01-.12c-.07,0-.12-.07-.11-.14h0c0-.07.07-.12.14-.11l1.01.12c.07,0,.12.07.11.14h0Z"/>
                    <path class="cls-10" d="m258.27,200.75c0,.07-.07.12-.14.11l-1.01-.12c-.07,0-.12-.07-.11-.14h0c0-.07.07-.12.14-.11l1,.12c.07,0,.12.07.11.14h0Z"/>
                  </g>
                  <g>
                    <path class="cls-10" d="m258.1,202.22c0,.07-.07.12-.14.11l-1.01-.12c-.07,0-.12-.07-.11-.14h0c0-.07.07-.12.14-.11l1.01.11c.07,0,.12.07.11.14h0Z"/>
                    <path class="cls-10" d="m258.01,202.98c0,.07-.07.12-.14.11l-1.01-.12c-.07,0-.12-.07-.11-.14h0c0-.07.07-.12.14-.11l1.01.12c.07,0,.12.07.11.14h0Z"/>
                    <path class="cls-10" d="m257.93,203.73c0,.07-.07.12-.14.11l-1.01-.11c-.07,0-.12-.07-.11-.14h0c0-.07.07-.12.14-.11l1.01.12c.07,0,.12.07.11.14h0Z"/>
                    <path class="cls-10" d="m257.84,204.48c0,.07-.07.12-.14.11l-1.01-.12c-.07,0-.12-.07-.11-.14h0c0-.07.07-.12.14-.11l1.01.12c.07,0,.12.07.11.14h0Z"/>
                  </g>
                  <g>
                    <path class="cls-10" d="m257.67,205.95c0,.07-.07.12-.14.11l-1.01-.11c-.07,0-.12-.07-.11-.14h0c0-.07.07-.12.14-.11l1.01.12c.07,0,.12.07.11.14h0Z"/>
                    <path class="cls-10" d="m257.58,206.7c0,.07-.07.12-.14.11l-1.01-.12c-.07,0-.12-.07-.11-.14h0c0-.07.07-.12.14-.11l1.01.12c.07,0,.12.07.11.14h0Z"/>
                    <path class="cls-10" d="m257.5,207.45c0,.07-.07.12-.14.11l-1.01-.12c-.07,0-.12-.07-.11-.14h0c0-.07.07-.12.14-.11l1.01.12c.07,0,.12.07.11.14h0Z"/>
                    <path class="cls-10" d="m257.41,208.21c0,.07-.07.12-.14.11l-1.01-.12c-.07,0-.12-.07-.11-.14h0c0-.07.07-.12.14-.11l1.01.11c.07,0,.12.07.11.14h0Z"/>
                  </g>
                </g>
                <path class="cls-1" d="m255.36,207.22l1.71-14.78-.34-.04c-.72-.08-1.23-.73-1.15-1.45.08-.72.73-1.23,1.45-1.15l-1.54-.18c-.72-.08-1.37.43-1.45,1.15-.08.72.43,1.37,1.15,1.45l.34.04-1.71,14.78c-.11.93.56,1.78,1.49,1.88l.77.09c.13.02.26.01.39,0-.73-.26-1.21-.99-1.11-1.79Z"/>
              </g>
              <path class="cls-11" d="m219.54,211.81s5.21.36,12.69-9.66c0,0-9.02-19.97-14.21-20.28,0,0-3.89,13.71,1.51,29.94Z"/>
            </g>
            <g>
              <path class="cls-11" d="m226.48,235.66s-3.5-45.18-6.52-52.46c-.92-2.22-8.1-3.66-8.1-3.66,0,0-.01,7.12-5.39,6.94-5.37-.18-5.87-6.55-5.87-6.55,0,0-7.79.79-9.33,3.14-1.54,2.35-4.96,52.72-4.96,52.72,0,0,19.71,5.35,40.16-.13Z"/>
              <path class="cls-19" d="m214.88,208.64c-2.86-12.24-13.83-17.09-14.57-28.66.19-.03.3-.05.3-.05,0,0,.49,6.38,5.87,6.55,5.37.18,5.39-6.94,5.39-6.94,0,0,7.18,1.44,8.1,3.66,3.02,7.28,6.52,52.46,6.52,52.46-3.15.85-6.29,1.43-9.34,1.82.71-9.61.29-19.23-2.25-28.84Z"/>
            </g>
          </g>
          <g>
            <g>
              <g>
                <path class="cls-12" d="m166.81,208.91c-.75.37-1.07,1.29-.69,2.04l15.35,31c.37.76,1.29,1.06,2.04.69l41.42-20.5c.75-.37,1.06-1.29.69-2.04l-15.35-31c-.37-.76-1.29-1.06-2.04-.69l-41.41,20.51Z"/>
                <path class="cls-33" d="m175.33,213.16c8.41,3.76,17.52,5.11,26.71,5.22,7.43.2,14.79-.4,22.13-1.2l1.44,2.92c.37.76.06,1.67-.69,2.04l-41.42,20.5c-.75.37-1.67.07-2.04-.69l-15.35-31c-.37-.75-.06-1.67.69-2.04l.24-.12c2.62,1.68,5.37,3.18,8.29,4.37Z"/>
              </g>
              <path class="cls-18" d="m224.48,209.92l-1.5-3.18c1.47-.7,2.1-2.45,1.41-3.92-.69-1.47-2.45-2.11-3.92-1.41l-1.5-3.18c-.67-1.43-2.37-2.04-3.8-1.37-1.43.67-2.04,2.37-1.37,3.8l5.51,11.69c.67,1.43,2.37,2.04,3.8,1.37,1.43-.67,2.04-2.37,1.37-3.8Zm-4.09-5.22c-.35-.74-.03-1.62.71-1.97.74-.35,1.62-.03,1.97.71.35.74.03,1.62-.71,1.97-.74.35-1.62.03-1.97-.71Z"/>
            </g>
            <g>
              <path class="cls-26" d="m202.52,230.58s3.95,1.41,13.22.84c2.25-.14,2.04-1.83.63-1.97-1.41-.14-4.99-.41-4.88-.62.1-.21,3.54-.43,5.55-.64,2-.21,2.21-1.72,1.37-2.04-.84-.32-2.6-.17-4.32-.03-1.72.14-1.97-.21-1.2-.56,2.69-1.23,4.11-2.67,3.16-3.34-.95-.67-6.61,2-7.17,2.15-.56.14-.32-.6.63-2.08.95-1.48,1.55-3.3,0-3.09-1.55.21-7.2,6.54-7.2,6.54-2.01,1.28-14.99-.2-15.91-1.9-.93-1.7,2.55-18.28,3.83-22.29,1.28-4.01,7.05-20.26.48-18.31-6.57,1.96-16.92,25.84-17.07,36.59-.16,10.74,4.6,19.57,28.88,10.76Z"/>
              <path class="cls-23" d="m175.91,208.31c-.26,6.13-.35,12.89,2.52,18.04,4.24,7.63,12.72,3.5,19.39,2.97,2.75-.21,5.4.42,8.05.95,2.82.49,5.64.89,8.46,1.22-8.25.35-11.81-.91-11.81-.91-24.28,8.81-29.04-.01-28.88-10.76.04-3.05.91-7.15,2.27-11.51Z"/>
            </g>
            <path class="cls-11" d="m176.27,204.22s7.67,3.42,14.39.37c0,0,6.92-18.77,3.32-21.28-3.61-2.51-13.16,2.85-17.71,20.91Z"/>
            <path class="cls-19" d="m193.98,183.31c-.93-.65-2.25-.76-3.78-.28.7.51,1.23,1.21,1.42,2.28.48,2.69-1.06,5.95-2.3,8.26-2.92,5.51-7.54,8.21-12.84,9.92-.07.25-.14.48-.2.73,0,0,7.67,3.42,14.39.37,0,0,6.92-18.77,3.32-21.28Z"/>
          </g>
        </g>
        <g>
          <g>
            <path class="cls-25" d="m498.86,194.06c-5.75-4.91-8.28-13.05-8.28-13.05,3.51-.98,9.4-10.1,3.23-15.94-6.17-5.83-13.33-17.74-16.87-24.31l-14.86-2.93-19.48,16.24c-3.55,6.57-6.09,5.17-12.26,11-6.17,5.83-.28,14.95,3.23,15.94,0,0-2.53,8.14-8.28,13.05-5.56,4.75-14.77,25.75,34.15,27.66v.13c.89-.01,1.77-.03,2.64-.05.87.02,1.75.04,2.65.05v-.13c48.91-1.91,39.7-22.91,34.14-27.66Z"/>
            <path class="cls-20" d="m442.14,179.05c-1.64-1.17-5.15-2.57-5.15-4.92.23-2.11,3.98-3.98,5.62-5.15,5.57-4.83,4.81-11.72,4.37-18.57l-4.38,3.65c-3.55,6.57-6.09,5.17-12.26,11-6.17,5.83-.28,14.95,3.23,15.94,0,0-2.53,8.14-8.28,13.05-3.48,2.97-8.39,12.32.44,19.36,2.17-6.6,7.16-12.03,11.74-17.05,4.68-4.91,12.17-11.23,4.68-17.32Z"/>
          </g>
          <g>
            <g>
              <g>
                <path class="cls-12" d="m467.03,260.34c-.71.01-1.27.6-1.26,1.3l.57,29.08c.01.71.6,1.27,1.31,1.25l38.84-.76c.71-.01,1.27-.6,1.26-1.31l-.57-29.08c-.01-.71-.6-1.27-1.31-1.25l-38.84.76Z"/>
                <path class="cls-33" d="m471.99,266.63c5.05,5.87,11.49,10.16,18.44,13.53,5.58,2.81,11.39,5,17.26,7.02l.05,2.73c.01.71-.55,1.29-1.26,1.31l-38.84.76c-.71.01-1.29-.55-1.31-1.25l-.57-29.08c-.01-.71.55-1.29,1.26-1.3h.23c1.39,2.22,2.94,4.33,4.74,6.29Z"/>
              </g>
              <path class="cls-18" d="m510.53,281.77v-2.95c1.37,0,2.48-1.11,2.48-2.48s-1.11-2.48-2.48-2.48v-2.95c0-1.33-1.08-2.4-2.4-2.4s-2.4,1.07-2.4,2.4v10.87c0,1.33,1.07,2.4,2.4,2.4s2.4-1.07,2.4-2.4Zm-1.25-5.43c0-.69.56-1.24,1.25-1.24s1.25.56,1.25,1.24-.56,1.24-1.25,1.24-1.25-.56-1.25-1.24Z"/>
            </g>
            <path class="cls-23" d="m486.67,199.27s3.49,46.56,2.54,55.56c0,0,3.89,1.38,4.32,5.88.43,4.5-1.04,6.74-2.33,6.57-1.3-.17-.3-3.01-.52-4.34-.37-2.19-1.81-3.09-1.81-3.09l-4.38.16-6.91-50.09,9.09-10.64Z"/>
            <g>
              <path class="cls-19" d="m494.54,206.68s-7.98,2.63-14.36-1.09c0,0-4.99-19.37-1.15-21.51,3.84-2.13,12.81,4.16,15.51,22.59Z"/>
              <path class="cls-11" d="m480.94,183.7c1.65,7.89,3.21,15.83,4.87,23.72-1.86-.23-3.81-.77-5.63-1.83,0,0-4.99-19.37-1.15-21.51.54-.3,1.19-.43,1.91-.38Z"/>
            </g>
          </g>
          <g>
            <g>
              <path class="cls-26" d="m453.29,352.11l-2.18,5.17s-10.39,3.14-11.67,6.85c0,0,14.94,1.91,21.07-1.16v-10.86h-7.22Z"/>
              <g>
                <path class="cls-10" d="m462.36,361.33c.63-.15,1.24,2.21-1.77,2.92-1.37.32-20.04.82-23.5.74-1.87-.04-2.2-1.98.01-2.16,2.57-.21,17.53.29,25.25-1.49Z"/>
                <path class="cls-10" d="m448.54,363.35s-.83-3.99-2.84-5.45c0,0-8.62.87-9.51,5.05,0,0,1.69.94,12.35.4Z"/>
                <path class="cls-16" d="m445.62,357.26s.01,0,.02,0h0c.67.09,1.48,1.12,1.86,1.62.9,1.17,1.43,2.49,1.56,4,.1,1.11-2.18-2.59-2.91-3.72-.3-.47-.72-1.95-.53-1.91Z"/>
                <g>
                  <path class="cls-16" d="m445.32,362.38c.01.25.21.45.45.44.24,0,.42-.22.41-.47,0-.25-.21-.45-.45-.44-.23,0-.42.22-.41.47Z"/>
                  <path class="cls-16" d="m443.14,362.46c0,.25.21.45.45.44.24,0,.42-.22.41-.47,0-.25-.21-.45-.45-.44-.24,0-.42.22-.41.47Z"/>
                  <path class="cls-16" d="m440.96,362.55c0,.25.21.45.45.44.24,0,.42-.22.41-.47,0-.25-.21-.45-.45-.44-.24,0-.42.22-.41.47Z"/>
                  <path class="cls-16" d="m444.16,360.76c.01.25.21.45.45.44.23,0,.42-.22.41-.47,0-.25-.21-.45-.45-.44-.24,0-.42.22-.41.47Z"/>
                  <path class="cls-16" d="m443.08,359.54c0,.25.21.45.45.44.24,0,.42-.22.41-.47-.01-.25-.21-.45-.45-.44-.24,0-.42.22-.41.47Z"/>
                  <path class="cls-16" d="m441.98,360.84c0,.25.21.45.45.44.24,0,.42-.22.41-.47,0-.25-.21-.44-.44-.43-.24,0-.42.22-.41.47Z"/>
                  <path class="cls-16" d="m439.8,360.93c0,.25.21.45.45.44.24,0,.42-.22.41-.47,0-.25-.21-.44-.44-.44-.24,0-.42.22-.41.47Z"/>
                  <path class="cls-16" d="m440.82,359.63c.01.25.21.45.44.44.24,0,.42-.22.41-.47,0-.25-.21-.45-.45-.44-.24,0-.42.22-.41.47Z"/>
                  <path class="cls-16" d="m438.78,362.64c.01.25.21.45.44.44.24,0,.42-.22.41-.47-.01-.25-.21-.45-.45-.44-.24,0-.42.22-.41.47Z"/>
                </g>
                <path class="cls-10" d="m451.64,363.23c.05.5-2.97.64-3.1.12-.13-.52-1.46-4.55-2.84-5.45-1.38-.9,1.56-1.69,2.58-1.1,1.03.59,3.09,3.89,3.36,6.43Z"/>
                <path class="cls-6" d="m436.31,363c-.1-.03-.13-.05-.13-.05.02-.1.07-.19.1-.28,1.21.01,2.42.03,3.63,0,1.83-.04,3.7-.16,5.49-.6.79-.2,1.6-.45,2.25-1.01.56-.49,1.03-1.18,1.1-1.96.09-.94-.4-1.75-.96-2.46.19.03.36.09.5.16.93.54,2.73,3.32,3.24,5.73,3.94-.18,7.92-.53,10.85-1.21.63-.15,1.24,2.21-1.77,2.92-1.37.32-20.04.82-23.5.74-1.59-.04-2.06-1.46-.79-1.98Z"/>
              </g>
            </g>
            <g>
              <path class="cls-26" d="m475.85,351.37l-.63,5.27s11.76,1.88,13.18,5.54c0,0-14.85,2.49-21.1-.32l1.29-10.48h7.25Z"/>
              <g>
                <path class="cls-10" d="m465.18,361.55c-.63-.12-1.14,2.25,1.88,2.84,1.37.27,19.94.03,23.37-.18,1.85-.12,2.1-2.07-.1-2.16-2.56-.11-17.41.98-25.15-.5Z"/>
                <path class="cls-10" d="m479,363.02s.67-4.02,2.61-5.56c0,0,8.59.52,9.64,4.67,0,0-1.64,1.01-12.26.89Z"/>
                <path class="cls-16" d="m481.66,356.82s-.01,0-.02,0h0c-.66.12-1.43,1.18-1.79,1.7-.85,1.2-1.32,2.55-1.39,4.05-.06,1.12,2.07-2.67,2.75-3.83.28-.48.64-1.98.45-1.92Z"/>
                <g>
                  <path class="cls-16" d="m482.16,361.92c0,.25-.19.46-.43.46s-.43-.2-.43-.46.19-.46.43-.46.43.21.43.46Z"/>
                  <path class="cls-16" d="m484.33,361.92c0,.25-.19.46-.42.46s-.43-.2-.43-.46.19-.46.43-.46.42.21.42.46Z"/>
                  <path class="cls-16" d="m486.5,361.92c0,.25-.19.46-.43.46s-.42-.2-.42-.46.19-.46.42-.46.43.21.43.46Z"/>
                  <path class="cls-16" d="m483.25,360.26c0,.25-.19.45-.43.45s-.42-.2-.42-.45.19-.45.42-.45.43.2.43.45Z"/>
                  <path class="cls-16" d="m484.27,359c0,.25-.19.46-.43.46s-.43-.2-.43-.46.19-.45.43-.45.43.2.43.45Z"/>
                  <path class="cls-16" d="m485.42,360.26c0,.25-.19.45-.43.45s-.42-.2-.42-.45.19-.45.42-.45.43.2.43.45Z"/>
                  <path class="cls-16" d="m487.59,360.26c0,.25-.19.45-.43.45s-.43-.2-.43-.45.19-.45.43-.45.43.2.43.45Z"/>
                  <path class="cls-16" d="m486.52,359c0,.25-.19.46-.43.46s-.42-.2-.42-.46.19-.45.42-.45.43.2.43.45Z"/>
                  <path class="cls-16" d="m488.67,361.92c0,.25-.19.46-.43.46s-.42-.2-.42-.46.19-.46.42-.46.43.21.43.46Z"/>
                </g>
                <path class="cls-10" d="m475.92,363.02c-.03.5,2.98.52,3.08,0,.11-.52,1.28-4.61,2.61-5.56,1.34-.95-1.61-1.63-2.61-1-1,.63-2.92,4.01-3.08,6.56Z"/>
                <path class="cls-6" d="m491.13,362.19c.09-.03.13-.06.13-.06-.03-.1-.07-.18-.11-.28-1.2.06-2.4.12-3.61.15-1.83.03-3.68-.01-5.48-.38-.79-.17-1.61-.38-2.27-.92-.57-.46-1.06-1.14-1.16-1.92-.13-.93.33-1.76.86-2.5-.19.04-.36.1-.49.18-.91.58-2.58,3.43-3,5.86-3.92-.03-7.88-.22-10.83-.78-.63-.12-1.14,2.25,1.88,2.84,1.37.27,19.94.03,23.37-.18,1.58-.1,1.99-1.54.7-2.01Z"/>
              </g>
            </g>
            <g>
              <path class="cls-19" d="m484.27,235.14h-39.84s-7.44,45.75,8.03,117.7h8.32s-1.14-35.92-2.67-58.52c-1.39-20.55,3.96-37.86,3.96-37.86h4.55s5.35,17.31,3.96,37.86c-1.53,22.6-2.67,58.52-2.67,58.52h8.32c15.47-71.95,8.03-117.7,8.03-117.7Z"/>
              <path class="cls-11" d="m472.12,265.21c-.77-2.52-5.5-8.75-5.5-8.75,0,0,5.35,17.31,3.96,37.86-1.53,22.6-2.67,58.52-2.67,58.52h1.16c2.03-17.33,4.49-43.86,4.98-57.61.39-9.88.39-20.33-1.94-30.02Z"/>
            </g>
            <path class="cls-4" d="m485.71,251.29c-.52-10.47-1.44-16.15-1.44-16.15h-39.84s-.76,4.69-1.29,13.39c10.31,5.58,23.99,7.14,42.56,2.76Z"/>
          </g>
          <g>
            <g>
              <path class="cls-19" d="m442.14,246.14s21.27,10.5,45.2,1.1c0,0-5.98-59.07-7.11-63-1.12-3.93-24.7-5.47-29.04-.7-4.35,4.77-9.05,62.6-9.05,62.6Z"/>
              <path class="cls-11" d="m479.6,240.06c-4.91-5.03-8.95-11.16-12.26-17.29-6.62-12.79-10.05-27.44-9.36-41.77-3.1.45-5.63,1.27-6.79,2.54-4.35,4.77-9.05,62.6-9.05,62.6,0,0,21.27,10.5,45.2,1.1,0,0-.04-.39-.11-1.1-2.73-1.66-5.29-3.63-7.63-6.08Z"/>
            </g>
            <g>
              <path class="cls-28" d="m471.32,192.72c.86-4.26,1.19-10.64-2.15-13.99-.01-.01-.03,0-.03.02,1.46,4.74,1.85,8.65.6,13.54-.87,3.43-2.18,6.55-3.74,9.68-2.48-3.26-4.64-6.13-6.12-10.09-1.67-4.48-1.17-8.68-.33-13.23,0-.02-.02-.03-.03-.02-5.05,7.46-.62,19.82,6.25,24.53.04.03.08.04.11.05.76,6.15-4.94,18.31,4.28,19.39.42.05.42-.55.09-.68-2.54-1.05-4.21-2.06-4.33-5.1-.06-1.44.16-2.97.3-4.4.32-3.23.96-6.13.1-9.25,0,0,.01,0,.02-.01,2.91-2.18,4.27-7.08,4.95-10.44Z"/>
              <path class="cls-18" d="m475.9,223.49c0,1.54-1.25,2.79-2.79,2.79s-2.79-1.25-2.79-2.79,1.25-2.79,2.79-2.79,2.79,1.25,2.79,2.79Z"/>
              <path class="cls-28" d="m474.6,223.49c0,.83-.67,1.5-1.5,1.5s-1.5-.67-1.5-1.5.67-1.5,1.5-1.5,1.5.67,1.5,1.5Z"/>
            </g>
            <g>
              <path class="cls-26" d="m438.04,230.26s2.59,3.3,10.73,7.77c1.97,1.08,2.7-.46,1.59-1.33-1.12-.87-4-3-3.79-3.13.2-.12,3.22,1.53,5.03,2.42,1.81.89,2.79-.28,2.25-1-.54-.72-2.11-1.53-3.64-2.33-1.53-.8-1.55-1.23-.71-1.11,2.93.4,4.9-.07,4.46-1.14-.45-1.07-6.66-1.83-7.21-2.01-.55-.18.05-.68,1.64-1.42,1.59-.74,3.07-1.97,1.65-2.62-1.42-.64-9.58,1.69-9.58,1.69-2.38.01-12.57-8.16-12.45-10.1.12-1.93,11.91-14.1,15.14-16.81,3.22-2.71,16.78-13.38,10.17-15.23-6.6-1.85-28.1,12.83-33.96,21.83-5.86,9-6.55,19.01,18.69,24.51Z"/>
              <path class="cls-23" d="m430.54,202.89c-.49,2.94-2.58,4.91-4.17,7.23-4.17,6.38.49,14.11,7.48,15.82,1.99.52,3.66.3,5.13-.38-3.64-1.75-11.08-7.97-10.98-9.62.12-1.93,11.91-14.1,15.14-16.81,3.22-2.71,16.78-13.38,10.17-15.23-4.5-1.26-15.93,5.17-24.61,12.24,1.24,2.06,2.19,4.31,1.84,6.74Z"/>
            </g>
            <g>
              <path class="cls-19" d="m429.9,193.97s4.66,6.99,11.98,7.99c0,0,15.87-12.18,14.16-16.23-1.71-4.05-12.65-4.61-26.14,8.24Z"/>
              <path class="cls-11" d="m451.57,183.17c-4.73,7.29-9.09,11.57-15.26,16.76,1.61.96,3.47,1.74,5.57,2.03,0,0,15.35-11.22,14.54-16.58-.09-.61-.25-3.23-4.85-2.21Z"/>
            </g>
          </g>
          <g>
            <g>
              <path class="cls-26" d="m464.23,167.29h.92c2.14,0,3.87,1.74,3.87,3.87v10.21c0,2.14-1.74,3.87-3.87,3.87h-.92c-2.14,0-3.87-1.74-3.87-3.87v-10.22c0-2.14,1.74-3.87,3.87-3.87Z"/>
              <path class="cls-23" d="m469.03,177.39v-6.23c0-2.14-1.73-3.88-3.87-3.88h-.92c-2.14,0-3.87,1.74-3.87,3.88v5.54c2.72.74,5.73.96,8.67.68Z"/>
            </g>
            <g>
              <path class="cls-26" d="m484.52,152.35c0,12.04-9.04,21.79-20.2,21.79s-20.2-9.76-20.2-21.79,9.04-21.8,20.2-21.8,20.2,9.76,20.2,21.8Z"/>
              <path class="cls-23" d="m484.52,152.35c0-7.06-3.12-13.34-7.94-17.32,2.01,6.74,3.07,13.77,2.61,20.8-.3,5.52-1.83,10.93-4.92,15.48,6.12-3.75,10.25-10.83,10.25-18.96Z"/>
            </g>
            <g>
              <path class="cls-25" d="m441.27,154.53s13.88-6.86,22.77-23.5c0,0,15.43,18.44,21.92,23.5,0,0,1.25-15.72-3.58-24.9-4.82-9.18-29.32-10.69-36.99.98-5.33,8.12-4.13,23.92-4.13,23.92Z"/>
              <path class="cls-20" d="m465.51,122.31c-7.85-.19-16.18,2.32-20.11,8.29-5.33,8.12-4.13,23.92-4.13,23.92,0,0,2.49-1.23,6.03-3.91,1.79-7.83,4.71-15.2,10.52-21.41,2.4-2.53,4.97-4.84,7.69-6.9Z"/>
            </g>
            <g>
              <path class="cls-22" d="m464.65,150.66c.61.03.75,3.69,2.01,4.86,1.26,1.17,2.85,1.93,2.52,3.52-.33,1.59-4.21,2.76-5.62,0-1.62-3.17-.59-8.47,1.09-8.38Z"/>
              <g>
                <path class="cls-25" d="m472.54,146.17c-.34.17-.1.71.26.6,1.06-.32,2.11.36,3.03.84.45.23.99-.38.57-.74-1.04-.9-2.55-1.36-3.85-.71Z"/>
                <path class="cls-25" d="m456.13,146.77c.36.11.59-.44.25-.6-1.3-.65-2.8-.19-3.85.71-.42.36.12.97.57.74.91-.48,1.96-1.17,3.03-.84Z"/>
              </g>
              <path class="cls-13" d="m467.65,164.46c-.51.5-.84,1.11-1.36,1.6-.9.84-2.31.98-3.46.81-2.22-.34-2.88-2.7-3.07-4.59,0-.06-.09-.06-.09,0-.16,2.45.37,4.64,2.93,5.44,2.09.66,5.36-.46,5.85-2.81.09-.45-.44-.8-.79-.46Z"/>
              <g>
                <path class="cls-34" d="m472.71,150.8c-2.61.63-2.36,3.25-1.83,4.93.01.04.09.03.09-.01.16-1.22,0-2.86,1.08-3.82.92-.81,1.88-.15,2.38.57.65.93.68,2.04.45,3.06-.1.48.8.68.91.2.28-1.28.17-2.48-.55-3.64-.44-.7-1.44-1.55-2.54-1.28Z"/>
                <path class="cls-34" d="m455.28,150.8c-1.13-.27-2.05.59-2.54,1.28-.79,1.11-.82,2.42-.55,3.64.1.48,1.01.28.91-.2-.22-.99-.17-1.95.34-2.87.41-.74,1.16-1.43,2.21-.95,1.45.66,1.23,2.87,1.37,4.01,0,.04.08.06.09.01.52-1.67.78-4.3-1.83-4.93Z"/>
              </g>
            </g>
            <g>
              <g>
                <path class="cls-23" d="m490.05,158.63c0,3.06-2.48,5.53-5.53,5.53s-5.53-2.48-5.53-5.53,2.48-5.53,5.53-5.53,5.53,2.48,5.53,5.53Z"/>
                <path class="cls-13" d="m487.06,156.3c-1.66.22-3.15.91-4.29,2.15-.84.91-1.88,2.9-.9,4.02.17.19.49.08.55-.15.15-.55,0-1.1.14-1.66.04-.17.1-.33.17-.49.44-.34.98-.54,1.58-.58,1.06-.07,1.21.78.92,1.62-.22.63.83.93,1,.27.34-1.3-.1-2.56-1.56-2.7-.39-.04-.76.05-1.11.2.03-.03.05-.06.08-.09.93-1.01,2.16-1.91,3.44-2.41.09-.04.09-.2-.03-.18Z"/>
              </g>
              <g>
                <path class="cls-26" d="m448.06,158.63c0,3.06-2.48,5.53-5.53,5.53s-5.53-2.48-5.53-5.53,2.48-5.53,5.53-5.53,5.53,2.48,5.53,5.53Z"/>
                <path class="cls-13" d="m439.83,157.41c-.05.01-.04.09.01.09,1.26.01,2.51.31,3.45,1.19.34.32.58.7.74,1.12-1.28-.49-3.08.09-2.48,1.74.19.51.92.31.82-.23-.18-.93,1-1.12,1.85-.89.12.54.16,1.09.15,1.62-.01.67,1.07.67,1.04,0-.08-1.46-.47-2.88-1.58-3.89-1.1-1-2.62-1.03-3.99-.76Z"/>
              </g>
            </g>
          </g>
        </g>
      </g>
    </g>
  </g>
</svg>