<?xml version="1.0" encoding="utf-8"?>
<!-- Generator: Adobe Illustrator 27.3.1, SVG Export Plug-In . SVG Version: 6.00 Build 0)  -->
<svg version="1.1" id="Layer_1" xmlns="http://www.w3.org/2000/svg" xmlns:xlink="http://www.w3.org/1999/xlink" x="0px" y="0px"
	 viewBox="0 0 3197 2000" style="enable-background:new 0 0 3197 2000;" xml:space="preserve">
<style type="text/css">
	.st0{opacity:0.5;fill:#FFFFFF;enable-background:new    ;}
	.st1{fill:#F7A491;}
	.st2{fill:#96D9C9;}
	.st3{fill:#F48C7F;}
	.st4{fill:#355389;}
	.st5{fill:#13375B;}
	.st6{fill:#50BFA5;}
	.st7{opacity:0.5;fill:#F47458;enable-background:new    ;}
	.st8{fill:#184655;}
	.st9{fill:#FFFFFF;}
	.st10{fill:#327F6B;}
	.st11{opacity:0.3;fill:#F4B98C;enable-background:new    ;}
	.st12{fill:#31535B;}
	.st13{fill:#F7CC7F;}
	.st14{fill:#F8A492;}
	.st15{fill:#466EB6;}
	.st16{fill:#964538;}
	.st17{fill:#B75742;}
	.st18{fill:#F47458;}
	.st19{fill:#89A6E5;}
	.st20{fill:#3C8F7C;}
	.st21{fill:#9BC1F9;}
	.st22{fill:#0E2E35;}
	.st23{fill:#E25A44;}
	.st24{fill:#EA9486;}
	.st25{fill:#C8C6AF;}
	.st26{fill:#EAFCFC;}
	.st27{fill:#F79C8D;}
	.st28{fill:#4570AF;}
	.st29{opacity:0.6;fill:#E5ECF2;enable-background:new    ;}
	.st30{fill:#AAA896;}
	.st31{fill:#071B1E;}
	.st32{fill:#7F7F79;}
	.st33{fill:#1E634F;}
	.st34{fill:#ADAC9E;}
	.st35{fill:#1B1811;}
	.st36{fill:#EAB054;}
	.st37{opacity:0.3;fill:#9BC1F9;enable-background:new    ;}
	.st38{fill:#FCF5EB;}
	.st39{fill:#86B1F2;}
	.st40{opacity:0.2;fill:#FFFFFF;enable-background:new    ;}
	.st41{opacity:0.3;fill:#E25A44;enable-background:new    ;}
	.st42{opacity:0.3;fill:#F7CC7F;enable-background:new    ;}
	.st43{fill:none;stroke:#9BC1F9;stroke-miterlimit:10;}
</style>
<g>
	<path class="st0" d="M1807.9,1037.4c-4.9-21.5-24.1-37.6-47-37.6c-4.2,0-8.3,0.5-12.2,1.6c-11.3-24.3-35.8-41.2-64.3-41.2
		c-7.4,0-14.4,1.1-21.1,3.2c-15.3-25.5-43.1-42.6-74.9-42.6c-37.8,0-70,24.1-82.2,57.9c-8.6-4.8-18.6-7.6-29.2-7.6
		c-33.1,0-60,27-60,60.4c0,2,0.1,3.9,0.3,5.9H1807.9z"/>
	<g>
		<g>
			<path class="st1" d="M2519.4,1623.9c-0.1-0.9,4-0.9,4.3-1.7c0.4-0.8-4.9-1.8-5-2.5c-0.1-1.4,5.8,0.7,5.8,0c0-0.7-6-3.1-5.2-4.1
				c0.9-1,6,3.2,6.3,2.5c0.3-0.7-5.1-3.5-4.7-5.1c0.2-0.9,8.6,5.9,9.8,5.6c1.2-0.3-0.4-4.7,0.6-5.2c1-0.5,2.2,8.2,2.7,8.6
				c0.5,0.4,12.6,8,16.9,9.9c0.8-1.4,6.5-8.8,7.2-10.1c2.2,2.2,6.1,1.4,8.4,3.4c-2.7,4.4-10.5,17.5-11.9,17.9
				c-4.3,1.1-20.5-12.8-23.2-15.6c-2.7-2.7-4.6-2.3-6.6-3.4C2522.8,1623.4,2519.5,1624.8,2519.4,1623.9z"/>
			<path class="st2" d="M2555.4,1624.5c0,0,6.1-16.4,9.9-20.2c3.8-3.8,12-3.8,14.4,0.5c2.5,4.3-13.3,24-13.3,24L2555.4,1624.5z"/>
			<path class="st1" d="M2576.8,1613.6c-6.2-0.1-5.5-12.1-5.5-12.1c-0.6,0-1,0.1-1.3,0.2c0.3-0.1,0.8-0.1,1.3-0.2
				c2.4-0.2,4.3-2,4.6-4.4c0.3-1.7,0.5-3.6,0.3-4.9c-0.5-2.9,7.6-1,7.6-1l1.1,7c0.3,2,1.8,3.7,3.8,4.1
				C2588.7,1602.3,2582.9,1613.7,2576.8,1613.6z"/>
			<path class="st3" d="M2606.4,1752.3c0,0,2.2,2.2,2.3,3c0.1,0.8,0.2,9.4-0.7,10.2s-3.6,1.4-2.7,2.3c0.6,0.7,5.6,0.5,8.9,0.4
				c1-0.1,2.2-7.8,2.6-8.9c0.6-1.6,1.9-5.4,1.4-6.5c-0.2-0.6-1.4-1.7-3.1-2.8c-1.7-1.1-3.4-3.6-3.4-3.6L2606.4,1752.3z"/>
			<path class="st1" d="M2583.4,1757.4c0,0,2,5.6,2,5.7c0.1,0.9,0.7,3.1,0.7,3.9c0,3.1-13.7-2.6-10.6-3.9c0.3-0.1,1.2-1.1,1.2-2.1
				c0.1-1.6-1.2-3.6-1.2-3.6L2583.4,1757.4z"/>
			<g>
				<path class="st4" d="M2561.8,1652.3c0,0-2.4,9.8-2.4,10c0,16.4-1.8,48.6-1.2,51.7c1.5,7.5,17.6,45.8,17.6,45.8l8.7-1l-6-41.1
					l8.3-28.3l-3.6-31.4L2561.8,1652.3z"/>
				<path class="st5" d="M2603.7,1659.6l-3.4,37l14,52.3c0,0-2.4,5.6-5.9,6.4l-27.2-39.6l-16.9-50.7l0.6-11.3L2603.7,1659.6z"/>
			</g>
			<path class="st6" d="M2615,1749.8c0,0-5.1,14.5-7.1,15.2c-0.5,0.2-3.1,0.7-3.6,1.8c-0.1,0.3,0,1.5,0,1.5h10.7
				c0,0,1.4-6.4,1.9-9.2c0,0,2.8-6.9,2.5-7.5C2619,1751,2615,1749.8,2615,1749.8z"/>
			<path class="st6" d="M2586.9,1768l-1.6-5c0,0-3.3,1.4-5,1.2s-4.9-1.2-4.9-1.2c-6.6,2.2-12,3.2-11,5l0,0H2586.9z"/>
			<path class="st7" d="M2576.2,1592.3c-0.5-2.9,7.6-1,7.6-1l0.1,0.9c-0.2,0.6-0.5,1.1-0.9,1.4c-1.8,1.9-4.6,3.1-7,3.2
				C2576.2,1595.2,2576.4,1593.5,2576.2,1592.3z"/>
			<g>
				<path class="st1" d="M2585.1,1576.6c0.2-0.1,2.1,13.1-0.9,16.3c-3,3.3-9.8,3.4-12,0.8c-2.3-2.9-1.6-15.9,3.1-19.3
					S2585.1,1576.6,2585.1,1576.6z"/>
				<path class="st8" d="M2577.1,1568.1c3.6,0.7,6,3,6.9,3.9c1.7,0.2,3.9,1.1,6.2,5c2.9,4.7,0.7,10-2.6,12.6s-3.3,5.6-3.3,5.6
					l-0.5-1.5c-0.4-1.2-0.5-2.4-0.4-3.6c0.1-0.7,0.2-1.5,0.5-2.2c0.8-1.7-1.7-2.9-2.4-4.3c-0.5-1.1-0.6-3.6-1.4-5.4l-1-1.4
					c0,0-2.4-1.8-4.7-1.3C2572.1,1575.8,2572.5,1567.1,2577.1,1568.1z"/>
				<path class="st1" d="M2581.7,1585.5c0,1.5,0.6,2.6,1.5,2.7s1.5-1.2,1.6-2.6c0-1.5-0.6-2.6-1.5-2.7
					C2582.4,1582.9,2581.7,1584.1,2581.7,1585.5z"/>
			</g>
			<path class="st9" d="M2572.4,1590l3,0.5c0,0,0.1-1.2-1.2-1.4C2572.5,1588.8,2572.4,1590,2572.4,1590z"/>
			<path class="st10" d="M2566.4,1606.7c1.5-3.2,3.2-5,3.2-5c0.3-0.1,0.9-0.2,1.6-0.3c0,0-0.7,11.9,5.5,12.1s11.9-11.3,11.9-11.3
				c1.6,0.3,3.3,0.8,4.4,1.1c0,0,5.4,1,6.9,9.1c1.5,8.1,4.2,38.5,4.4,44.7c0.2,4.6-6.8,8.6-16.5,10.3c-2.3,0.6-5.3,1.1-9,0.9
				c-0.9,0-1.8,0-2.8,0c-10.8-0.1-14.6-3.2-15.9-5c-0.2-0.1-0.4-0.2-0.7-0.3c0,0,0-0.3,0.1-0.7c-0.1-0.1-0.1-0.2-0.1-0.2
				S2551.5,1632.5,2566.4,1606.7z"/>
			<path class="st1" d="M2591.3,1621.7c0,0,13.2,18.6,16.4,23s11.7,21.7,12,22.4s-4.3,9.3-3.1,9.5s2.1-4.5,3.4-4s5.8,11.7,6.5,11.1
				c1.3-1.1-2.5-6.9-1.8-7.3c0.7-0.4,3.4,6.4,4.8,6.2c1.4-0.3-3.1-6.2-2.8-6.8c0.4-0.6,5,5.1,5.7,3.8c0.4-0.7-4.3-4.9-3.5-5.3
				c0.8-0.4,4.8,2.2,5.2,1.4s-3.7-1.8-5-3.9c-1.3-2.2-3.4-3-4.6-7.1c-1.1-4-3.9-21.2-8.7-28.3c-4.8-7.2-14.7-20.7-14.7-20.7
				L2591.3,1621.7z"/>
			<path class="st2" d="M2612.6,1628.5l-12.9,8.7c0,0-7.3-10.8-11.2-14.7c-4.9-4.8,1.8-19.6,4.9-18.8
				C2600.6,1605.6,2612.6,1628.5,2612.6,1628.5z"/>
		</g>
		<g>
			<path class="st11" d="M2033.1,1840.5c38.2,0,315-61.4,353-58.1c92.5,8,185,35.3,276.7,21.2c83.3-12.8,159.2-59.1,243-67.4
				c27.6-2.8,55.8-1.4,82.7-8.4c26.6-7,61.3-35,81.3-49.4c1.8-1.3-21.3-8.7-21.3-8.7l-2481,8.7c0,0,20,59.5,72.8,72.3
				c248.8,60.2,418.2,8.9,673.1,31.8c68.4,6.2,168.9,51.3,237.3,58C1623.6,1847.6,1995.7,1840.5,2033.1,1840.5z"/>
			<g>
				<rect x="2276" y="1612.8" class="st12" width="3.1" height="45.6"/>
				<rect x="2427" y="1612.8" class="st12" width="3.1" height="45.6"/>
				<g>
					<path class="st13" d="M2438.3,1606.5h-170.4c-1.3,0-2.3,1-2.3,2.3v4.4c0,1.3,1,2.3,2.3,2.3h170.4c1.3,0,2.3-1,2.3-2.3v-4.4
						C2440.6,1607.5,2439.5,1606.5,2438.3,1606.5z"/>
					<path class="st13" d="M2438.3,1619.3h-170.4c-1.3,0-2.3,1-2.3,2.3v4.4c0,1.3,1,2.3,2.3,2.3h170.4c1.3,0,2.3-1,2.3-2.3v-4.4
						C2440.6,1620.4,2439.5,1619.3,2438.3,1619.3z"/>
					<path class="st13" d="M2438.3,1632.2h-170.4c-1.3,0-2.3,1-2.3,2.3v4.4c0,1.3,1,2.3,2.3,2.3h170.4c1.3,0,2.3-1,2.3-2.3v-4.4
						C2440.6,1633.3,2439.5,1632.2,2438.3,1632.2z"/>
				</g>
				<path class="st13" d="M2441.4,1661.9h-176.8v-1.3c0-3.1,2.6-5.7,5.7-5.7h165.4c3.1,0,5.7,2.6,5.7,5.7L2441.4,1661.9
					L2441.4,1661.9z"/>
				<path class="st12" d="M2441.7,1660.9H2264c-0.7,0-1.3,0.6-1.3,1.3v0.6c0,0.7,0.6,1.3,1.3,1.3h177.7c0.7,0,1.3-0.6,1.3-1.3v-0.6
					C2443,1661.5,2442.4,1660.9,2441.7,1660.9z"/>
				<path class="st14" d="M2377.6,1632.5c2.4-1.3,22.6-12.4,23.3-13.1c0.7-0.7,10.1-15.7,10.1-15.7l-8.2-1.9l-8.2,14.1
					c-0.7,0.5-13.5,9.8-13.5,9.8s-2.3,1.8-3.7,2.7c-0.4,0-0.8,0-1.2,0c-0.7,0-1.4-0.2-2-0.3c-0.7-0.2-2.2-0.3-2.5-0.3
					c-0.4,0.1-1.2,0.2-1.7,0.3c-0.5,0.1-1.1,0.2-1.4,0.3c-0.2,0.1-0.5,0-0.8,0c-0.4,0-0.6,0.4-0.4,0.7c0.2,0.3,0.8,0.4,1.1,0.4
					c0.9,0.1,2.4-0.2,2.4-0.1c0,0.1-2.2,1.5-2.4,1.7s-2.7,1.8-3.1,2.2c-0.4,0.5-0.1,0.8,0.2,0.7c0.3,0,3.9-2,3.9-2s0.5-0.2,0.4,0
					c-0.1,0.3-3.3,2.1-3.7,2.4s-0.6,0.8,0,0.9c0.6,0.1,4-2,4-2s0.4-0.3,0.5,0c0,0.2-2.8,1.7-2.9,1.9c-0.2,0.3-0.1,0.7,0.4,0.7
					c0.6,0,3.6-1.9,3.6-1.9s0.3-0.1,0.2,0.1s-2.3,1.6-2.4,1.9c-0.1,0.3,0.2,0.4,0.2,0.4c0.5,0.3,2.5-1.4,3.7-1.9
					C2374.4,1634.3,2377.5,1632.6,2377.6,1632.5z"/>
				<path class="st4" d="M2402,1595.9c0,0-1.9,0.6-4.3,6.6c-2.3,5.6-4.2,11.8-4.2,11.8l6.3,4.9c0,0,2.3-12.8,2.6-13.2
					S2402,1595.9,2402,1595.9z"/>
				<path class="st1" d="M2391,1694.9c0,0,0.3,4.9,0.3,4.9c0.1,0.6,0.5,2.2,0.5,2.7c0,2.1-10.1-1.8-7.8-2.7c0.2-0.1,1.3-0.7,1.3-1.5
					c0.1-1.1,0.4-3.4,0.4-3.4L2391,1694.9z"/>
				<path class="st15" d="M2384.1,1699.8c0,0,2.4,0.7,3.6,0.8s2.8-1.2,3.7-0.8c0.9,0.4,0.9,4.1,0.9,4.1s-12.7,1-16.3,0
					C2374.5,1703.4,2379.2,1701.3,2384.1,1699.8z"/>
				<path class="st1" d="M2373.9,1694.9c0,0,0.3,4.9,0.3,4.9c0.1,0.6,0.5,2.2,0.5,2.7c0,2.1-10.1-1.8-7.8-2.7
					c0.2-0.1,1.7-0.4,1.8-1.1c0.1-1.1,0.3-4.6,0.3-4.6L2373.9,1694.9z"/>
				<path class="st15" d="M2366.9,1699.8c0,0,2.4,0.7,3.6,0.8s2.8-1.2,3.7-0.8c0.9,0.4,0.9,4.1,0.9,4.1s-12.7,1-16.3,0
					C2357.4,1703.4,2362.1,1701.3,2366.9,1699.8z"/>
				<path class="st16" d="M2406.7,1643.6l-24.1,0.1c0,0-10.9-0.3-12.6,3.5c-1.7,3.8-1.8,48.4-1.8,48.4s5.7,0.3,6,0l7.2-24.9
					c0.7-2.4,0.9-5,0.7-7.5l-0.6-6.7l9.9,0.5c0,0,11.3-0.2,15-3.9C2410,1649.4,2406.7,1643.6,2406.7,1643.6z"/>
				<path class="st17" d="M2423,1640.9l-25.9,1.6c0,0-11.2,0.9-12.9,4.7c-1.7,3.8,0.6,48.4,0.6,48.4s6.6,0.3,6.5,0
					c0-0.3,3.1-18.4,4.6-25.3c0.5-2.2,0.6-4.4,0.5-6.7l-0.4-5.8c0,0,26.6-0.5,27.8-1.7C2427.5,1652.3,2423,1640.9,2423,1640.9z"/>
				<path class="st15" d="M2402,1595.9c3.7-0.8,10.5-1,10.5-1s4.3-0.4,5.6,0c2,0.6,5.8,1,5.5,9.8c-0.2,6.3-0.1,27.1-0.1,37.6
					l-25.9,0.1C2400.1,1621.3,2398.6,1596.7,2402,1595.9z"/>
				<path class="st1" d="M2409.5,1587.1l3.5,7.7c0,0-3.4,5.2-6.3,5.2c-2.4,0-1.8-3.6-1.8-3.6s-0.1-4.6-1.1-6.8
					C2402.8,1587.5,2409.5,1587.1,2409.5,1587.1z"/>
				<path class="st18" d="M2408.9,1590.1c-1,0.9-2.6,2.1-4.3,2.8c-0.2-1.2-0.4-2.4-0.8-3.2c-0.5-1,0.7-1.6,2.1-2
					c1.9-0.4,3.6-0.5,3.6-0.5l0.7,1.5C2409.9,1589.1,2409.2,1589.8,2408.9,1590.1z"/>
				<g>
					<path class="st1" d="M2408.2,1574.5c0.2-0.1,3.5,9.5,1.6,12.7s-6.7,5.1-8.9,3.4c-2.4-2-4.5-12.5-1.2-16.1
						S2408.2,1574.5,2408.2,1574.5z"/>
					<path class="st5" d="M2400.1,1568.8c3.2,0,5.5,1.4,6.4,2.1c1.4-0.1,3.4,0.2,6,3c3.2,3.4,2.3,8.1,0,10.8
						c-2.3,2.7-1.8,5.2-1.8,5.2l-0.7-1.2c-0.5-0.9-0.9-1.9-1-2.9c-0.1-0.6-0.1-1.3,0.1-1.9c0.4-1.6-1.9-2.1-2.7-3.1
						c-0.6-0.8-1.1-2.9-2.1-4.3l-1.1-1c0,0-2.3-1.1-4.1-0.3C2397.3,1576.1,2396.1,1568.8,2400.1,1568.8z"/>
					<path class="st1" d="M2406.9,1582.5c0.2,1.2,1,2.1,1.7,1.9c0.7-0.1,1.1-1.2,0.8-2.4s-1-2.1-1.7-1.9
						S2406.7,1581.3,2406.9,1582.5z"/>
				</g>
				<path class="st9" d="M2403.4,1586.1l-3.8,0.6c0,0,0.3,1.4,2,1.2C2403.7,1587.7,2403.4,1586.1,2403.4,1586.1z"/>
				<g>
					<path class="st14" d="M2407.4,1629.8c-0.3-0.1-0.7-0.7-3-1.8c-0.7-0.3-1.7-0.2-1.7-0.2s-1.3,0.1-1.3,0.4
						c-0.1,0.3,0.2,0.6,0.4,0.7c0.2,0.1,0.8,0,1,0c0.2,0.1,0.6,0.8,0.7,1.1s-3.8,0.5-3.8,0.5s-1.1,0-1.5,0c-0.3,0-1.2-0.2-1.2-0.2
						s-1.3-0.1-1.3,0.3c0,0.2,1.1,0.7,2.3,0.9c1.3,0.3,2.6,0.3,2.6,0.4c0,0.3-2.1,0.5-2.1,0.5s-1-0.1-1.4-0.1
						c-0.6-0.2-1.7-0.2-1.6,0.3c0,0.1,1.4,0.5,1.4,0.5s1,0.1,1.4,0.2c0.8,0.1,2,0,2.5,0.1c0.5,0,0.3,0.2,0.3,0.2
						c0,0-0.6,0.1-1.4,0.1c-0.4,0-0.9,0.2-1.4,0.1c-0.5,0-1.1,0-1.5,0c-1.1,0.1-0.8,0.8,0.2,0.8c0.4,0,0.8,0.1,1.2,0.1
						c1.7,0.1,3.2-0.1,3.3,0c0.1,0.2-2.8,0.5-2.8,0.5s-1.5,0.6,0,0.7c1.8,0.1,3.1-0.1,3.2-0.1c0.4-0.1,1.9,0,3.3-0.6
						c1-0.4,2.4-1.1,3-1.4L2407.4,1629.8z"/>
					<path class="st14" d="M2427.4,1609.5l-6.7,3.1c0,0,2.2,5.8,2.3,6.6c0,0-11,8-15.7,10.7l0.8,4.3c0.9-0.5,1.7-1,2.1-1.2
						c0.9-0.4,15.5-7.2,15.5-7.2s5.7-3,5.7-4.1C2431.5,1620.4,2427.4,1609.5,2427.4,1609.5z"/>
				</g>
				<path class="st4" d="M2430,1613.2c0,0-5.3-13-7.6-16.2c-2.3-3.2-6.3-3.1-8.5-0.4c-2.2,2.7,7.7,19.7,7.7,19.7L2430,1613.2z"/>
				<g>
					<g>
						<path class="st1" d="M2324.7,1695.2c0,0-0.3,4.8-0.3,4.8c-0.1,0.6-0.5,2.1-0.5,2.7c0,2.1,9-1.8,7-2.7
							c-0.2-0.1-1.1-0.7-1.2-1.4c-0.1-1.1-0.3-3.3-0.3-3.3L2324.7,1695.2z"/>
						<path class="st17" d="M2330.9,1699.9c0,0-2.1,0.6-3.2,0.8c-1.1,0.2-2.5-1.2-3.3-0.8c-0.8,0.4-0.8,4-0.8,4s11.3,1,14.5,0
							C2339.4,1703.4,2335.2,1701.4,2330.9,1699.9z"/>
						<path class="st1" d="M2339.9,1695.2c0,0-0.3,4.8-0.3,4.8c-0.1,0.6-0.5,2.1-0.5,2.7c0,2.1,9-1.8,7-2.7
							c-0.2-0.1-1.5-0.3-1.6-1.1c-0.1-1.1-0.3-4.5-0.3-4.5L2339.9,1695.2z"/>
						<path class="st17" d="M2346.1,1699.9c0,0-2.1,0.6-3.2,0.8c-1.1,0.2-2.5-1.2-3.3-0.8c-0.8,0.4-0.8,4-0.8,4s11.3,1,14.5,0
							C2354.6,1703.4,2350.4,1701.4,2346.1,1699.9z"/>
						<path class="st5" d="M2311.1,1643.8l21.4,0.1c0,0,9.7-0.3,11.2,3.4c1.5,3.7,1.2,50.5,1.2,50.5s-5.2,0.8-5.4,0.5l-5.8-28
							c-0.6-2.4-0.8-4.9-0.6-7.3l0.6-6.5l-9.2-0.8c0,0-9.6,1.1-12.9-2.5S2311.1,1643.8,2311.1,1643.8z"/>
						<path class="st4" d="M2296.5,1641.2l23,1.6c0,0,9.9,0.9,11.4,4.6s-1,50.9-1,50.9s-5.7,0.4-5.7,0.1c0-0.3-2.4-21.6-3.7-28.3
							c-0.4-2.1-0.6-4.3-0.4-6.5l0.8-7.6c0,0-21.4-0.1-22.4-1.3C2295.3,1650.9,2296.5,1641.2,2296.5,1641.2z"/>
					</g>
					<g>
						<path class="st3" d="M2348.4,1618.6c0.2-0.6-2.7-1.1-2.9-1.7s3.7-0.7,3.9-1.2c0.3-1-4.3-0.2-4.2-0.7s4.7-1.5,4.2-2.3
							c-0.5-0.8-4.7,1.6-4.8,1s4.1-1.9,4-3c0-0.6-6.9,3.2-7.7,2.8s0.8-3.3,0.2-3.7c-0.6-0.4-2.4,6-2.9,6.2c-0.4,0.2-9.7,5.5-13,6.4
							c-0.4-1.1-3.3-6.9-3.7-7.9c-1.8,1.3-4,1.6-5.9,2.8c1.4,3.4,6.2,11.9,7.1,12.3c2.9,1.3,14.3-8.1,16.5-9.7
							c2.3-1.6,3.6-1.1,5.1-1.6C2346,1617.8,2348.2,1619.2,2348.4,1618.6z"/>
						<path class="st5" d="M2319,1590.6c0.1-3.3-0.4-6.5-1.8-9.6c-1.3-2.6-4.4-4.1-7.3-4.1c-9.1,0-10.3,11.9-16.1,16.6
							c-1.8,1.4-3.8,2.6-5.4,4.1c-6.2,5.6-3.4,16,2.3,20.9c3.9,3.4,10.1,5.4,15,2.7c2.5-1.4,4.5-3.7,5.8-6.2
							c1.9-3.6,3.2-7.8,4.6-11.6C2317.6,1599.2,2318.8,1594.9,2319,1590.6z"/>
						<path class="st17" d="M2316.3,1621.4c0,0-6.8-6.9-8.5-9.9c-1.8-3,1.2-1.1,4.2-1.8c1.1-0.3,0.9-6.9,3-4.8c3.5,3.5,8,9.7,8,9.7
							L2316.3,1621.4z"/>
						<path class="st18" d="M2306.6,1601.8c0,0-6.1-1.2-8.9,1.1c-2.8,2.3,0.6,22.9,0.6,26.3c0,3.4-1.9,13-1.9,13s7.9-0.1,22.2,0.4
							c0,0,0.1-21.8,0-24.2c-0.1-2.5-2.9-12.5-3.6-13.6C2314.2,1603.8,2306.6,1601.8,2306.6,1601.8z"/>
						<path class="st1" d="M2306.6,1592.4c0,0,0,0.2-0.1,0.5c-0.3,1.5-1.3,6.4-2.1,7.7c-0.9,1.6,3,6.8,6.7,6.2
							c1.1-0.2-0.9-4.8-0.8-5.3c0.2-0.9,0.4-2.2,0.7-3.5c0.1-0.7,0.3-1.5,0.4-2.2c0.4-2,0.7-3.6,0.7-3.6L2306.6,1592.4z"/>
						<path class="st18" d="M2306.5,1592.9c0.1-0.3,0.1-0.5,0.1-0.5l5.6-0.1c0,0-0.3,1.6-0.7,3.6c-0.1,0.7-0.3,1.4-0.4,2.2
							c-0.9-0.1-1.8-0.5-2.6-1.3c-1-0.8-1.6-1.9-2-3C2306.4,1593.4,2306.4,1593.1,2306.5,1592.9z"/>
						<path class="st1" d="M2310.3,1579.9c0,0-2.6-0.3-4.3,1.8c-1.6,2.1-3.4,8.6,0.7,12.2s8.1-0.5,8.7-4.7
							C2316,1584.9,2316.2,1579.8,2310.3,1579.9z"/>
						<path class="st1" d="M2316.6,1589.1c-0.5,0.9-1.3,1.5-1.8,1.2s-0.5-1.3-0.1-2.2c0.5-0.9,1.3-1.5,1.8-1.2
							S2317.1,1588.1,2316.6,1589.1z"/>
						<path class="st5" d="M2310.6,1579.2c0,0-3.5,6.2-6,6.5c-2.5,0.3-2.8,3.6-2.8,3.6s0.9-7.6,3.4-9
							C2307.6,1578.8,2310.6,1579.2,2310.6,1579.2z"/>
						<path class="st1" d="M2305.3,1587.2c0.2,1.1-0.2,2.1-0.9,2.3s-1.4-0.6-1.6-1.7c-0.2-1.1,0.2-2.1,0.9-2.3
							C2304.3,1585.4,2305,1586.1,2305.3,1587.2z"/>
						<path class="st9" d="M2311.9,1591.5l-3.8-0.2c0,0,0,1.5,1.7,1.6C2311.8,1593.1,2311.9,1591.5,2311.9,1591.5z"/>
						<path class="st9" d="M2311.9,1591.5l-3.8-0.2c0,0,0,1.5,1.7,1.6C2311.8,1593.1,2311.9,1591.5,2311.9,1591.5z"/>
						<path class="st1" d="M2333.6,1621.5c0.2-0.6-2.7-1.1-2.9-1.7c-0.2-0.6,3.7-0.7,3.9-1.2c0.3-1-4.3-0.2-4.2-0.7
							c0.1-0.5,4.7-1.5,4.2-2.3c-0.5-0.8-4.7,1.6-4.8,1c-0.1-0.5,4.1-1.9,4-3c0-0.6-6.9,3.2-7.7,2.8s0.8-3.3,0.2-3.7
							c-0.6-0.4-2.4,6-2.9,6.2c-0.4,0.2-9.7,5.5-13,6.4c-0.4-1.1-3.3-6.9-3.7-7.9c-1.8,1.3-4,1.6-5.9,2.8c1.4,3.4,6.2,11.9,7.1,12.3
							c2.9,1.3,14.3-8.1,16.5-9.7c2.3-1.6,3.6-1.1,5.1-1.6C2331.2,1620.8,2333.4,1622.1,2333.6,1621.5z"/>
						<path class="st17" d="M2300,1621.2c0,0-4-8.8-4.6-12.2c-0.6-3.4,2.3-7.7,5.4-7.4s7.7,15.5,7.7,15.5L2300,1621.2z"/>
					</g>
				</g>
				<rect x="2270" y="1664.1" class="st12" width="3.4" height="45"/>
				<rect x="2434.1" y="1664.1" class="st12" width="3.4" height="45"/>
			</g>
			<g>
				<rect x="2505.2" y="1612.8" class="st12" width="3.1" height="45.6"/>
				<rect x="2656.2" y="1612.8" class="st12" width="3.1" height="45.6"/>
				<g>
					<path class="st13" d="M2667.5,1606.5H2497c-1.3,0-2.3,1-2.3,2.3v4.4c0,1.3,1,2.3,2.3,2.3h170.4c1.3,0,2.3-1,2.3-2.3v-4.4
						C2669.8,1607.5,2668.7,1606.5,2667.5,1606.5z"/>
					<path class="st13" d="M2667.5,1619.3H2497c-1.3,0-2.3,1-2.3,2.3v4.4c0,1.3,1,2.3,2.3,2.3h170.4c1.3,0,2.3-1,2.3-2.3v-4.4
						C2669.8,1620.4,2668.7,1619.3,2667.5,1619.3z"/>
					<path class="st13" d="M2667.5,1632.2H2497c-1.3,0-2.3,1-2.3,2.3v4.4c0,1.3,1,2.3,2.3,2.3h170.4c1.3,0,2.3-1,2.3-2.3v-4.4
						C2669.8,1633.3,2668.7,1632.2,2667.5,1632.2z"/>
				</g>
				<path class="st13" d="M2670.6,1661.9h-176.8v-1.3c0-3.1,2.6-5.7,5.7-5.7h165.4c3.1,0,5.7,2.6,5.7,5.7L2670.6,1661.9
					L2670.6,1661.9z"/>
				<path class="st12" d="M2670.9,1660.9h-177.7c-0.7,0-1.3,0.6-1.3,1.3v0.6c0,0.7,0.6,1.3,1.3,1.3h177.7c0.7,0,1.3-0.6,1.3-1.3
					v-0.6C2672.2,1661.5,2671.6,1660.9,2670.9,1660.9z"/>
				<rect x="2499.2" y="1664.1" class="st12" width="3.4" height="45"/>
				<rect x="2663.3" y="1664.1" class="st12" width="3.4" height="45"/>
			</g>
			<g>
				<rect x="1233" y="1612.8" class="st12" width="3.1" height="45.6"/>
				<rect x="1384" y="1612.8" class="st12" width="3.1" height="45.6"/>
				<g>
					<path class="st13" d="M1395.3,1606.5h-170.4c-1.3,0-2.3,1-2.3,2.3v4.4c0,1.3,1,2.3,2.3,2.3h170.4c1.3,0,2.3-1,2.3-2.3v-4.4
						C1397.6,1607.5,1396.6,1606.5,1395.3,1606.5z"/>
					<path class="st13" d="M1395.3,1619.3h-170.4c-1.3,0-2.3,1-2.3,2.3v4.4c0,1.3,1,2.3,2.3,2.3h170.4c1.3,0,2.3-1,2.3-2.3v-4.4
						C1397.6,1620.4,1396.6,1619.3,1395.3,1619.3z"/>
					<path class="st13" d="M1395.3,1632.2h-170.4c-1.3,0-2.3,1-2.3,2.3v4.4c0,1.3,1,2.3,2.3,2.3h170.4c1.3,0,2.3-1,2.3-2.3v-4.4
						C1397.6,1633.3,1396.6,1632.2,1395.3,1632.2z"/>
				</g>
				<path class="st13" d="M1398.4,1661.9h-176.8v-1.3c0-3.1,2.6-5.7,5.7-5.7h165.4c3.1,0,5.7,2.6,5.7,5.7V1661.9z"/>
				<path class="st12" d="M1398.7,1660.9H1221c-0.7,0-1.3,0.6-1.3,1.3v0.6c0,0.7,0.6,1.3,1.3,1.3h177.7c0.7,0,1.3-0.6,1.3-1.3v-0.6
					C1400,1661.5,1399.4,1660.9,1398.7,1660.9z"/>
				<rect x="1227" y="1664.1" class="st12" width="3.4" height="45"/>
				<rect x="1391.1" y="1664.1" class="st12" width="3.4" height="45"/>
			</g>
			<g>
				<rect x="990.5" y="1612.8" class="st12" width="3.1" height="45.6"/>
				<rect x="1141.5" y="1612.8" class="st12" width="3.1" height="45.6"/>
				<g>
					<path class="st13" d="M1152.7,1606.5H982.3c-1.3,0-2.3,1-2.3,2.3v4.4c0,1.3,1,2.3,2.3,2.3h170.4c1.3,0,2.3-1,2.3-2.3v-4.4
						C1155,1607.5,1154,1606.5,1152.7,1606.5z"/>
					<path class="st13" d="M1152.7,1619.3H982.3c-1.3,0-2.3,1-2.3,2.3v4.4c0,1.3,1,2.3,2.3,2.3h170.4c1.3,0,2.3-1,2.3-2.3v-4.4
						C1155,1620.4,1154,1619.3,1152.7,1619.3z"/>
					<path class="st13" d="M1152.7,1632.2H982.3c-1.3,0-2.3,1-2.3,2.3v4.4c0,1.3,1,2.3,2.3,2.3h170.4c1.3,0,2.3-1,2.3-2.3v-4.4
						C1155,1633.3,1154,1632.2,1152.7,1632.2z"/>
				</g>
				<path class="st13" d="M1155.9,1661.9H979.1v-1.3c0-3.1,2.5-5.7,5.7-5.7h165.4c3.1,0,5.7,2.6,5.7,5.7V1661.9z"/>
				<path class="st12" d="M1156.2,1660.9H978.5c-0.7,0-1.3,0.6-1.3,1.3v0.6c0,0.7,0.6,1.3,1.3,1.3h177.7c0.7,0,1.3-0.6,1.3-1.3v-0.6
					C1157.5,1661.5,1156.9,1660.9,1156.2,1660.9z"/>
				<rect x="984.5" y="1664.1" class="st12" width="3.4" height="45"/>
				<rect x="1148.6" y="1664.1" class="st12" width="3.4" height="45"/>
			</g>
			<g>
				<path class="st1" d="M1275,1694.6c0,0-0.3,5.1-0.3,5.2c-0.1,0.7-0.6,2.3-0.6,2.9c0,2.2,10.6-1.9,8.2-2.9
					c-0.2-0.1-1.3-0.8-1.4-1.5c-0.1-1.2-0.4-3.5-0.4-3.5L1275,1694.6z"/>
				<path class="st17" d="M1282.3,1699.7c0,0-2.5,0.7-3.8,0.9c-1.3,0.2-3-1.3-3.9-0.9c-1,0.4-1,4.3-1,4.3s13.3,1.1,17.1,0
					C1292.3,1703.5,1287.4,1701.3,1282.3,1699.7z"/>
				<path class="st1" d="M1293,1694.6c0,0-0.3,5.1-0.3,5.2c-0.1,0.7-0.6,2.3-0.6,2.9c0,2.2,10.6-1.9,8.2-2.9
					c-0.2-0.1-1.8-0.4-1.9-1.1c-0.1-1.2-0.3-4.8-0.3-4.8L1293,1694.6z"/>
				<path class="st17" d="M1300.3,1699.7c0,0-2.5,0.7-3.8,0.9c-1.3,0.2-3-1.3-3.9-0.9c-1,0.4-1,4.3-1,4.3s13.3,1.1,17.1,0
					C1310.3,1703.5,1305.4,1701.3,1300.3,1699.7z"/>
				<path class="st5" d="M1258.9,1639.4l25.3,0.1c0,0,11.4-0.3,13.2,3.7s1.4,54.2,1.4,54.2s-6.1,0.9-6.4,0.6l-6.9-30.1
					c-0.7-2.5-1-5.2-0.7-7.9l0.7-7l-10.4,0.5c0,0-11.8-0.2-15.7-4.1C1255.4,1645.5,1258.9,1639.4,1258.9,1639.4z"/>
				<path class="st4" d="M1241.7,1636.6l27.2,1.7c0,0,11.7,1,13.5,4.9c1.8,4-1.2,54.6-1.2,54.6s-6.8,0.4-6.8,0.1
					c0-0.4-2.8-23.2-4.3-30.4c-0.5-2.3-0.7-4.7-0.5-7l1-5.7c0,0-24.6,1.3-25.8,0C1240.9,1650.9,1241.7,1636.6,1241.7,1636.6z"/>
				<polygon class="st19" points="1272.2,1608.3 1264.9,1608.6 1264.9,1615.7 1272.3,1615.2 				"/>
				<path class="st20" d="M1265.7,1611.7c0,0-6.3-4.6-8.2-7.9c-1.9-3.3,1.3-1.2,4.6-2c1.2-0.3,0.9-7.6,3.3-5.3
					c3.9,3.9,7,11.6,7,11.6L1265.7,1611.7z"/>
				<path class="st2" d="M1256.3,1593.2c0,0-7-1.7-10.5,2c-2.7,2.9-4.7,47.1-4.7,47.1s23.5-1,26.7-6.6c0,0,1.5-21.5,1.4-24.2
					s-3.1-13.7-3.9-14.9C1264.6,1595.4,1256.3,1593.2,1256.3,1593.2z"/>
				<path class="st1" d="M1256.2,1583.5c0,0,0,0.2-0.1,0.5c-0.3,1.6-1.5,7-2.3,8.5c-1,1.8,3.3,7.5,7.3,6.8c1.2-0.2-1-5.3-0.9-5.8
					c0.2-1,0.5-2.4,0.8-3.9c0.2-0.8,0.3-1.6,0.5-2.4c0.4-2.2,0.8-4,0.8-4L1256.2,1583.5z"/>
				<path class="st18" d="M1256,1584.3c0.1-0.3,0.1-0.5,0.1-0.5l6.1-0.2c0,0-0.4,1.8-0.8,4c-0.2,0.8-0.3,1.6-0.5,2.4
					c-0.9-0.1-1.9-0.6-2.9-1.5c-1.1-0.9-1.8-2.1-2.2-3.3C1255.9,1584.9,1256,1584.6,1256,1584.3z"/>
				<g>
					<path class="st1" d="M1298,1610.4c0,0-0.2-0.8,0.3-2.2c0.4-0.9,0.3-2.6,0.8-2.3c0.5,0.3,0,1.9,0.4,1.7s1.8-3.3,2.2-3
						s-1,3.2-0.6,3.1c0.4-0.1,1.4-2.9,2.1-2.5c0.7,0.4-1.5,3.2-1.2,3.4c0.3,0.2,1.7-1.6,2.2-1.3c0.5,0.3-1.9,2.4-1.7,2.3
						c0.2-0.1,1.8-0.7,1.9-0.4c0.1,0.4-3.2,1.8-3.5,2.6c-0.3,0.8-5.4,9-7.1,9.2c-1.7,0.2-9.8-4.1-10.5-5.7c-0.7-1.6-0.2-3.4,0.8-3.8
						c1.1-0.3,8.7,4,9,3.9C1293.7,1615.3,1298,1610.4,1298,1610.4z"/>
					<path class="st3" d="M1299.5,1607.4c0.2,0.2,0.3,0.5,0.4,0.7c0,0,0.4,0.9-0.2,1.7C1299.9,1609.3,1300,1608.6,1299.5,1607.4z"/>
					<path class="st1" d="M1273.4,1650.2c0.7,0.6,2.9,1.2,2.9,1.2c-0.4,2.5-2.5,8.6-2.5,8.6s-0.9-0.4-0.9-1.1
						c-0.1-0.7-0.4-4.1-1.5-5.1c-0.3-0.3-3.6-3.2-6.2-5.9c0.9-1.1,3.9-1.3,4.6-2.4C1271.2,1646.8,1273.2,1650,1273.4,1650.2z"/>
					<path class="st2" d="M1274.5,1650.8c0,0-1.4,5-1.8,5.6c-0.3,0.5,0.3,5.3,1,5.2s4.4-8.6,4.2-9.5S1274.5,1650.8,1274.5,1650.8z"
						/>
					<path class="st1" d="M1268.7,1658.8c0.3,0.8,1.9,2.4,1.9,2.4c-1.6,1.9-6.7,5.9-6.7,5.9s-0.6-0.8-0.2-1.4c0.3-0.6,2-4.6,1.5-6
						c-0.1-0.4-1.1-3-2-4.6c1.4-0.4,2.7-1.1,4-1.7C1267.8,1655.3,1268.6,1658.5,1268.7,1658.8z"/>
					<path class="st17" d="M1269.2,1630c0,0-9.4,9.3-10.4,11.1c-0.7,1.3,3.6,15.2,3.6,15.2s4.1-0.3,5.8-2c0,0-2.2-9.6-1.7-10.1
						s11.2-6.7,11.2-6.7l-1.3-5.7L1269.2,1630z"/>
					<path class="st18" d="M1279.5,1624c0,0-3.8,5-5.7,6.1c-1.5,0.8-13.8,7-13.1,10.8c0.4,2.2,6.1,10,6.1,10l5-3.8
						c0,0-2.9-3.7-2.7-4.2c0.1-0.5,11.1-2.1,13.8-4.6s1-9.7,1-9.7L1279.5,1624z"/>
					<path class="st21" d="M1276.5,1609c0,0-3.1-0.4-4.3-0.8c-1.1-0.4-8.6,24.1-6,24.6c5.4,1.2,17.6,3.8,17.6,3.8s2-4.7,0.9-9.7
						c-1-4.5-1.3-7.1-1.3-8.8l4.8,2.2l2.2-7.8c0,0-6.6-2.6-8.9-3.1C1281,1609.3,1276.5,1609,1276.5,1609z"/>
					<path class="st2" d="M1269.2,1659.7c0,0-4.1,3.7-4.8,4.1c-0.6,0.3-2,4.7-1.2,5c0.8,0.2,8.4-5.2,8.7-6.1
						C1272.1,1661.7,1269.2,1659.7,1269.2,1659.7z"/>
					<g>
						<path class="st13" d="M1276.5,1592.7c0,0-2.5-0.9-4.1,1.6s-0.7,2.3-1.5,3.5s-2.8,1-2.8,3s0.9,2.3,0.9,2.3s-0.8,1.5,0.1,3.1
							c0.9,1.6,3.2,2.9,5.1,2.7c0,0,2.9,1.6,5.7,0.8c2.9-0.7,1.9-0.7,3-0.7c1.2,0,4.3-1.6,3.8-3.9c0,0,1.9-2.3,0.1-4.2
							c-1.9-1.9-2.2-3.8-3.3-6.3C1282.4,1592,1277.8,1592.1,1276.5,1592.7z"/>
					</g>
					<path class="st1" d="M1274.8,1606.1c0,0,0.1,3.5-0.2,3.8c-0.3,0.3-0.8,0.9-0.3,1.7s2.6,0.3,3.5-0.2c0.9-0.5,1.5-1.3,1.5-1.3
						l-0.5-5.5L1274.8,1606.1z"/>
					<path class="st18" d="M1276.2,1607.5c0.7-0.2,1.8-0.7,2.7-2.1l-0.1-0.8l-4,1.5c0,0,0,0.8,0,1.7
						C1275.4,1607.8,1275.9,1607.6,1276.2,1607.5z"/>
					<path class="st1" d="M1279.5,1600.7c0,0,0.1-2,1.3-1.6c1.2,0.4,0.3,3.5-0.7,3.4C1279.1,1602.3,1279.5,1600.7,1279.5,1600.7z"/>
					<path class="st1" d="M1275.6,1594c0,0-2,0-3,1.5c-1,1.5-2.1,5.9-0.4,8.9s3.8,2.3,4.6,2c0.9-0.3,2.6-1,3.5-3.8
						S1280.6,1593.5,1275.6,1594z"/>
				</g>
				<g>
					<path class="st14" d="M1276.1,1617.3c0.2-0.3,0.2-0.9,1.3-3c0.3-0.6,1.2-1.1,1.2-1.1s1-0.6,1.3-0.4c0.2,0.2,0.2,0.6,0,0.8
						s-0.6,0.4-0.7,0.6s-0.1,0.9,0.1,1.2c0.1,0.2,3.1-1.7,3.1-1.7s0.8-0.6,1.1-0.8c0.2-0.2,0.8-0.8,0.8-0.8s0.9-0.8,1.2-0.5
						c0.1,0.2-0.5,1.2-1.2,2c-0.8,0.9-1.8,1.6-1.7,1.8c0.2,0.2,1.8-0.8,1.8-0.8s0.7-0.7,1.1-0.8c0.3-0.5,1.1-1.1,1.4-0.7
						c0,0.1-0.8,1.2-0.8,1.2s-0.7,0.6-1,0.9c-0.5,0.6-1.5,1.1-1.9,1.4c-0.3,0.3-0.1,0.3-0.1,0.3c0,0,0.5-0.3,1.1-0.7
						c0.3-0.2,0.8-0.4,1.1-0.7c0.3-0.3,0.8-0.6,1.1-0.8c0.9-0.5,1,0.1,0.3,0.8c-0.3,0.2-0.6,0.5-0.9,0.8c-1.2,1-2.5,1.7-2.4,1.8
						c0.1,0.2,2.4-1.1,2.4-1.1s1.4-0.4,0.4,0.6c-1.2,1.1-2.4,1.6-2.5,1.6c-0.4,0.1-1.5,1-2.8,1.3c-1,0.2-2.4,0.5-3.1,0.6
						L1276.1,1617.3z"/>
					<path class="st1" d="M1249.8,1612.9l6.8-1.3c0,0,1.6,5.6,1.9,6.2c0,0,12.7,0,17.7-0.5l1.8,3.7c-1,0.1-1.8,0.2-2.3,0.2
						c-0.9,0.2-15.6,3-15.6,3s-5.9,0.9-6.6,0C1252.7,1623.3,1249.8,1612.9,1249.8,1612.9z"/>
				</g>
				<path class="st20" d="M1250.1,1619c0,0-6.3-14.5-6.4-18.5c-0.1-4.1,4-8.5,7.5-7.6c3.5,0.9,7.6,22.4,7.6,22.4L1250.1,1619z"/>
				<path class="st9" d="M1276.4,1603l-3-0.2c0,0,0,1.2,1.3,1.3C1276.4,1604.3,1276.4,1603,1276.4,1603z"/>
				<g>
					<g>
						<path class="st1" d="M1258.3,1571.9c-0.2-0.1-3.9,9.1-2.1,12.3c1.8,3.2,6.3,5.3,8.5,3.7c2.5-1.8,5-12.1,1.9-15.7
							C1263.5,1568.5,1258.3,1571.9,1258.3,1571.9z"/>
						<path class="st22" d="M1266.4,1566.7c-3.1-0.2-5.4,1.1-6.3,1.7c-1.4-0.2-3.4,0.1-6,2.7c-3.3,3.2-2.7,7.8-0.5,10.6
							c2.1,2.8,2,4.9,2,4.9s1.2-2.7,1.3-3.7c0.1-0.6,0.1-1.3,0-1.9c-0.3-1.5,2-1.9,2.8-2.9c0.7-0.8,1.2-2.8,2.3-4.1l1.1-0.9
							c0,0,2.3-1,4-0.1C1268.8,1573.9,1270.4,1566.9,1266.4,1566.7z"/>
						<path class="st1" d="M1259.1,1579.8c-0.3,1.2-1.1,2-1.7,1.8s-1-1.2-0.7-2.4c0.3-1.2,1.1-2,1.7-1.8
							C1259.1,1577.5,1259.4,1578.6,1259.1,1579.8z"/>
					</g>
					<path class="st9" d="M1262.4,1583.5l3.7,0.8c0,0-0.4,1.4-2,1.1C1262.1,1585,1262.4,1583.5,1262.4,1583.5z"/>
				</g>
			</g>
			<g>
				<path class="st3" d="M1336,1620.6c-0.3-0.4,2-1.5,2-2.1c0-0.5-3.2,0.3-3.4-0.1c-0.4-0.8,3.4-1.1,3.3-1.5
					c-0.2-0.4-4.1-0.2-3.9-0.9c0.2-0.8,4.1,0.2,4.1-0.2s-3.7-0.6-3.9-1.6c-0.1-0.5,6.3,1,6.9,0.6c0.6-0.5-1.4-2.5-1-3
					s3.2,4.4,3.7,4.5c0.4,0.1,9,2.3,11.9,2.3c0.1-1,1.2-6.4,1.3-7.4c1.8,0.7,3.6,0.4,5.4,1c-0.4,3.2-2.5,11.2-3.2,11.8
					c-2.1,1.7-13.3-3.4-15.5-4.2c-2.2-0.8-3.1-0.1-4.5-0.2C1337.8,1619.4,1336.3,1621.1,1336,1620.6z"/>
				<path class="st1" d="M1333.6,1691.2c0,0-0.5,5.9-0.2,7.9c0,0.3,0.2,0.6,0.3,0.9c0.4,1.1-0.6,4.4-0.6,4.4l-13.5,0.1
					c-0.7,0-0.2-0.5,0.4-0.9c1-0.7,1.8-1.2,4.9-2.6c0.2-0.1,0.9-0.6,1.2-0.7c0.7-0.4,1.4-1,2-1.7c1-1.1,1.1-6.3,1.1-6.3
					L1333.6,1691.2z"/>
				<path class="st1" d="M1318.3,1681.3c0,0-3,5.2-3.4,7.1c-0.1,0.3-0.1,0.6-0.1,1c-0.1,1.1-2.4,3.7-2.4,3.7l-12.3-5.6
					c-0.7-0.3,0-0.5,0.7-0.7c1.2-0.2,2.1-0.3,5.5-0.4c0.2,0,1.1-0.1,1.4-0.1c0.8-0.1,1.7-0.4,2.5-0.7c1.3-0.6,3.6-5.3,3.6-5.3
					L1318.3,1681.3z"/>
				<path class="st5" d="M1361.6,1586.2c0.5-3.6,3.7-6.7,7.2-7.8c11-3.7,17.2,10.1,26,13.2c2.7,0.9,5.5,1.5,8,2.6
					c0.4,1.2,0.6,2.4,0.6,3.6c-0.1,1.3-0.3,2.6-0.6,3.8l-3.5-0.7l2.5,3.3c-1.7,3.6-4.6,6.8-7.4,9.9c-3.9,4.2-8.7,7-13.8,8.9
					c-3.2-3.3-6.1-7.2-8.9-10.7c-3.4-4.3-6.6-8.8-8.5-13.9C1361.7,1594.5,1361,1590.4,1361.6,1586.2z"/>
				<path class="st17" d="M1307.6,1686.4c2.8,2.4,5.5,2.9,7.1,3c-0.1,1.1-1,4.8-1.4,4.6c-3.1-1.4-6-2-14.7-6.2
					c-0.3-0.1,0.2-1.2,0.5-1.4C1300,1686,1307.3,1686.4,1307.6,1686.4z"/>
				<path class="st23" d="M1362.7,1602c-5.3,1.8-7.8,14.4-7.8,14.4s8.3,2.3,10.4,1.1c0,0,2.4-10.7,3.3-10.3L1362.7,1602z"/>
				<path class="st18" d="M1368.3,1600.2L1368.3,1600.2L1368.3,1600.2c-0.1,0-4.2,1.2-5.9,1.9c-2,0.9-3.1,7.5-2.9,15.7
					c0.1,1.3,1,20.6,1.1,20.7c2.4,1.6,16.8,2.3,17.9,1s1.8-24.3,2.3-25.1l0.7-9.7c0,0-0.5-2.7-1.1-2.8
					C1377.2,1601.3,1370.5,1600.2,1368.3,1600.2z"/>
				<path class="st1" d="M1374.2,1595.1c0,0-0.9,4.9-0.8,6.8c0.2,1.9-0.7,8.1-4.8,8.1s-0.8-7.9-0.4-9.7s0.5-7.7,0.5-7.7
					L1374.2,1595.1z"/>
				<path class="st18" d="M1368.6,1595.4c0.1-1.6,0.1-2.9,0.1-2.9l5.4,2.5c0,0-0.2,1-0.4,2.3
					C1371.4,1597.8,1369.7,1596.9,1368.6,1595.4z"/>
				<path class="st1" d="M1372.1,1580.9c0,0,2.4,0.4,3.9,2.6s2.7,8.6-1.9,11.8c-4.7,3.2-8.5-1-8.7-5.1S1365.9,1580.4,1372.1,1580.9z
					"/>
				<path class="st1" d="M1364.2,1588.9c0.4,1,1.3,1.6,1.8,1.3c0.6-0.3,0.7-1.3,0.2-2.3s-1.3-1.6-1.8-1.3
					S1363.8,1587.9,1364.2,1588.9z"/>
				<path class="st5" d="M1371.4,1580.8c0,0,3.2,6.6,5.9,7.1c2.6,0.5,2.7,3.9,2.7,3.9s-0.3-7.8-2.9-9.5
					C1374.6,1580.6,1371.4,1580.8,1371.4,1580.8z"/>
				<path class="st1" d="M1376.3,1589.3c-0.3,1.1,0,2.2,0.8,2.4c0.7,0.2,1.6-0.5,1.9-1.6c0.3-1.1,0-2.2-0.8-2.4
					S1376.6,1588.2,1376.3,1589.3z"/>
				<path class="st5" d="M1360.4,1637.1v3l-28.7,6l-7.1,21.4l4-2.7l-0.9,32.9l6,0c0,0,10.4-27.6,7-41.5l31.7,0.5
					c0,0,14.4-5.6,7-22.3L1360.4,1637.1z"/>
				<path class="st8" d="M1360.4,1640.2c0,0-29.7,0.2-31.8,1.8c-2.1,1.6-18,42-18,42l6.9,2.6c0,0,13.8-22.9,14.5-24.6
					c0.7-1.6,6.1-13.6,8.1-14.8C1342.1,1646,1360.4,1640.2,1360.4,1640.2z"/>
				<path class="st14" d="M1384,1608.8l-5,4.2l4.9,8c-2.3,1.4-15.2,3.7-15.3,3.8l0.4,3c0,0,17.6,0.8,20.2-3.4
					C1391.6,1620.8,1384,1608.7,1384,1608.8z"/>
				<path class="st1" d="M1371.2,1627.8l-1.4-3.3c-0.4,0-3,0.1-3.1,0.1c-0.2-0.1-2.5-1.6-3.5-1.9c-0.3-0.1-1.2-0.2-1.3,0
					s0,0.5,0.2,0.6s0.4,0.2,0.6,0.3c0.2,0.1,0.8,0.4,0.8,0.7c0,0.3-3.3,0.2-3.3,0.2s-1-0.1-1.3-0.1c-0.3,0-1.1-0.2-1.1-0.2
					s-1.3-0.2-1.4,0.2c-0.1,0.4,4.3,1.3,4.3,1.5c0,0.3-1.8,0.3-1.8,0.3s-0.9-0.2-1.3-0.2c-0.5-0.2-1.5-0.2-1.5,0.2
					c0,0.1,1.3,0.5,1.3,0.5s0.8,0.2,1.2,0.3c0.7,0.2,1.7,0.1,2.2,0.2c0.4,0.1,0.2,0.2,0.3,0.2c0,0-0.5,0-1.2,0c-0.4,0-0.8,0.1-1.2,0
					c-0.4-0.1-0.9-0.1-1.3-0.1c-0.9,0-0.8,0.6,0.1,0.7c0.3,0.1,0.7,0.1,1.1,0.2c1.4,0.2,2.8,0.1,2.8,0.3c0,0.2-2.4,0.3-2.4,0.3
					s-1.3,0.4,0,0.6c1.5,0.2,2.7,0,2.8,0c0.4-0.1,1.6,0.1,2.8-0.3C1366,1628.4,1371,1627.8,1371.2,1627.8z"/>
				<path class="st18" d="M1380.3,1602c4.9,2,8.3,14.4,8.3,14.4s-8.3,2.3-10.4,1.1c0,0-2.4-10.7-3.3-10.3L1380.3,1602z"/>
				<path class="st17" d="M1326,1699.7c3.6,1,6.2,0.4,7.7-0.2c0.4,1.1,1.1,4.7,0.6,4.7c-3.4,0-6.3,0.6-16,0.5
					c-0.3,0-0.3-1.2-0.1-1.5C1318.9,1702.6,1325.7,1699.9,1326,1699.7z"/>
				<path class="st9" d="M1368.1,1592.5l3.7,0.4c0,0-0.2,1.4-1.9,1.3C1367.9,1594,1368.1,1592.5,1368.1,1592.5z"/>
			</g>
			<path class="st24" d="M1026.8,1626.2l0.3,19.5l8.5,2.5l-1-13.6l0.5-9c0,0-6.5-1.7-6.7-1.4
				C1028.2,1624.4,1026.8,1626.2,1026.8,1626.2z"/>
			<path class="st8" d="M1028.7,1605.7c0.4,0,1.4,0.4,2.9,3.2c1.9,3.7,2.9,18.1,2.9,18.1l-6.6-0.3l-1.1-2.3l-1.8-17.7
				C1025.1,1606.7,1028.6,1605.7,1028.7,1605.7z"/>
			<path class="st20" d="M1017.5,1604.1c2.4,0,8.4,0.7,11.2,1.6c0,0,5.4,18.5,1.5,31.8c-0.9,3-0.8,12-0.8,12l-28-1.3
				c0,0,4.1-22.3,3-25.9s-1.1-16.4-1.1-16.4s0.2,0,5.6-1C1011.4,1604.4,1014.9,1604.1,1017.5,1604.1z"/>
			<path class="st4" d="M1023.5,1646.8c0,0,14.9-2.2,19,0.1c4.1,2.3-4.4,13-4.4,13s-11.4-0.8-14.8-0.7c-3.3,0-13.6,0.9-19.5,0
				c-5.9-0.9-5.3-10.9-4.1-12.2S1023.5,1646.8,1023.5,1646.8z"/>
			<path class="st1" d="M1028.9,1700.5c0,0-0.6,2.8,0.7,4.5c1.3,1.8,6.5,3.4,7.2,4.3c0.7,1,0.7,1.8,0.7,1.8l-14.5,0l0-5.4l0.6-3.9
				L1028.9,1700.5z"/>
			<path class="st22" d="M1030.5,1705.9c0,0-3.7,2-5.5,1c-1.8-1-1.8-1.3-2.3-0.9c-0.5,0.4-0.6,5.5-0.6,5.5h16.3
				c1.1-0.1,1.7-1.1,0.7-2c-0.6-0.6-1.4-1-1.8-1.2C1036,1707.4,1030.5,1705.9,1030.5,1705.9z"/>
			<path class="st15" d="M1034,1651.2c1.4-2.7,4.8-6.7,9-3.9c4.1,2.7,3,11.3,1.2,16.5c-1.8,5.3-13.3,36.1-13.9,40.4l-7.1-0.8
				c0,0,3.4-25.1,4.2-31.2C1028.2,1666.4,1031.7,1656,1034,1651.2z"/>
			<path class="st1" d="M1013.1,1692.4c0,0,0.6,8.2,1.6,10.5c1.1,2.3-0.1,6.1-0.1,6.7c-0.1,0.5-2.2,1.3-5.7,0.8s-3.4-1.4-3.1-3
				s2.1-3.6,2.2-5.2c0.1-1.5-1.1-7-1.1-7L1013.1,1692.4z"/>
			<path class="st22" d="M1008.5,1711.5c-3.6-0.5-3.1-2.6-2.8-4.3c0.2-1,1.2-2.2,1.8-3.4c0.3,0.3,0.8,0.9,2.4,1.4
				c1.6,0.6,3.8-0.6,5.2-1.3c0.5,2.3,0.5,5.2,0.5,5.7C1015.5,1710.2,1012.1,1712,1008.5,1711.5z"/>
			<path class="st15" d="M1010.6,1662c0.7,6.7,4.3,40.2,4.3,40.2l-8.3,1.3c0,0-10.2-43.6-9.7-50.3c0.5-6.7,4.3-7.2,4.3-7.2
				S1008.7,1644.3,1010.6,1662z"/>
			<g>
				<g>
					<g>
						<path class="st5" d="M1015.5,1580.7c0,0-3.3-2.5-5.2,1.3c0,0-1.3-0.1-1.4-0.1c-0.8,0.2-1.5,0.8-2.2,1.1
							c-2.4,1.2-3.8,3.8-4.1,6.2c-0.4,2.9,0.7,5.2,2.6,7.5c0.6,0.7,1.2,1.3,2,1.8c0.9,0.6,1.8,0.2,2.7,0.5c0.8,0.2,1,1,1.9,0.8
							c1.3-0.3,2.8-1.7,4.4-1.3c1.6,0.3,5.4-0.7,5.4-0.7c4.9-1.3,2.5-10,1.8-13.1C1022.7,1581.9,1018.6,1579.9,1015.5,1580.7z"/>
						<path class="st1" d="M1018,1600.2l0.9,3.2l0.5,1.8c0,0,0.9,2-1.5,2.4c-4.5,0.7-6.1-2.8-6.1-2.8l-0.9-9.8L1018,1600.2z"/>
						<path class="st18" d="M1011.3,1598.1c1.8,3.2,5.3,4.8,7.7,5.3l-1-3.2l-7-5.3L1011.3,1598.1z"/>
						<path class="st1" d="M1013.4,1585c3-1.4,6.6,0.1,7.5,3c0.4,1.3,0.8,2.8,1.1,4.6c0.7,4.2-1.1,8.6-3.2,8.9s-8.3-1.8-9.3-7.8
							C1008.7,1590.1,1010.2,1586.4,1013.4,1585z"/>
						<path class="st1" d="M1011,1594.1c0.1,0.9-0.4,1.8-1.3,1.9s-1.6-0.6-1.7-1.5s0.4-1.8,1.3-1.9
							C1010.1,1592.4,1010.9,1593.1,1011,1594.1z"/>
					</g>
					<path class="st5" d="M1017.2,1596.3c0,0-2.8,0.6-3.1,1.5c-0.3,0.9-0.1,2.2,1.1,3.4c1.2,1.1,4.1,0.7,4.9,0.2s1.6-2.8,1-4.2
						C1020.5,1595.8,1017.2,1596.3,1017.2,1596.3z"/>
				</g>
				<path class="st1" d="M1016.1,1598.1c0,0-0.1,1,0.3,1.2c0.3,0.2,0.8,0.4,1.2,0.5c0.7,0.1,1.3-0.1,1.7-0.6c0,0,0.1-0.1,0.1-0.1
					c0.3-0.5,0.5-1.4,0.5-1.4s-1.1-0.3-1.8-0.3C1017.4,1597.5,1016.1,1598.1,1016.1,1598.1z"/>
			</g>
			<g>
				<path class="st25" d="M1033.7,1593.5c-0.3-0.1-0.4-0.5-0.4-1.2c0-0.6-0.8-1.8-1.6-3.1c-1.4-2.2-2.9-4.8-2.4-6.5
					c0.2-0.6,0.6-1.1,1.3-1.4c0.7-0.3,1.2-0.3,1.8,0.1c2.5,1.6,2.2,10.4,2.2,10.7l-0.1,0.3l0,0
					C1034.2,1593.4,1033.9,1593.5,1033.7,1593.5C1033.7,1593.5,1033.7,1593.5,1033.7,1593.5z M1034.1,1592.1c0.1-2.5-0.1-9-2-10.3
					c-0.4-0.2-0.8-0.3-1.3,0c-0.5,0.2-0.9,0.6-1,1.1c-0.5,1.5,1.1,4.1,2.4,6.1c0.9,1.5,1.6,2.6,1.6,3.4c0,0.2,0,0.3,0,0.4
					c0.1-0.1,0.2-0.3,0.2-0.5L1034.1,1592.1z"/>
			</g>
			<g>
				<path class="st25" d="M1034.2,1707.1c0.5,0,1-0.6,1-1.4l-0.1-112.2c0-0.8-0.4-1.4-1-1.4c-0.5,0-1,0.6-1,1.4l0.1,112.2
					C1033.2,1706.5,1033.7,1707.1,1034.2,1707.1z"/>
			</g>
			<path class="st18" d="M1033.2,1711.2l2.2,0c0.3,0,0.6-0.3,0.6-0.7l-0.3-4.7c0-0.4-0.3-0.6-0.6-0.6l-1.7,0c-0.3,0-0.6,0.3-0.6,0.6
				l-0.2,4.7C1032.5,1710.8,1032.8,1711.2,1033.2,1711.2z"/>
			<path class="st18" d="M1033.9,1606.5l0.6,0c0.7,0,1.3-0.6,1.3-1.3l-0.2-12.4c0-0.7-0.6-1.3-1.3-1.3l-0.6,0
				c-0.7,0-1.3,0.6-1.3,1.3l0.2,12.4C1032.6,1605.9,1033.2,1606.5,1033.9,1606.5z"/>
			<path class="st1" d="M1007.4,1623.2c0,0,0.2,7.2,0.4,8c0,0,14.1,3.1,20.3,3.9c0.1,0,0.2,0,0.2,0c0.1,0,0.3,0,0.4-0.1
				c0.5-0.7,1.2-1.3,2-1.8c0.9-0.6,1.9-1.2,3.1-0.6c0.4,0.2,0.8,0.2,1.2,0.3c0.6,0.1,1.1,0.3,1.6,0.6c0.5,0.3,0.6,0.8,0.4,1.4
				c-0.1,0.3-0.4,0.7-0.4,1c0,0.6-1.3,5.3-2.3,5.4c-0.5,0-3.3-0.5-4.1-0.9c-0.6-0.3-1.3-0.4-1.9-0.4c-0.1,0-0.3,0-0.4,0v0
				c-4.6-0.2-20-0.7-20-0.7s-7.4-0.7-7.9-1.9c-0.5-1.2-1-14.6-1-14.6L1007.4,1623.2z"/>
			<path class="st20" d="M998.4,1627.6c-0.4-8.9-0.4-19.8,4.6-21.7c2-0.7,5.4,3.7,4.8,21.9C1005.2,1628,1001.3,1628.2,998.4,1627.6z
				"/>
			<g>
				<path class="st26" d="M1096.7,1583.7c0,0-3.7,4.7-5.6,12.4s2.8,18,2.8,18l-3.2,6.7c0,0-1.6,15.6-1.3,18.6
					c0.2,3,1.3,40.8,1.3,40.8l6.4,1.4c0,0-1.8-39.4-1.6-40.1c0.2-0.8,3.9-50.5,3.9-50.5L1096.7,1583.7z"/>
				<path class="st27" d="M1089.2,1713.8c1-0.7,1.7-1.2,4.8-2.6c0.2-0.1,0.9-0.6,1.2-0.7c0.7-0.4,1.3-1,1.9-1.7
					c0.5-0.6,0.8-2.6,0.9-4.1c-0.3-3.5-5.4-59.3-6.4-65.4c-1.1-6.2,0.6-15.8,0.6-15.8l3.9-1.5l7.4,25.6l-0.6,19.5c0,0,1.7,5.6,2,9
					c0.2,3.4-2.5,30.6-2.5,30.6l0,0c0,1,0,1.9,0.1,2.4c0.2,1,1.3,3.1,0.8,4.1c-0.5,1-1.1,1.2-1.1,1.2l-13.3,0.2
					C1088.2,1714.7,1088.6,1714.2,1089.2,1713.8z"/>
				<path class="st27" d="M1109.4,1621.5c0,0,4.6,7,5.7,12.7s-0.8,23.5,1.3,31c1.1,4.1,5.5,10.4,6.1,15.7c0.7,5.3,3,20.5,3,20.5l0,0
					c0.3,1.6,0.9,3.6,1.6,4.5c0.4,0.6,1.2,1.3,1.7,2.3c0.8,1.6,0.4,3.9-0.2,5.2c-0.3,0.7,0,0.7-0.7,0.9c-2.1,0.6-4.2-0.4-5.1-2.4
					c-0.5-1.1-0.9-2.6-1-4.4c-0.1-2-0.4-3.5-0.7-4.7l0,0l-14.8-36.2l-10.7-31.2l-2.7-16.1L1109.4,1621.5z"/>
				<path class="st5" d="M1122.4,1710.9c3.2,0.6,5.3-1.3,6.4-2.7c0.8,1.6,1.2,4,0.6,5.3c-0.5,1.1-2.1,1.1-3.3,1.2
					c-1.3,0-2.3-0.7-2.9-1.8C1123,1712.3,1122.7,1711.7,1122.4,1710.9z"/>
				<path class="st5" d="M1095.2,1710.4c3.5,0.9,6.1,0.3,7.6-0.3c0.4,1.1,0.9,2.4,0.6,3.2c-0.3,0.9-0.8,1.2-1.2,1.2
					c-3.2,0.1-11.8,0.2-14.2,0.2c-0.3,0-0.5-0.4-0.3-0.7C1088.3,1713.3,1094.9,1710.6,1095.2,1710.4z"/>
				<path class="st18" d="M1106.4,1666.7c-0.3,0-0.6,0-0.8,0.1c0,0,0,0,0,0c-0.3,0-0.5,0-0.8,0c0,0,0,0-0.1,0c-0.3,0-0.6,0-0.8,0
					c0,0,0,0,0,0c-0.3,0-0.6,0-0.8,0c-3.2,0.1-7,0.1-9.5-0.4c-1.3-12.7-1.7-24.4-2.2-26.9c-1.1-6.2,1-16.1,1-16.1l1-0.2l-0.6-3.6
					l17.1,2.2c0,0,4.8,7,5.9,12.7c1.1,5.8-0.8,23.5,1.4,31C1117,1665.5,1112.1,1666.3,1106.4,1666.7z"/>
				<path class="st26" d="M1093.3,1596.1c-0.2,1-2.5,6.7-2.8,7.8c-3.1-0.5-12.1-3.2-12.5-3.3l-1.5,3.7c0.2,0.1,0.5,0.2,0.8,0.4
					c2.2,1.3,15.6,8.3,18.1,6.8c0.8-0.5,2.9-11.3,3.9-14.6C1097.4,1595.9,1095.1,1597.1,1093.3,1596.1z"/>
				<path class="st1" d="M1076.5,1604.2l1.5-3.7c0,0,0.2,0.1,0.3,0.1c-0.2-0.1-0.3-0.1-0.3-0.1c-0.4-0.2-2.7-5.5-3.3-5
					c-0.5,0.5,1.2,3,0.6,3.4c-0.7,0.4-7.3-2.4-7.3-1.8c0,1.1,4,1.9,3.9,2.4c-0.1,0.5-4.1-1.3-4.5-0.5c-0.4,0.8,3.9,1.3,4,1.7
					c0.1,0.4-4.1,0.1-3.7,1c0.2,0.5,3.7,0.2,3.6,0.7c-0.1,0.6-2.7,1.3-2.5,1.8c0.2,0.5,2.1-0.9,3.6-0.6
					C1073.7,1603.9,1074.7,1603.4,1076.5,1604.2C1076.5,1604.2,1076.5,1604.2,1076.5,1604.2z"/>
				<path class="st5" d="M1092.7,1572.4c-0.7-3.1-1.3-6.1,0.4-9.5c1.4-2.7,3.9-4.3,6.8-4.6c8.1-1,6.4,6.6,17.8,8.3
					c3.5,0.5,6.8,1,9.8,2.8c5.3,3.2,7.3,8.3,3.8,16.6c-8.7,20.3-29.4,2.7-32.5-0.9C1095.6,1581.4,1093.1,1574.3,1092.7,1572.4z"/>
				<path class="st18" d="M1105.5,1582c0,0,4.1,0.5,6.6,3.1c2.5,2.7-4,24.2-4.4,27.6c-0.4,3.4,4.3,12.8,4.3,12.8s-16,3.2-20.2,0.4
					c0,0-0.4-26.3,0.1-28.7s4.2-12.3,5.1-13.3C1097.7,1583,1105.5,1582,1105.5,1582z"/>
				<path class="st1" d="M1103.4,1573.7c0,0,0,0.2,0.1,0.5c0.3,1.5,1.2,6.3,0.6,8.8c-0.4,1.8-1.6,5.9-5.3,5.3
					c-1.1-0.2,0.9-4.8,0.8-5.3c-0.2-0.9-0.4-2.2-0.7-3.5c-0.1-0.7-0.3-1.5-0.4-2.2c-0.4-2-0.7-3.6-0.7-3.6L1103.4,1573.7z"/>
				<path class="st18" d="M1103.5,1574.2c-0.1-0.3-0.1-0.5-0.1-0.5l-5.6-0.1c0,0,0.3,1.6,0.7,3.6c0.1,0.7,0.3,1.4,0.4,2.2
					c0.9-0.1,1.8-0.5,2.7-1.3c1-0.9,1.6-1.9,2-3C1103.6,1574.8,1103.6,1574.5,1103.5,1574.2z"/>
				<path class="st1" d="M1100.1,1560.5c0,0,2.3,0.3,3.9,2.4c1.6,2.1,3.4,8.7-0.7,12.2s-8.1-0.5-8.7-4.7
					C1094,1566.2,1094.1,1560.4,1100.1,1560.5z"/>
				<path class="st1" d="M1093.4,1569.4c0.3,1,0.9,1.7,1.5,1.6c0.6-0.2,0.8-1.1,0.6-2.2c-0.3-1-0.9-1.7-1.5-1.6
					S1093.2,1568.4,1093.4,1569.4z"/>
				<path class="st5" d="M1097.6,1560.6c0,0,5.3,6.1,7.8,6.4c2.5,0.3,2.8,3.6,2.8,3.6s-0.9-7.6-3.4-9.1
					C1102.4,1560,1097.6,1560.6,1097.6,1560.6z"/>
				<path class="st1" d="M1104.6,1568.4c-0.2,1.1,0.2,2.1,0.9,2.3c0.7,0.1,1.4-0.6,1.7-1.7c0.2-1.1-0.2-2.1-0.9-2.3
					C1105.5,1566.6,1104.8,1567.3,1104.6,1568.4z"/>
				<path class="st9" d="M1097.2,1572.6l3.9,0c0,0-0.1,1.5-1.8,1.5C1097.2,1574.2,1097.2,1572.6,1097.2,1572.6z"/>
				<path class="st26" d="M1116.3,1634c-1.6-7.5-7.4-13.2-7.8-20.9c0.3-3.3,8.3-22.8,5.7-26c-2.1-2.6-6-5.4-8.4-5.1
					c-2.2,3.1-5.5,9.6-6,14.9c-0.7,8.8-1.2,70,0,84.2c3.5,0.2,23.4-0.7,23.4-0.7C1122,1670.9,1117.4,1639.8,1116.3,1634z"/>
				<g>
					<path class="st13" d="M1104.7,1599.5l-17.2,2.5c-0.5,0.1-0.9,0.6-0.8,1.1l3.4,23c0.1,0.5,0.6,0.9,1.1,0.8l17.2-2.5
						c0.5-0.1,0.9-0.6,0.8-1.1l-3.4-23C1105.6,1599.8,1105.2,1599.4,1104.7,1599.5z"/>
					<path class="st5" d="M1091.8,1600.6c0-0.1,0.1-0.2,0.2-0.2l7.2-1.1c0.1,0,0.2,0.1,0.2,0.2l0.1,0.7l-7.6,1.1L1091.8,1600.6z"/>
					<path class="st5" d="M1094.5,1600.2c0.1,0.6,0.7,1.1,1.3,1c0.6-0.1,1.1-0.7,1-1.3c-0.1-0.6-0.7-1.1-1.3-1
						C1094.8,1599,1094.4,1599.6,1094.5,1600.2z M1094.9,1600.2c-0.1-0.4,0.2-0.8,0.6-0.8c0.4-0.1,0.8,0.2,0.8,0.6
						c0.1,0.4-0.2,0.8-0.6,0.8C1095.3,1600.9,1094.9,1600.6,1094.9,1600.2z"/>
					<path class="st18" d="M1091.9,1600.4c-0.1,0-0.1,0.1-0.1,0.2l0.1,0.7l7.6-1.1c0.1,0.5-0.3,1-0.8,1.1l-5.7,0.8
						c-0.5,0.1-1-0.3-1.1-0.8l-0.1-0.7C1091.8,1600.5,1091.8,1600.4,1091.9,1600.4z"/>
				</g>
				<path class="st1" d="M1096.7,1615.4c-0.5,0.1-1,0.2-1.4,0.3c0,0-2-1.1-2.8-1.5c-0.8-0.4-3-0.8-3.5-0.8c-0.5-0.1-0.3,0.5,0.1,0.7
					c0.4,0.2,1.5,0.7,1.8,1.3c0,0-0.9,0.1-1.3-0.1c-0.5-0.2-1.1-0.6-1.1-0.9s-0.1-0.8-0.3-0.7c0,0-0.1,0.2-0.1,0.4
					c0,0.2-0.1,0.4-0.1,0.5c-0.1,0.3-0.2,0.8-0.2,1c-0.1,0.5,0.2,1.8,0.3,2.3c0.1,0.9,0.3,1.3,0.8,1.5c0.7,0.3,1.5,0.4,2.7,0.5
					c2.1,0.2,4.1-0.4,4.9-0.5c0.2,0,0.8-0.1,1.7-0.2L1096.7,1615.4z"/>
				<path class="st26" d="M1115.5,1589.1c-1.7-4-4.8-5.2-4.8-5.2c-0.6-0.4-1.1,0.9-2,2.1c-3.4,4.7-3.3,8.5-1.7,16.3l1.8,8.7
					c0,0-9,3.8-13.5,4.6c0,1.1,0,2.4,0.2,3.8c0.2-0.1,0.5-0.1,0.6-0.1c0.9-0.1,14.4-1.4,14.4-1.4s5.4-0.8,5.8-1.7
					c0.1-0.4,0.2-2.3,0.2-4.4h0C1116.6,1611.7,1117.1,1593,1115.5,1589.1z"/>
			</g>
			<g>
				<g>
					<path class="st14" d="M1666,1649.8c0.4-1.1,7.3-22.6,7.3-22.6l-10.6,2.4l-4.8,16.7c-0.4,0.8-7.9,21-10.5,27.5
						c-0.5,1.3-1.7,2.2-3,2.5c0,0,0,0,0,0c-0.9,0.2-2.7,0.8-3.1,1.1c-0.4,0.3-1.3,0.9-1.9,1.3s-1.2,0.8-1.4,1.1
						c-0.2,0.1-0.6,0.3-0.9,0.4c-0.5,0.2-0.5,0.9,0,1c0.4,0.2,1.1,0,1.5-0.2c1.2-0.4,2.7-1.6,2.7-1.4s-1.7,3-1.8,3.3
						c-0.2,0.3-2.2,3.6-2.3,4.3c-0.2,0.8,0.3,1,0.6,0.8c0.3-0.2,3.4-4.5,3.4-4.5s0.4-0.5,0.5-0.2c0.1,0.4-2.7,4.3-3,4.9
						s-0.2,1.2,0.5,1.1c0.8-0.2,3.5-4.6,3.5-4.6s0.3-0.5,0.5-0.3s-2.3,3.5-2.3,3.9s0.2,0.9,0.8,0.6c0.7-0.3,3.1-4.2,3.1-4.2
						s0.3-0.2,0.3,0c0,0.2-1.8,3.1-1.8,3.6c0,0.4,0.4,0.4,0.4,0.4c0.8,0.1,2.2-3,3.3-4.2C1647.8,1683.3,1665.5,1651,1666,1649.8z"/>
					<path class="st3" d="M1709.3,1764.3c0,0,2.3,2.2,2.3,3c0.1,0.8,0.2,9.5-0.7,10.4s-3.7,1.4-2.8,2.3c0.7,0.7,5.8,0.5,9.1,0.4
						c1-0.1,2.2-7.9,2.6-9.1c0.6-1.7,1.9-5.5,1.4-6.6c-0.3-0.6-1.5-1.7-3.2-2.8c-1.8-1.2-3.5-3.7-3.5-3.7L1709.3,1764.3z"/>
					<path class="st1" d="M1685.7,1769.4c0,0,2,5.8,2,5.8c0.2,0.9,0.7,3.2,0.7,4c0,3.1-14-2.6-10.9-4c0.3-0.1,1.2-1.1,1.3-2.2
						c0.1-1.6-1.2-3.7-1.2-3.7L1685.7,1769.4z"/>
					<path class="st5" d="M1663.7,1662.3c0,0-1,10.3-1,10.5c0,16.7-3.3,49.3-2.7,52.4c1.5,7.7,18.1,46.7,18.1,46.7l8.9-1.1
						l-11.6-46.7l4.3-18.8l6.1-37.2L1663.7,1662.3z"/>
					<path class="st4" d="M1693.7,1671.4l1.7,9.8l4.6,40.2l17.5,39.3c0,0-2.5,5.7-6.1,6.5l-27.8-40.4l-17.3-51.7l0.6-11.5
						L1693.7,1671.4z"/>
					<path class="st6" d="M1660.1,1637.7l12.4,1.3c0,0,0.6-10.1,0.6-15c0-5.9-0.5-13.4-1.2-13.3c-2,0.5-4.7,1.6-6.3,3.7
						C1660.1,1622.1,1660.1,1637.7,1660.1,1637.7z"/>
					<path class="st2" d="M1666.2,1623c-0.3,1.8-5,50.5-5,50.5c22.5,10.9,35,1.9,35,1.9s-0.7-34.2,0.1-38.8
						c0.6-3.1,1.3-23.5-0.7-24.1c-2.6-0.7-5.5-1.5-8.7-1.8c-2.7-0.3-13.3-0.4-15.2,0.2C1671.7,1610.8,1667.3,1615.4,1666.2,1623z"/>
					<path class="st5" d="M1718.1,1761.7c0,0-5.2,14.8-7.3,15.5c-0.5,0.2-3.2,0.7-3.7,1.8c-0.1,0.3,0,1.5,0,1.5h10.9
						c0,0,1.4-6.5,1.9-9.4c0,0,2.9-7,2.6-7.6C1722.2,1762.9,1718.1,1761.7,1718.1,1761.7z"/>
					<path class="st5" d="M1689.3,1780.2l-1.6-5.1c0,0-3.4,1.4-5.1,1.2s-5-1.2-5-1.2c-6.7,2.2-12.3,3.3-11.3,5.1l0,0H1689.3z"/>
					<path class="st1" d="M1683.9,1600.6l1.7,10.1c0,0-6.1,12.9-9.7,11.8c-3-0.9-1.2-12-1.2-12s1.7-5.9,1.2-8.9
						C1675.4,1598.6,1683.9,1600.6,1683.9,1600.6z"/>
					<path class="st18" d="M1675.9,1601.6c-0.5-3,8-1,8-1l0.1,0.9c-0.2,0.6-0.6,1.1-0.9,1.5c-1.9,2-4.9,3.2-7.5,3.2
						C1675.9,1604.6,1676.1,1602.8,1675.9,1601.6z"/>
					<path class="st1" d="M1685.3,1585.7c0.2-0.1,1.9,12-1.3,15.3c-3.2,3.3-9.5,4.4-11.7,1.8c-2.5-2.9-2.4-15.9,2.6-19.3
						S1685.3,1585.7,1685.3,1585.7z"/>
					<path class="st13" d="M1684.2,1581.1c1.8,0.2,4.1,1.1,6.6,5c3,4.8,0.8,10.1-2.7,12.8c-3.5,2.6-3.5,5.6-3.5,5.6l-0.6-1.5
						c-0.4-1.2-0.6-2.4-0.4-3.7c0.1-0.7,0.2-1.6,0.6-2.2c0.8-1.7-1.8-2.9-2.6-4.4c-0.6-1.1-0.6-3.7-1.5-5.5l-1.1-1.4
						c0,0-2.5-1.9-4.9-1.3C1671.6,1584.9,1674.6,1573.5,1684.2,1581.1z"/>
					<path class="st1" d="M1681.7,1594.8c0,1.5,0.7,2.7,1.6,2.7c0.9,0,1.6-1.2,1.7-2.6c0-1.5-0.7-2.7-1.6-2.7
						S1681.8,1593.3,1681.7,1594.8z"/>
					<g>
						<g>
							<path class="st25" d="M1666.4,1625.6c-0.2,0.1-0.6,0-1.5-1.1l0,0l-0.2-0.3c-0.2-0.5-4.3-11.5-1.9-14.6c0.5-0.7,1.3-1,2.2-0.9
								c1,0.1,1.8,0.5,2.3,1.2c1.4,2,0.6,5.9-0.2,9.4c-0.4,2-0.9,3.9-0.6,4.6C1666.8,1624.8,1666.9,1625.4,1666.4,1625.6
								C1666.5,1625.6,1666.5,1625.6,1666.4,1625.6z M1665.5,1624.2c0.2,0.2,0.4,0.4,0.5,0.6c0-0.1-0.1-0.3-0.2-0.6
								c-0.3-0.9,0.1-2.7,0.6-5c0.7-3.2,1.6-7.1,0.3-8.8c-0.4-0.5-1-0.8-1.8-0.9c-0.7-0.1-1.2,0.1-1.6,0.6
								c-1.8,2.4,0.8,10.8,1.9,13.9L1665.5,1624.2z"/>
						</g>
						<g>
							<path class="st25" d="M1710.1,1755.4c-0.7,0.2-1.5-0.3-1.8-1.2l-43.6-128.2c-0.3-0.9,0-1.8,0.7-2c0.7-0.2,1.5,0.3,1.8,1.2
								l43.6,128.2C1711.1,1754.3,1710.8,1755.2,1710.1,1755.4z"/>
						</g>
						<path class="st18" d="M1713,1759.6l-2.8,0.9c-0.4,0.1-0.9-0.1-1-0.6l-1.4-5.5c-0.1-0.4,0.1-0.8,0.5-1l2.1-0.7
							c0.4-0.1,0.8,0.1,1,0.5l2.1,5.3C1713.7,1758.9,1713.5,1759.4,1713,1759.6z"/>
						<path class="st18" d="M1672.4,1642.1l-1.6,0.5c-0.7,0.2-1.4-0.2-1.6-0.8l-5.4-16.7c-0.2-0.7,0.2-1.4,0.8-1.6l1.6-0.5
							c0.7-0.2,1.4,0.1,1.6,0.8l5.4,16.7C1673.4,1641.2,1673,1641.9,1672.4,1642.1z"/>
					</g>
					<path class="st1" d="M1709.7,1632.8l-8.9,6.5l6.2,9.8c-4.9,4.9-16.8,12.8-16.8,12.8s-1.1,0.8-2.6,1.6c-0.4,0.2-0.7,0.4-1.1,0.7
						c-0.7,0-1.8,0-2.4,0.2c-0.9,0.3-2.5,0.4-2.9,0.7c-0.4,0.3-1.8,2.2-2.1,2.4s-0.4,0.6-0.5,0.8c-0.1,0.2-1.9,1.5-2.1,1.9
						s0.4,1.6,0.8,1.8c0,0,0.1,0.1,0,0.3s0,0.9,0.2,1.1c0.2,0.3,0.8,0.6,1.1,0.3c0,0,0.2-0.1,0.3,0s0.2,0.5,0.5,0.8
						c0.3,0.3,0.8,0.3,1.4,0c0,0,0.4,1.6,1.7,0.8l1.8-1.1c0,0,1.1-0.3,1.5-0.6c0.4-0.3,3-2,3.1-2.2s0.4-0.8,0.5-0.8s1.3-1.1,1.4-1.4
						c0.1-0.1,1-0.9,1.6-1.4c0.8-0.4,1.7-0.8,2.6-1.2l0,0l0,0c12.5-5.9,24.7-11.3,24.1-15.8
						C1718.6,1648.2,1712.6,1636.8,1709.7,1632.8z"/>
					<path class="st2" d="M1711.7,1633.1l-10.7,7.2c0,0-6-9-9.3-12.2c-4.1-4,1.5-16.3,4.1-15.6
						C1701.7,1614,1711.7,1633.1,1711.7,1633.1z"/>
					<path class="st9" d="M1672.3,1597.6l5.3,0.5c0,0-0.3,2-2.7,1.8C1672.1,1599.8,1672.3,1597.6,1672.3,1597.6z"/>
				</g>
				<g>
					<path class="st1" d="M1596.5,1761.8c0,0-0.7,7.7-0.2,10.2c0.1,0.3,0.2,0.8,0.4,1.2c0.5,1.4-0.8,5.7-0.8,5.7l-17.5,0.1
						c-1,0-0.3-0.6,0.5-1.2c1.3-0.9,2.3-1.5,6.3-3.4c0.3-0.1,1.2-0.7,1.6-0.9c0.9-0.5,1.8-1.3,2.5-2.2c1.3-1.4,1.5-8.2,1.5-8.2
						L1596.5,1761.8z"/>
					<path class="st17" d="M1586.7,1773.5c4.6,1.2,8.1,0.5,10-0.3c0.5,1.4,1.4,6.2,0.8,6.2c-4.4,0-8.1,0.8-20.7,0.6
						c-0.5,0-0.4-1.6-0.1-1.9C1577.5,1777.2,1586.3,1773.7,1586.7,1773.5z"/>
					<path class="st6" d="M1618.5,1670.5c0,0-0.2,11-3.4,18c-3.1,6.8-17.7,23.7-21.6,33.6c1.2,5.6,4.5,13.4,4.3,19.5
						c-0.3,7,0.1,25.5,0.1,25.5l-7.9,0.2l-10.3-47.7l15.6-51.5l7.1-12.5L1618.5,1670.5z"/>
					<path class="st1" d="M1652.1,1750.9c0,0,4.8,6.6,7,8.3c1.1,0.9,4.2,2.1,4.6,3.6s-14,14.6-14,14.6c-0.8,0.7-0.7-0.3-0.4-1.2
						c0.4-1.6,0.8-2.8,2.7-7.2c0.1-0.3,0.5-1.4,0.6-1.8c0.3-1,0.5-2.3,0.5-3.5c0-2-4.6-7.6-4.6-7.6L1652.1,1750.9z"/>
					<path class="st17" d="M1652.5,1767.1c4.6-2.2,6.8-5.3,7.8-7.2c1.4,0.8,5,2.5,4.7,2.9c-2.5,3.7-5.2,8.3-15.4,16.9
						c-0.4,0.3-1.9-1.5-1.9-2C1647.7,1776.5,1652.4,1767.5,1652.5,1767.1z"/>
					<path class="st2" d="M1618,1663.4c0,0,6.1,9.1,7.5,16.7c1.4,7.4-0.9,29.6,1.5,39.9c4.2,3.9,11.4,8.4,14.7,13.6
						c3.8,5.9,14.7,20.8,14.7,20.8l-6.3,4.7l-35.8-33.2l-14.5-44.3l-4-14.8L1618,1663.4z"/>
					<path class="st14" d="M1599.8,1649.1c0.2-1.2,3.9-24.1,3.9-24.1l-10.4,4.1l-2.3,17.7c-0.3,0.9-4.7,22.6-6.3,29.6
						c-0.3,1.4-1.3,2.5-2.7,3.1c0,0,0,0,0,0c-0.9,0.3-2.6,1.3-3,1.6c-0.4,0.4-1.2,1.2-1.7,1.7s-1,1-1.3,1.3
						c-0.1,0.2-0.6,0.4-0.9,0.6c-0.5,0.2-0.4,0.9,0.1,1.1c0.5,0.1,1.1-0.2,1.5-0.4c1.1-0.6,2.4-2,2.5-1.9c0.1,0.2-1.2,3.3-1.4,3.6
						c-0.1,0.4-1.6,4-1.7,4.8c-0.1,0.8,0.4,1,0.8,0.7c0.3-0.3,2.7-5.1,2.7-5.1s0.3-0.6,0.5-0.3s-2.1,4.7-2.3,5.5
						c-0.2,0.7,0,1.3,0.6,1c0.8-0.3,2.9-5.2,2.9-5.2s0.3-0.6,0.5-0.4c0.2,0.2-1.7,3.9-1.7,4.3c0,0.4,0.4,0.8,0.9,0.5
						c0.6-0.4,2.4-4.8,2.4-4.8s0.2-0.3,0.3-0.1s-1.3,3.5-1.2,4c0.1,0.4,0.5,0.3,0.5,0.3c0.8,0,1.7-3.4,2.6-4.8
						C1586.7,1685.9,1599.6,1650.5,1599.8,1649.1z"/>
					<path class="st22" d="M1595.5,1602.5c-0.2-5.1,0.5-10.1,2.8-14.9c2-4.1,6.8-6.4,11.2-6.4c14,0,15.8,18.5,24.7,25.7
						c2.7,2.2,5.8,4,8.3,6.3c9.5,8.7,5.2,24.8-3.5,32.5c-6.1,5.3-15.6,8.3-23,4.2c-3.9-2.2-6.9-5.8-9-9.7c-3-5.6-4.9-12-7-18
						C1597.6,1615.9,1595.7,1609.3,1595.5,1602.5z"/>
					<path class="st3" d="M1639.7,1679.4c0-0.1-4.6-19.8-6.5-24.2c-1.9-4.4-9.2-24.6-9.2-24.6l9.4-2.1c0,0,6.1,15.9,8.9,23
						c2.8,7.2,1.6,20.4,1.7,24.1c0,0.1,0.4,3.2,0.4,3.2l0,0c0.1,0.4,0.2,0.8,0.2,0.8c0.1,0.2,0.4,1.4,0.5,1.5c0,0.1,0.3,0.5,0.4,0.7
						s0.4,2.7,0.4,3.1c0.1,0.4-0.1,1.3-0.1,1.3l0.1,1.7c0.1,1.2-1.2,0.9-1.2,0.9c0,0.6-0.2,0.9-0.5,1s-0.7,0-0.8,0s-0.1,0.2-0.1,0.2
						c0,0.4-0.4,0.7-0.7,0.7c-0.3,0.1-0.8-0.1-0.9-0.3s-0.2-0.1-0.2-0.1c-0.3,0.2-1.3,0.2-1.6-0.1s-0.5-2.1-0.6-2.3
						c-0.1-0.2-0.3-0.4-0.4-0.7s-0.9-2.1-0.9-2.5s0.5-1.6,0.6-2.3c0.1-0.7,0.8-1.9,1-2.2C1639.7,1680.3,1639.7,1679.9,1639.7,1679.4
						L1639.7,1679.4z"/>
					<path class="st5" d="M1593.2,1627.2c4.4-13.2,9.2-12.7,9.2-12.7l-3.8,27.8c-2.7-0.7-6.2-2.4-8.9-3.1
						C1590.6,1635,1592.1,1630.4,1593.2,1627.2z"/>
					<path class="st4" d="M1613.6,1612.1c0,0,8-0.5,11.2,3c3.2,3.5-7.1,31-7.6,35.4c-0.6,4.4,3,16.2,3,16.2s-18.9,3.8-24.3,0.2
						c0,0-0.6-31.8,0-35s5.4-16,6.6-17.3C1603.5,1613.4,1613.6,1612.1,1613.6,1612.1z"/>
					<path class="st1" d="M1610.9,1601.4c0,0,0,0.2,0.1,0.6c0.4,1.9,1.7,8.4,2.7,10.1c1.1,2.1-3.9,9-8.7,8.1
						c-1.4-0.2,1.2-6.3,1.1-6.9c-0.2-1.2-0.6-2.9-0.9-4.6c-0.2-1-0.4-1.9-0.6-2.9c-0.5-2.6-0.9-4.7-0.9-4.7L1610.9,1601.4z"/>
					<path class="st18" d="M1611,1602c-0.1-0.4-0.1-0.6-0.1-0.6l-7.2-0.2c0,0,0.4,2.1,0.9,4.7c0.2,0.9,0.4,1.9,0.6,2.8
						c1.1-0.2,2.3-0.7,3.4-1.7c1.3-1.1,2.1-2.5,2.6-3.9C1611.2,1602.7,1611.1,1602.3,1611,1602z"/>
					<path class="st1" d="M1606.1,1585c0,0,3.4-0.4,5.5,2.4c2.1,2.8,4.4,11.3-0.9,15.9s-10.5-0.6-11.3-6.2
						C1598.7,1591.5,1598.4,1584.8,1606.1,1585z"/>
					<path class="st1" d="M1597.9,1597c0.6,1.2,1.7,1.9,2.4,1.5c0.7-0.4,0.7-1.7,0.1-2.9c-0.6-1.2-1.7-1.9-2.4-1.5
						C1597.3,1594.4,1597.3,1595.7,1597.9,1597z"/>
					<path class="st22" d="M1605.7,1584c0,0,4.5,8.1,7.8,8.5c3.2,0.4,3.7,4.7,3.7,4.7s-1.2-9.9-4.4-11.8
						C1609.6,1583.5,1605.7,1584,1605.7,1584z"/>
					<path class="st9" d="M1609.4,1598.5l-6.8,0.3c0,0,0.3,2.6,3.2,2.5C1609.5,1601.2,1609.4,1598.5,1609.4,1598.5z"/>
					<path class="st4" d="M1627.7,1642.4c0,0-10.4-12.5-12.3-17.1c-1.9-4.6,0.9-11.5,5.3-12.1c4.4-0.5,15.4,19.9,15.4,19.9
						L1627.7,1642.4z"/>
				</g>
			</g>
			<g>
				<path class="st1" d="M822.8,1599.8l6.8,4.1l1.7,7c9,4,20,7.1,20,7.1s1.2,0.3,2.8,0.6c1.5,0.3,3.6,0.6,4.4,0.8
					c1.3,0.2,2.5,0.2,3.5,0.1c1-0.1,2.7-0.3,3.4,0c0.4,0.2,1.7,0.6,2.3,0.8s1.4,0.5,1.8,0.6c0.2,0.1,0.7,0.1,1.1,0.1
					c0.5,0,0.8,0.7,0.4,1c-0.4,0.3-1.1,0.3-1.6,0.3c-1.3,0-3.2-0.7-3.2-0.5c0,0.2,2.6,2.4,2.9,2.7c0.3,0.3,3.3,2.9,3.7,3.6
					c0.4,0.7,0,1.1-0.4,1c-0.4-0.1-4.8-3.4-4.8-3.4s-0.6-0.4-0.5,0c0,0.4,4,3.4,4.6,3.9c0.5,0.6,0.6,1.2-0.1,1.2
					c-0.9,0.1-5-3.4-5-3.4s-0.5-0.4-0.6-0.2c-0.1,0.3,3.4,2.8,3.6,3.2s0,0.9-0.6,0.8c-0.8-0.1-4.4-3.2-4.4-3.2s-0.3-0.2-0.3,0.1
					c0,0.2,2.8,2.6,2.9,3c0.1,0.4-0.3,0.5-0.3,0.5c-0.7,0.3-3.1-2.3-4.6-3.2s-2.7-2.5-4.6-3.4c-1.1-0.5-3.1-0.9-4.9-1.1
					c-1.2-0.1-2.6-0.2-4-0.4h0l0,0c-13.1-1.2-30.4-3.3-29.7-7.5C819.3,1613.9,821.5,1604.4,822.8,1599.8z"/>
				<path class="st1" d="M832.9,1742c0,0-0.4,7.1-0.4,7.1c-0.1,0.9-0.7,3.1-0.7,3.9c0,3.1,13.4-2.6,10.4-4c-0.3-0.1-1.7-1.1-1.8-2.1
					c-0.1-1.6-0.5-4.9-0.5-4.9L832.9,1742z"/>
				<path class="st8" d="M842.2,1749.1c0,0-3.2,0.9-4.8,1.2c-1.6,0.2-3.7-1.7-4.9-1.2c-1.3,0.6-1.1,6.4-1.1,6.4s16.8,1,21.6-0.5
					C854.9,1754.2,848.6,1751.2,842.2,1749.1z"/>
				<path class="st1" d="M803.3,1742.7c0,0-0.4,7.1-0.4,7.1c-0.1,0.9-0.7,3.1-0.7,3.9c0,3.1,13.4-2.6,10.4-4
					c-0.3-0.1-2.1-1.8-2.2-2.8c-0.1-1.6-0.1-4.2-0.1-4.2L803.3,1742.7z"/>
				<path class="st8" d="M812.6,1749.7c0,0-3.2,0.9-4.8,1.2c-1.6,0.2-3.7-1.7-4.9-1.2c-1.3,0.6-1.3,5.9-1.3,5.9s18,1.3,22.2,0.1
					C825.8,1755.1,819.1,1751.9,812.6,1749.7z"/>
				<path class="st28" d="M824.6,1640.4l5.7,2.5l11.9,58.1l-0.5,43.5l-9.6,0.2c0,0-4.5-38.1-4.5-41s-20.6-51.7-20.6-51.7
					L824.6,1640.4z"/>
				<path class="st4" d="M820.2,1643.6c0,0-4.2,44.7-4.2,52.3s-3.4,49.8-3.4,49.8l-9.6-0.1c0,0-0.7-12.9-1.7-31.8
					c-0.2-3,0.2-8.9,0-12c-1.5-22.1-4.4-42.9-3-51.1c0.2-1.3,0.7-4.8,1.5-5.7C806.1,1638.4,820.2,1643.6,820.2,1643.6z"/>
				<path class="st6" d="M831.9,1608.2l-11.6-0.8c0,0-0.6-10.6-0.6-15.6c0-6.1-1.8-15.1-1.1-15c2,0.5,5.5,2.4,7.1,4.6
					C831.3,1589.4,831.9,1608.2,831.9,1608.2z"/>
				<path class="st2" d="M804.4,1576.6c0,0-6.6,0.9-8.4,2.2c-2,1.5-4.1,4.8-4.1,4.8s8.1,39.1,8.1,45.7c0,5.1-1.8,17.6-1.8,17.6
					s24.6,1.6,33.9-2.2c0,0-2.9-14.9-2.9-18.8c0-3.9-3.5-39.4-4.3-41.9c-0.7-2.3-2.1-6.3-6.5-7.3
					C813.9,1575.8,804.4,1576.6,804.4,1576.6z"/>
				<path class="st1" d="M806.2,1566.1l-1.6,10.9c0,0,6,13,9.6,11.9c3-0.9,1.2-12.5,1.2-12.5s-1.6-6.2-1.1-9.3
					C814.7,1564.1,806.2,1566.1,806.2,1566.1z"/>
				<path class="st18" d="M814.2,1567.2c0.5-3.1-7.9-1.1-7.9-1.1l-0.1,0.9c0.2,0.6,0.5,1.1,0.9,1.5c1.9,2,4.8,3.3,7.4,3.4
					C814.1,1570.2,814,1568.4,814.2,1567.2z"/>
				<g>
					<path class="st1" d="M804.9,1550.6c-0.2-0.1-1.9,12.4,1.3,15.9s9.3,4.6,11.6,1.9c2.4-3,2.3-16.5-2.6-20
						C810.2,1544.8,804.9,1550.6,804.9,1550.6z"/>
					<path class="st5" d="M813.2,1541.7c-3.8,0.8-6.3,3.1-7.2,4.1c-1.7,0.2-4.1,1.2-6.5,5.2c-3,5-0.8,10.5,2.7,13.2
						c3.5,2.7,3.4,5.9,3.4,5.9l0.5-1.6c0.4-1.2,0.6-2.5,0.4-3.8c-0.1-0.8-0.2-1.6-0.6-2.3c-0.8-1.8,1.8-3,2.5-4.5
						c0.6-1.2,0.6-3.8,1.5-5.7l1.1-1.5c0,0,2.5-1.9,4.9-1.4C818.4,1549.8,818.1,1540.7,813.2,1541.7z"/>
					<path class="st1" d="M808.4,1560.1c0,1.5-0.7,2.8-1.5,2.8c-0.9,0-1.6-1.2-1.6-2.7c0-1.5,0.7-2.8,1.5-2.8
						C807.7,1557.4,808.4,1558.6,808.4,1560.1z"/>
				</g>
				<polygon class="st1" points="884.6,1608.8 884.6,1617.4 876,1617.4 877.1,1608.8 				"/>
				<rect x="878.4" y="1649.1" class="st8" width="2.7" height="54.2"/>
				<g>
					<path class="st9" d="M842.5,1693.8h-2.8v-51.4c0-3-2.4-5.4-5.4-5.4h-3.2v-2.8h3.2c4.5,0,8.1,3.7,8.1,8.1V1693.8z"/>
				</g>
				<path class="st29" d="M865.5,1720.4c0,17.9,12,32.5,26.8,32.5c14.8,0,26.8-14.6,26.8-32.5s-12-32.5-26.8-32.5
					C877.5,1687.8,865.5,1702.4,865.5,1720.4z"/>
				<path class="st22" d="M820.3,1635.5L820.3,1635.5c0,1.1,0.9,2,2,2h9.9c1.1,0,2-0.9,2-2l0,0c0-1.1-0.9-2-2-2h-9.9
					C821.2,1633.4,820.3,1634.4,820.3,1635.5z"/>
				<g>
					<path class="st30" d="M866.2,1694.9h-2.8v-66c0-3-2.4-5.4-5.4-5.4h-3.2v-2.8h3.2c4.5,0,8.1,3.7,8.1,8.1V1694.9z"/>
				</g>
				<g>
					<path class="st25" d="M869.9,1742.4c-4.8-6.6-7.5-15.3-7.5-24.5s2.7-17.9,7.5-24.5c4.9-6.7,11.5-10.3,18.5-10.3
						s13.6,3.7,18.5,10.3c4.8,6.6,7.5,15.3,7.5,24.5s-2.7,17.9-7.5,24.5c-4.9,6.7-11.5,10.3-18.5,10.3
						C881.3,1752.7,874.8,1749.1,869.9,1742.4z M864.7,1717.9c0,17.9,10.6,32.5,23.6,32.5s23.6-14.6,23.6-32.5s-10.6-32.5-23.6-32.5
						C875.3,1685.4,864.7,1700,864.7,1717.9z"/>
				</g>
				<g>
					<path class="st31" d="M871.8,1744.8c-5.3-7.2-8.2-16.8-8.2-26.9c0-10.1,2.9-19.7,8.2-26.9c5.5-7.4,12.8-11.5,20.6-11.5
						s15.1,4.1,20.6,11.5c5.3,7.2,8.2,16.8,8.2,26.9c0,10.1-2.9,19.7-8.2,26.9c-5.5,7.4-12.8,11.5-20.6,11.5
						C884.6,1756.3,877.2,1752.2,871.8,1744.8z M867.8,1717.9c0,18.9,11,34.2,24.6,34.2c13.6,0,24.6-15.3,24.6-34.2
						s-11-34.2-24.6-34.2S867.8,1699,867.8,1717.9z"/>
				</g>
				<g>
					
						<rect x="916.9" y="1707.9" transform="matrix(0.6929 -0.721 0.721 0.6929 -967.3152 1193.9578)" class="st32" width="2.2" height="49.3"/>
				</g>
				<rect x="859.5" y="1707.3" class="st32" width="31.8" height="1.2"/>
				<rect x="890.7" y="1691.1" class="st32" width="2.6" height="56.8"/>
				<path class="st9" d="M873.7,1675.4h38.4c0.6,0,1.1-0.5,1.1-1.1v-1.4c0-0.6-0.5-1.1-1.1-1.1h-38.4c-0.6,0-1.1,0.5-1.1,1.1v1.4
					C872.7,1674.9,873.2,1675.4,873.7,1675.4z"/>
				<path class="st33" d="M872.4,1673.1h42.1c0.6,0,1.1-0.5,1.1-1.1v-1.4c0-0.6-0.5-1.1-1.1-1.1h-42.1c-0.6,0-1.1,0.5-1.1,1.1v1.4
					C871.3,1672.7,871.8,1673.1,872.4,1673.1z"/>
				<polygon class="st32" points="857.3,1717.8 857.3,1686.3 860.3,1686.3 860.3,1717.8 892.8,1717.8 892.8,1686.3 895.7,1686.3 
					895.7,1720.4 895.6,1720.4 892.8,1720.4 860.3,1720.4 857.3,1720.4 857,1720.4 857,1717.8 				"/>
				<polygon class="st34" points="852.5,1650.9 852.5,1626.1 854.5,1626.1 854.5,1650.9 877.1,1650.9 877.1,1626.1 879.1,1626.1 
					879.1,1652.9 879,1652.9 877.1,1652.9 854.5,1652.9 852.5,1652.9 852.2,1652.9 852.2,1650.9 				"/>
				<path class="st10" d="M855.1,1689.3h18.2c7.5,0,13.6-6.1,13.6-13.6v-25.2c0-7.5-6.1-13.6-13.6-13.6h-18.2
					c-7.5,0-13.6,6.1-13.6,13.6v25.2C841.5,1683.2,847.6,1689.3,855.1,1689.3z"/>
				<path class="st20" d="M858.8,1689.3H877c7.5,0,13.6-6.1,13.6-13.6v-25.2c0-7.5-6.1-13.6-13.6-13.6h-18.2
					c-7.5,0-13.6,6.1-13.6,13.6v25.2C845.2,1683.2,851.3,1689.3,858.8,1689.3z"/>
				<path class="st10" d="M851.6,1633.6h25.9c3,0,5.4-2.4,5.4-5.4v-7.2c0-3-2.4-5.4-5.4-5.4h-25.9c-3,0-5.4,2.4-5.4,5.4v7.2
					C846.2,1631.2,848.6,1633.6,851.6,1633.6z"/>
				<path class="st20" d="M854.6,1633.6h25.9c3,0,5.4-2.4,5.4-5.4v-7.2c0-3-2.4-5.4-5.4-5.4h-25.9c-3,0-5.4,2.4-5.4,5.4v7.2
					C849.2,1631.2,851.6,1633.6,854.6,1633.6z"/>
				<path class="st10" d="M908.6,1690.5h-62.7c-2.4,0-4.4,2-4.4,4.4v1.3c0,0.8,0.6,1.4,1.4,1.4h65.7c0.8,0,1.4-0.6,1.4-1.4v-4.3
					C910,1691.2,909.4,1690.5,908.6,1690.5z"/>
				<path class="st3" d="M882,1630.3c3.4-1.3,4.2,35.4,4.2,35.4c3.1,2.1,12.9,8.8,15,9.9c0.9,0.4,3.2,0.9,4,1.2
					c0.9,0.4,1.7,0.8,2.1,1.1c0.1,0.1,3.3,4.3,3.4,4.9c0.2,0.7,0.7,2.6,0.2,3c-0.5,0.4-1.5-2.8-1.5-2.8l-0.7-1.2
					c0.5,2,2,5.1,1.3,5.5c-0.7,0.4-1.9-2.6-2.8-4.7c0.6,2,1,5.2,0.4,5.3c-0.5,0.1-0.9-3.6-2.5-5.5c-0.6-0.7-1.8-0.4-2.4-0.7
					c-0.5-0.2-1.2-0.5-1.6-0.8l-1.8-1.9c-0.8-0.4-1.7-0.8-2.5-1.1c-1-0.3-2.4-1-3.7-1.4c-7.4-2.3-9.2-2.8-11.5-3.2
					c-2.3-0.4-3.4-6.4-3.7-15.8C877.6,1647.1,875.8,1632.6,882,1630.3z"/>
				<path class="st1" d="M924.1,1731.3c0,0,0.8,3,3.2,3.8c2.4,0.8,9.2-1.2,10.5-0.8c1.3,0.4,1.7,1.2,1.7,1.2l-16.5,9.7l-2.9-5
					l-1.5-4L924.1,1731.3z"/>
				<path class="st17" d="M928.8,1735.2c0,0-3.1,4.3-5.8,4.6c-2.6,0.3-2.8-0.1-3.1,0.7c-0.4,0.7,2.3,5.5,2.3,5.5l18.6-10.9
					c1.3-0.8,1.3-2.2-0.2-2.3c-1.1-0.1-2.1,0-2.7,0.1C936,1732.8,928.8,1735.2,928.8,1735.2z"/>
				<path class="st18" d="M862.3,1669.3c1.8-1.4,20.6,4,20.6,4s23.7,3.5,28.3,7.7c1.3,1.2,13.3,47.2,15.5,51.4l-7.9,5
					c0,0-13-24-16.1-29.8c-2.2-4-4.2-9.4-5.5-14.4c-9.4,1.4-13.4-2.4-30.8-9C858.4,1681.3,860.6,1670.7,862.3,1669.3z"/>
				<path class="st1" d="M904.1,1733.8c0,0-0.2,3.1,1.9,4.5c2.1,1.5,9.2,1.6,10.3,2.4c1.1,0.8,1.3,1.7,1.3,1.7l-18.7,4.3l-1.2-5.6
					l-0.2-4.2L904.1,1733.8z"/>
				<path class="st17" d="M907.4,1739c0,0-4.3,3.2-6.9,2.6s-2.6-0.9-3.2-0.3c-0.6,0.6,0.6,5.9,0.6,5.9l21-4.8
					c1.4-0.4,1.9-1.7,0.5-2.3c-1-0.4-2-0.6-2.6-0.8C915,1738.9,907.4,1739,907.4,1739z"/>
				<path class="st17" d="M852.5,1675.5c2.1-0.8,21.3-3.3,21.3-3.3s26.9,0.2,30,5.6c0.9,1.5,1.6,53.3,2.4,57.9l-9.1,2.4
					c0,0-7.6-30.9-5.7-49.7c-4.8,1.7-28.1,10.5-37.3,3.1C847.5,1686.3,850.4,1676.3,852.5,1675.5z"/>
				<path class="st18" d="M877,1652.5c-0.5-10-0.4-22.3,5.2-24.4c2.2-0.8,6.1,4.2,5.4,24.6C884.6,1653,880.2,1653.2,877,1652.5z"/>
				<path class="st4" d="M870.2,1626.2c2.7,0,9.5,0.8,12.6,1.8c0,0,2.3,19.7-2.1,34.7c-1,3.4,0.6,11.4,0.6,11.4l-29.3,1.7
					c0,0,4.6-25.1,3.4-29.2c-1.3-4.1-1.3-18.5-1.3-18.5s0.2,0,6.3-1.1C863.3,1626.5,867.3,1626.2,870.2,1626.2z"/>
				<path class="st5" d="M868,1599.8c0,0-3.8-2.8-5.9,1.4c0,0-1.4-0.1-1.6-0.1c-0.8,0.2-1.7,0.9-2.5,1.3c-2.8,1.3-4.2,4.2-4.6,7
					c-0.5,3.3,0.8,5.9,2.9,8.5c0.6,0.8,1.3,1.5,2.2,2c1.1,0.6,2,0.3,3,0.6c0.9,0.3,1.1,1.1,2.2,0.9c1.5-0.3,3.2-1.9,4.9-1.5
					c1.8,0.4,6.1-0.8,6.1-0.8c5.5-1.5,2.8-11.3,2.1-14.7C876.1,1601.2,871.4,1598.9,868,1599.8z"/>
				<path class="st1" d="M870.8,1621.8l1.1,3.6l0.6,2c0,0,1,2.3-1.7,2.7c-5.1,0.8-6.9-3.2-6.9-3.2l-1-11.1L870.8,1621.8z"/>
				<path class="st18" d="M863.2,1619.4c2.1,3.6,6,5.4,8.7,6l-1.1-3.6l-7.9-6L863.2,1619.4z"/>
				<path class="st1" d="M865.5,1604.7c3.3-1.5,7.4,0.1,8.4,3.4c0.4,1.4,0.9,3.2,1.2,5.2c0.8,4.8-1.2,9.7-3.6,10s-9.3-2-10.5-8.8
					C860.3,1610.4,862,1606.3,865.5,1604.7z"/>
				<path class="st1" d="M862.9,1614.8c0.2,1.1-0.5,2-1.4,2.1c-0.9,0.1-1.8-0.6-2-1.7c-0.2-1.1,0.5-2,1.4-2.1
					C861.8,1613,862.7,1613.8,862.9,1614.8z"/>
				<path class="st9" d="M839.9,1675.4h46.6c0.6,0,1.1-0.5,1.1-1.1v-1.4c0-0.6-0.5-1.1-1.1-1.1h-46.6c-0.6,0-1.1,0.5-1.1,1.1v1.4
					C838.8,1674.9,839.3,1675.4,839.9,1675.4z"/>
				<path class="st33" d="M838.2,1673.1h51.1c0.6,0,1.1-0.5,1.1-1.1v-1.4c0-0.6-0.5-1.1-1.1-1.1h-51.1c-0.6,0-1.1,0.5-1.1,1.1v1.4
					C837.2,1672.7,837.6,1673.1,838.2,1673.1z"/>
				<g>
					
						<rect x="874.4" y="1707.9" transform="matrix(0.693 -0.7209 0.7209 0.693 -980.2739 1162.9974)" class="st32" width="2.2" height="49.3"/>
				</g>
				<path class="st35" d="M854.9,1718.3c0,2.6,1.6,4.7,3.5,4.7s3.5-2.1,3.5-4.7s-1.6-4.7-3.5-4.7S854.9,1715.8,854.9,1718.3z"/>
				<g>
					<g>
						<path class="st35" d="M842.2,1744.8c-5.3-7.2-8.2-16.8-8.2-26.9c0-10.1,2.9-19.7,8.2-26.9c5.5-7.4,12.8-11.5,20.6-11.5
							s15.1,4.1,20.6,11.5c5.3,7.2,8.2,16.8,8.2,26.9c0,10.1-2.9,19.7-8.2,26.9c-5.5,7.4-12.8,11.5-20.6,11.5
							S847.6,1752.2,842.2,1744.8z M838.2,1717.9c0,18.9,11,34.2,24.6,34.2s24.6-15.3,24.6-34.2s-11-34.2-24.6-34.2
							S838.2,1699,838.2,1717.9z"/>
					</g>
				</g>
				<path class="st25" d="M891.3,1750.3h49.4c0.4,0,0.7-0.3,0.7-0.7v-0.9c0-0.4-0.3-0.7-0.7-0.7h-49.4c-0.4,0-0.7,0.3-0.7,0.7v0.9
					C890.6,1750,890.9,1750.3,891.3,1750.3z"/>
				<path class="st20" d="M891,1749.3h49.2c1,0,1.8-0.8,1.8-1.8l0,0c0-1-0.8-1.8-1.8-1.8H891c-1,0-1.8,0.8-1.8,1.8l0,0
					C889.1,1748.4,890,1749.3,891,1749.3z"/>
				<path class="st9" d="M872.6,1618.2l-4.3,0.7c0,0,0.4,1.6,2.3,1.4C872.9,1619.9,872.6,1618.2,872.6,1618.2z"/>
				<path class="st29" d="M834.4,1717.9c0,17.9,10.6,32.5,23.6,32.5s23.6-14.6,23.6-32.5s-10.6-32.5-23.6-32.5
					C845,1685.4,834.4,1700,834.4,1717.9z"/>
				<path class="st9" d="M812.8,1565l4.7-0.5c0,0,0.1,1.8-2,2.1C813,1566.9,812.8,1565,812.8,1565z"/>
				<g>
					<path class="st14" d="M881.9,1663.2c0.3-0.3,0.5-1.1,2.5-3.4c0.6-0.7,1.8-1.1,1.8-1.1s1.5-0.5,1.7-0.1c0.2,0.3,0.1,0.8-0.2,1
						s-0.9,0.3-1.1,0.5c-0.2,0.2-0.4,1.2-0.3,1.5c0.1,0.3,4.4-1.2,4.4-1.2s1.2-0.5,1.6-0.7c0.3-0.2,1.3-0.8,1.3-0.8s1.4-0.8,1.6-0.3
						c0.1,0.3-1,1.3-2.2,2.1c-1.3,0.9-2.7,1.5-2.7,1.7c0.1,0.4,2.5-0.4,2.5-0.4s1.1-0.6,1.6-0.8c0.6-0.5,1.7-1,2-0.4
						c0,0.1-1.3,1.3-1.3,1.3s-1,0.6-1.5,0.9c-0.8,0.5-2.2,0.9-2.8,1.2c-0.5,0.3-0.3,0.3-0.3,0.4c0,0,0.7-0.2,1.6-0.5
						c0.5-0.2,1.1-0.2,1.6-0.5c0.5-0.3,1.2-0.5,1.7-0.7c1.2-0.4,1.3,0.5,0.2,1c-0.4,0.2-0.9,0.4-1.3,0.7c-1.8,0.9-3.6,1.3-3.6,1.6
						c0,0.3,3.3-0.7,3.3-0.7s1.9,0,0.3,0.8c-1.9,1-3.5,1.3-3.6,1.3c-0.5,0.1-2.2,0.9-3.9,0.8c-1.3,0-3.1-0.1-4-0.1L881.9,1663.2z"/>
					<path class="st1" d="M850.1,1649.8l8.9,0.4c0,0,0.3,7.5,0.5,8.4c0,0,16,3.8,22.4,4.6l1.2,5.1c-1.3-0.1-2.3-0.3-2.9-0.4
						c-1.2-0.1-20.6-0.9-20.6-0.9s-7.7-0.7-8.3-2C850.6,1663.8,850.1,1649.8,850.1,1649.8z"/>
				</g>
				<path class="st18" d="M848.8,1652.6c-0.5-10-0.4-22.3,5.2-24.4c2.2-0.8,6.1,4.2,5.4,24.6C856.4,1653,852,1653.2,848.8,1652.6z"
					/>
				<path class="st1" d="M786,1604.9l10,5.3l-1.5,5.8c9,4,20,7.1,20,7.1s1.2,0.3,2.8,0.6c1.5,0.3,3.6,0.6,4.4,0.8
					c1.3,0.2,2.5,0.2,3.5,0.1c1-0.1,2.7-0.3,3.4,0c0.4,0.2,1.7,0.6,2.3,0.8s1.4,0.5,1.8,0.6c0.2,0.1,0.7,0.1,1.1,0.1
					c0.5,0,0.8,0.7,0.4,1c-0.4,0.3-1.1,0.3-1.6,0.3c-1.3,0-3.2-0.7-3.2-0.5c0,0.2,2.6,2.4,2.9,2.7c0.3,0.3,3.3,2.9,3.7,3.6
					c0.4,0.7,0,1.1-0.4,1c-0.4-0.1-4.8-3.4-4.8-3.4s-0.6-0.4-0.5,0c0,0.4,4,3.4,4.6,3.9c0.5,0.6,0.6,1.2-0.1,1.2
					c-0.9,0.1-5-3.4-5-3.4s-0.5-0.4-0.6-0.2c-0.1,0.3,3.4,2.8,3.6,3.2s0,0.9-0.6,0.8c-0.8-0.1-4.4-3.2-4.4-3.2s-0.3-0.2-0.3,0.1
					c0,0.2,2.8,2.6,2.9,3c0.1,0.4-0.3,0.5-0.3,0.5c-0.7,0.3-3.1-2.3-4.6-3.2s-2.7-2.5-4.6-3.4c-1.1-0.5-3.1-0.9-4.9-1.1
					c-1.2-0.1-2.6-0.2-4-0.4l0,0l0,0c-13.1-1.2-30.4-3.3-29.7-7.5C782.4,1618.9,784.7,1609.4,786,1604.9z"/>
				<path class="st2" d="M797.3,1578.3c0,0-3.9,0.9-7.9,5.5c-3.6,4.2-5.9,27.5-5.9,27.5l12.6,2.1l1-11.3l3.4-5.2L797.3,1578.3z"/>
			</g>
			<g>
				<path class="st5" d="M2009.8,1624.1l0.6,0.6c0.3,0.3,0.8,0.3,1.1,0l11-12.2c0.3-0.3,0.2-0.8-0.1-1.1l-0.6-0.6
					c-0.3-0.3-0.8-0.3-1.1,0l-11,12.2C2009.4,1623.4,2009.5,1623.8,2009.8,1624.1z"/>
				<path class="st1" d="M1972.4,1614.2c1.5-1.2,12.9,3.8,12.7,5.6c-0.1,1.7,8,18.7,8,18.7l14-11.2l0,0c0.1-0.4,1.5-4.8,1.5-5.5
					c0.1-0.8,2.4-2.2,3.5-2s-0.9,1.6-1.1,1.8c-0.4,0.7,1,0.9,1,0.9s4-2.2,4.1-3.5s0.9-4.1,1.8-3.5c0.5,0.3,0.4,2.2,0.3,3.2
					c0.3-1.1,0.6-2.2,1-2.4c0.7-0.2,1,0.6,0.9,1c-0.1,0.4-1.2,4.9-1.5,5.4c-0.3,0.5-6.8,5.8-7.8,6.9c0,0-18.1,20.8-19.4,21.3
					c-1.1,0.5-5.2-6.7-9-11.4C1978.7,1634.8,1967.8,1618,1972.4,1614.2z"/>
				<path class="st3" d="M1935.8,1767c0,0-2.5,2.4-2.5,3.3s-0.2,10.5,0.8,11.4s4,1.5,3,2.5c-0.7,0.8-6.3,0.6-10,0.4
					c-1.1-0.1-2.4-8.7-2.9-10c-0.6-1.8-2.1-6-1.6-7.3c0.3-0.6,1.6-1.9,3.4-3.1c1.9-1.3,3.8-4.1,3.8-4.1L1935.8,1767z"/>
				<path class="st1" d="M1961.6,1772.7c0,0-2.2,6.3-2.2,6.3c-0.2,1-0.8,3.5-0.8,4.4c0,3.4,15.4-2.9,11.9-4.4
					c-0.3-0.1-1.3-1.2-1.4-2.4c-0.2-1.8,1.3-4,1.3-4L1961.6,1772.7z"/>
				<g>
					<path class="st4" d="M1985.7,1655.1c0,0,1.1,11.3,1.1,11.5c0,18.3,3.6,54.1,2.9,57.5c-1.7,8.4-19.7,51.2-19.7,51.2l-9.8-1.2
						l12.7-51.3l-4.7-20.6l-6.6-40.8L1985.7,1655.1z"/>
					<path class="st5" d="M1952.9,1665.1l-1.9,10.7l-5,44.2l-19.1,43.2c0,0,2.7,6.3,6.6,7.2l30.4-44.3l18.9-56.7l-0.7-12.6
						L1952.9,1665.1z"/>
				</g>
				<path class="st23" d="M1989.6,1628.2l-13.5,1.4c0,0-0.6-11.1-0.6-16.4c0-6.4,0.5-14.7,1.3-14.6c2.2,0.5,5.1,1.7,6.9,4.1
					C1989.7,1611,1989.6,1628.2,1989.6,1628.2z"/>
				<path class="st18" d="M1983,1612c0.3,2,5.5,55.4,5.5,55.4c-24.7,11.9-38.3,2.1-38.3,2.1s0.8-37.5-0.2-42.6
					c-0.6-3.4-1.4-25.8,0.7-26.5c2.8-0.8,6-1.7,9.5-2c3-0.3,14.6-0.5,16.7,0.2C1976.9,1598.6,1981.8,1603.7,1983,1612z"/>
				<path class="st13" d="M1926.3,1764.2c0,0,5.7,16.2,8,17c0.6,0.2,3.5,0.7,4,2c0.2,0.4,0,1.7,0,1.7h-12c0,0-1.5-7.1-2.1-10.3
					c0,0-3.2-7.7-2.8-8.4C1921.7,1765.6,1926.3,1764.2,1926.3,1764.2z"/>
				<path class="st13" d="M1957.7,1784.6l1.8-5.6c0,0,3.7,1.6,5.5,1.3c1.8-0.3,5.5-1.3,5.5-1.3c7.4,2.4,13.4,3.6,12.3,5.6l0,0
					H1957.7z"/>
				<g>
					<path class="st1" d="M1991.5,1651c0.1,0,0.3-0.2,0.4-0.3c-0.4-5.2-0.4-10.3,1.3-12c0-0.1-0.4-0.8-0.8-1.6
						c-1.9,1.5-2.8,5.4-2.4,11.7c0,0.4,0.1,0.8,0.2,1.3C1990.7,1650.7,1991.2,1651.1,1991.5,1651z"/>
				</g>
				<path class="st14" d="M1925.8,1667.9c0-0.1,0-0.2,0-0.3c0.4-3.7,3.4-34.8,3.9-36.1c0.5-1.2,14.2-20.9,14.2-20.9l6.7,9.2
					l-13.2,17.7c-0.3,1.1-5.1,22.1-5.1,22.1s-1,3.8-1.4,6.1c0.2,0.6,0.4,1.1,0.6,1.5c0.4,0.9,1,1.7,1.4,2.3c0.6,0.8,1.6,2.5,1.7,3
					c0.1,0.5,0.4,1.7,0.5,2.3c0.1,0.7,0.3,1.5,0.4,1.8c0,0.2,0.2,0.7,0.4,1c0.3,0.5-0.2,1-0.7,0.9c-0.5-0.2-0.9-0.8-1.1-1.2
					c-0.7-1.1-1-3.1-1.2-3c-0.2,0.1-0.7,3.5-0.8,3.9c-0.1,0.4-0.8,4.3-1.2,5c-0.4,0.7-0.9,0.6-1,0.1c-0.1-0.4,0.4-5.9,0.4-5.9
					s0.1-0.7-0.2-0.5c-0.3,0.2-0.8,5.2-1,6c-0.2,0.7-0.7,1.1-1.1,0.5c-0.5-0.7,0.4-6,0.4-6s0.1-0.7-0.2-0.6
					c-0.3,0.1-0.6,4.3-0.9,4.7s-0.8,0.5-1-0.1c-0.3-0.7,0.5-5.5,0.5-5.5s0-0.4-0.2-0.3c-0.2,0.1-0.7,3.7-1.1,4.1
					c-0.3,0.3-0.6,0-0.6,0c-0.7-0.5,0.4-3.9,0.3-5.6c0-1.7,0.8-3.6,0.5-5.7C1925.8,1668.4,1925.8,1668.1,1925.8,1667.9z"/>
				<path class="st18" d="M1933.2,1623.1l11.7,7.9c0,0,6.6-9.9,10.2-13.4c4.4-4.4-1.6-17.9-4.5-17.1
					C1944.2,1602.2,1933.2,1623.1,1933.2,1623.1z"/>
				<path class="st1" d="M1961.1,1586.8l-1.8,11.6c0,0,6.4,13.8,10.2,12.6c3.2-1,1.2-13.2,1.2-13.2s-1.7-6.6-1.2-9.8
					C1970.2,1584.7,1961.1,1586.8,1961.1,1586.8z"/>
				<path class="st18" d="M1969.6,1588c0.5-3.3-8.5-1.1-8.5-1.1l-0.1,1c0.3,0.6,0.6,1.2,1,1.6c2,2.2,5.2,3.5,7.9,3.6
					C1969.6,1591.2,1969.4,1589.3,1969.6,1588z"/>
				<g>
					<path class="st1" d="M1959.7,1570.4c-0.3-0.1-2,13.2,1.3,16.9c3.4,3.7,10,4.9,12.4,2c2.6-3.2,2.5-17.5-2.8-21.3
						C1965.3,1564.2,1959.7,1570.4,1959.7,1570.4z"/>
					<path class="st8" d="M1968.6,1560.9c-4.1,0.8-6.7,3.3-7.7,4.4c-1.8,0.2-4.4,1.2-7,5.6c-3.2,5.3-0.8,11.2,2.9,14.1
						c3.7,2.9,3.7,6.2,3.7,6.2l0.6-1.7c0.4-1.3,0.6-2.7,0.5-4.1c-0.1-0.8-0.3-1.7-0.6-2.4c-0.9-1.9,1.9-3.2,2.7-4.8
						c0.6-1.2,0.6-4.1,1.6-6.1l1.1-1.6c0,0,2.6-2.1,5.2-1.5C1974.2,1569.5,1973.8,1559.8,1968.6,1560.9z"/>
					<path class="st1" d="M1963.5,1580.5c0,1.6-0.7,3-1.6,3c-0.9,0-1.7-1.3-1.7-2.9c0-1.6,0.7-3,1.6-3
						C1962.7,1577.5,1963.5,1578.8,1963.5,1580.5z"/>
				</g>
				<path class="st9" d="M1969,1584.2l5.1-0.3c0,0,0,2-2.3,2.1C1969.1,1586.3,1969,1584.2,1969,1584.2z"/>
			</g>
			<g>
				<path class="st1" d="M2100.4,1615.4c0,0,10.7,23.6,13,28c2.3,4.4,6.5,17.9,6.7,18.6c0.2,0.7-5.4,8.2-4.4,8.6
					c1.1,0.4,2.6-3.8,3.7-3.2c1.1,0.6,3.8,11.4,4.4,11c1.3-0.8-1.4-6.7-0.7-6.9c0.7-0.3,2.2,6.3,3.5,6.3c1.3,0-2-6.1-1.6-6.6
					c0.4-0.5,3.9,5.3,4.7,4.3c0.4-0.6-3.2-5.1-2.5-5.4c0.8-0.3,4.1,2.7,4.5,2c0.4-0.7-3.1-2.1-4.1-4.3c-0.9-2.2-2.7-3.2-3.2-7.1
					c-0.5-3.8-0.7-17.6-4.1-24.8c-3.4-7.2-11-23.2-11-23.2L2100.4,1615.4z"/>
				<path class="st5" d="M2103.8,1589.1c0.2-5.8-0.6-11.6-3.2-17c-2.2-4.7-7.8-7.3-12.8-7.3c-16,0-18,21.2-28.2,29.4
					c-3.1,2.5-6.6,4.5-9.5,7.2c-10.9,10-6,28.4,4,37.1c6.9,6.1,17.8,9.5,26.3,4.8c4.5-2.5,7.8-6.6,10.2-11.1
					c3.4-6.4,5.6-13.8,8.1-20.6C2101.4,1604.4,2103.5,1596.8,2103.8,1589.1z"/>
				<path class="st1" d="M2046.7,1566.4c0.7-0.5,2.6,3.3,3.5,3.2c0.9,0-0.6-5.3,0.1-5.7c1.2-0.8,2,5.7,2.6,5.4
					c0.6-0.3,0.1-7,1.4-6.6c1.3,0.4-0.2,7,0.5,6.9c0.8,0,0.9-6.3,2.5-6.7c0.9-0.2-1.5,10.7-0.7,11.6c0.8,0.9,4.2-2.5,5-1.8
					c0.9,0.7-6.6,5.8-6.7,6.4c-0.1,0.7-1.7,15.3-1.5,20.1c1.7,0.1,11.1,2,12.6,2c-1,3.1,1.5,6.2,0.7,9.3c-5.3-0.5-21-1.7-21.9-2.8
					c-3-3.4,2.5-24.7,3.8-28.5c1.3-3.7,0-5.3,0.1-7.6C2048.8,1569.4,2046,1567,2046.7,1566.4z"/>
				<g>
					<path class="st3" d="M2071.2,1784.2c1.3-1,2.4-1.6,6.6-3.7c0.3-0.1,1.3-0.8,1.6-1c0.9-0.6,1.8-1.5,2.6-2.3
						c0.8-0.8,1.1-3.6,1.3-5.7c-0.4-4.8-7.5-82.5-8.9-91c-1.5-8.7,0.8-21.9,0.8-21.9l5.4-2l10.3,35.7l-0.8,27.1
						c0,0,2.4,7.8,2.7,12.5c0.3,4.7-3.5,42.6-3.5,42.6l0,0c0,1.4,0.1,2.6,0.2,3.4c0.3,1.4,1.8,4.3,1.1,5.7c-0.7,1.3-1.5,1.7-1.5,1.7
						l-18.5,0.3C2069.7,1785.5,2070.4,1784.8,2071.2,1784.2z"/>
					<path class="st27" d="M2099.2,1655.8c0,0,6.4,9.7,7.9,17.7s-1.1,32.6,1.8,43.1c1.6,5.7,7.6,14.5,8.5,21.8
						c0.9,7.3,4.1,28.6,4.1,28.6l0,0c0.5,2.2,1.2,5,2.2,6.3c0.6,0.8,1.7,1.8,2.4,3.2c1.1,2.2,0.5,5.5-0.3,7.3
						c-0.4,0.9,0,0.9-0.9,1.2c-2.9,0.9-5.9-0.6-7.1-3.4c-0.7-1.5-1.3-3.6-1.4-6.2c-0.1-2.7-0.6-4.9-1-6.5l0,0l-20.5-50.3l-14.9-43.4
						l-3.8-22.4L2099.2,1655.8z"/>
					<path class="st5" d="M2117.3,1780.2c4.4,0.8,7.4-1.8,8.9-3.7c1.1,2.2,1.7,5.5,0.8,7.3c-0.7,1.6-2.9,1.6-4.6,1.6
						c-1.8,0.1-3.2-0.9-4-2.5C2118.1,1782.1,2117.7,1781.2,2117.3,1780.2z"/>
					<path class="st5" d="M2079.5,1779.5c4.9,1.3,8.5,0.4,10.5-0.4c0.5,1.5,1.2,3.3,0.8,4.4c-0.4,1.3-1.1,1.6-1.7,1.6
						c-4.5,0.1-16.4,0.3-19.8,0.3c-0.5,0-0.7-0.6-0.4-0.9C2069.8,1783.5,2079.1,1779.7,2079.5,1779.5z"/>
					<path class="st5" d="M2095.1,1717.6c-0.4,0-0.8,0.1-1.2,0.1c0,0,0,0-0.1,0c-0.4,0-0.8,0-1.1,0.1c0,0,0,0-0.1,0
						c-0.4,0-0.8,0-1.2,0.1c0,0,0,0-0.1,0c-0.4,0-0.8,0-1.2,0c-4.4,0.1-9.8,0.1-13.3-0.5c-1.8-17.7-2.4-33.9-3.1-37.5
						c-1.6-8.7,1.4-22.4,1.4-22.4l-0.2-3.3l0.8-2.1l23.8,3c0,0,6.7,9.7,8.3,17.7c1.6,8-1.2,32.6,1.9,43.1
						C2109.8,1716,2103,1717.1,2095.1,1717.6z"/>
				</g>
				<path class="st36" d="M2062.6,1599.9c0,0,17.9-1.9,23.1-0.1c5.3,1.8,9,9.3,6.2,13.5c-2.8,4.2-28.1-1.3-28.1-1.3L2062.6,1599.9z"
					/>
				<path class="st13" d="M2094.1,1598.2c0,0,8.8-0.5,12.3,3.2c3.5,3.7-7.7,33-8.4,37.7c-0.6,4.7,3.2,17.2,3.2,17.2
					s-20.7,4.1-26.7,0.2c0,0-1.1-34.2-0.5-37.6c0.6-3.4,6.4-16.7,7.7-18.1C2083,1599.6,2094.1,1598.2,2094.1,1598.2z"/>
				<path class="st1" d="M2091.1,1586.8c0,0,0,0.3,0.1,0.7c0.4,2.1,1.9,8.9,2.9,10.8c1.2,2.3-4.2,9.5-9.5,8.6
					c-1.6-0.3,1.3-6.7,1.2-7.3c-0.3-1.3-0.6-3.1-1-4.9c-0.2-1-0.4-2.1-0.6-3c-0.6-2.8-1-5-1-5L2091.1,1586.8z"/>
				<path class="st7" d="M2091.3,1587.5c-0.1-0.4-0.1-0.7-0.1-0.7l-7.9-0.2c0,0,0.5,2.3,1,5c0.2,1,0.4,2,0.6,3
					c1.2-0.2,2.5-0.8,3.8-1.8c1.4-1.2,2.3-2.6,2.9-4.1C2091.4,1588.2,2091.3,1587.8,2091.3,1587.5z"/>
				<path class="st1" d="M2085.8,1569.3c0,0,3.7-0.4,6.1,2.5s4.8,12-0.9,16.9c-5.8,4.9-11.5-0.7-12.4-6.6
					C2077.7,1576.3,2077.4,1569.1,2085.8,1569.3z"/>
				<path class="st1" d="M2076.8,1582.1c0.7,1.3,1.9,2,2.6,1.6c0.7-0.4,0.8-1.8,0.1-3.1c-0.7-1.3-1.9-2-2.6-1.6
					C2076.2,1579.4,2076.2,1580.8,2076.8,1582.1z"/>
				<path class="st5" d="M2085.4,1568.4c0,0,5,8.6,8.5,9c3.6,0.4,4,5,4,5s-1.3-10.6-4.8-12.6
					C2089.6,1567.7,2085.4,1568.4,2085.4,1568.4z"/>
				<path class="st1" d="M2093,1579.6c-0.3,1.5,0.3,2.9,1.3,3.1c1,0.2,2.1-0.9,2.3-2.4c0.3-1.5-0.3-2.9-1.3-3.1
					C2094.3,1577,2093.3,1578,2093,1579.6z"/>
				<path class="st9" d="M2088.1,1583.5l-5.1,0.7c0,0,0.4,1.9,2.6,1.7C2088.4,1585.6,2088.1,1583.5,2088.1,1583.5z"/>
				<path class="st13" d="M2106,1632c0,0-10-14.9-10.9-20.4c-0.9-5.5,4-12.3,9.1-11.7c5,0.5,13.6,25.5,13.6,25.5L2106,1632z"/>
			</g>
		</g>
	</g>
	<g>
		<path class="st37" d="M572,1678.9H2998c201.1-149.9,97.6-601.1-70.4-692.6c-180.8-98.5,106.3-438.9-172.2-549.5
			c-181.8-72.2-428.3,8.5-548.6-146.9c-141.4-182.5-376.4-404.7-813.9-232C1055.3,191,1238.6,447.7,686.4,525
			c-284,39.7-229.1,379.7-202.6,450c23.1,61.2,175.6,158.3-36.4,291.9C136.4,1462.9,564.7,1675.3,572,1678.9z"/>
		<path class="st0" d="M2364.4,545.6c2.5-10.9,12.1-19,23.7-19c2.1,0,4.2,0.3,6.1,0.8c5.7-12.3,18.1-20.8,32.4-20.8
			c3.7,0,7.3,0.6,10.6,1.6c7.7-12.9,21.7-21.5,37.8-21.5c19.1,0,35.3,12.2,41.4,29.2c4.4-2.4,9.4-3.8,14.7-3.8
			c16.7,0,30.3,13.6,30.3,30.4c0,1-0.1,2-0.1,3L2364.4,545.6L2364.4,545.6z"/>
		<path class="st0" d="M2102.7,423.8c-3.3-14.6-16.4-25.5-31.9-25.5c-2.9,0-5.6,0.4-8.3,1.1c-7.7-16.5-24.3-28-43.7-28
			c-5,0-9.8,0.8-14.3,2.2c-10.4-17.3-29.3-28.9-50.9-28.9c-25.7,0-47.6,16.4-55.8,39.4c-5.9-3.3-12.6-5.2-19.8-5.2
			c-22.5,0-40.8,18.4-40.8,41c0,1.3,0.1,2.7,0.2,4L2102.7,423.8L2102.7,423.8z"/>
		<path class="st0" d="M1182.5,513.5c2.2-9.8,11-17.2,21.5-17.2c1.9,0,3.8,0.2,5.6,0.7c5.2-11.1,16.4-18.8,29.4-18.8
			c3.4,0,6.6,0.5,9.7,1.5c7-11.7,19.7-19.5,34.3-19.5c17.3,0,32,11,37.6,26.5c3.9-2.2,8.5-3.5,13.3-3.5c15.2,0,27.4,12.4,27.4,27.6
			c0,0.9,0,1.8-0.1,2.7H1182.5z"/>
		<g>
			<g>
				<rect x="3001.2" y="1559.6" class="st4" width="8.3" height="146.1"/>
				<polygon class="st20" points="3007.5,1299.1 2966.4,1594.1 3048.6,1594.1 				"/>
				<polygon class="st6" points="2969,1575.3 3042.8,1552.1 3041.7,1544.1 2970.3,1566.6 				"/>
				<polygon class="st6" points="2982,1482.1 3030.9,1466.7 3029.8,1458.7 2983.2,1473.4 				"/>
			</g>
			<g>
				<rect x="735.8" y="1370.2" class="st4" width="7.1" height="83.8"/>
				<polygon class="st20" points="740.7,1220.9 717.1,1389.9 764.2,1389.9 				"/>
				<polygon class="st6" points="718.6,1379.2 760.9,1365.9 760.2,1361.3 719.3,1374.2 				"/>
				<polygon class="st6" points="726,1325.8 754.1,1317 753.4,1312.4 726.7,1320.8 				"/>
			</g>
			<g>
				<rect x="656.3" y="1372.5" class="st4" width="10.8" height="119.3"/>
				<polygon class="st20" points="661.7,1141.1 626.6,1424.9 696.8,1424.9 				"/>
				<polygon class="st6" points="639.3,1322 689.4,1364.9 687.5,1349.4 640.9,1309.4 				"/>
				<polygon class="st6" points="647,1259.8 677.7,1270.3 676.2,1258.6 648.3,1249.1 				"/>
			</g>
			<g>
				<rect x="2930.6" y="1570" class="st4" width="7.1" height="78.5"/>
				<polygon class="st20" points="2934.1,1417.7 2911,1604.6 2957.2,1604.6 				"/>
				<polygon class="st6" points="2919.4,1536.8 2952.3,1565.1 2951.1,1554.8 2920.4,1528.5 				"/>
				<polygon class="st6" points="2924.4,1495.9 2944.6,1502.8 2943.7,1495.1 2925.3,1488.8 				"/>
			</g>
			<g>
				<path class="st20" d="M2816,1674.1c0.6-3.4,0.9-6.9,0.9-10.5c0-39.7-37.2-71.9-83.1-71.9c-45.9,0-83.1,32.2-83.1,71.9
					c0,3.6,0.3,7.1,0.9,10.5H2816z"/>
				<path class="st6" d="M2910,1656.5c0.6-4.8,0.9-9.8,0.9-14.8c0-56-37.2-101.4-83.1-101.4c-45.9,0-83.1,45.4-83.1,101.4
					c0,5,0.3,10,0.9,14.8H2910z"/>
				<path class="st6" d="M2879.6,1718.6c-0.6-3.4-0.9-6.9-0.9-10.5c0-39.7,37.2-71.9,83.1-71.9s83.1,32.2,83.1,71.9
					c0,3.6-0.3,7.1-0.9,10.5H2879.6z"/>
				<path class="st20" d="M2746.6,1718.6c-0.7-4.8-1.1-9.8-1.1-14.8c0-56,47.2-101.4,105.4-101.4c58.2,0,105.4,45.4,105.4,101.4
					c0,5-0.4,10-1.1,14.8H2746.6z"/>
				<path class="st6" d="M2827.5,1602.4c-29.1,0-55.1,14.4-72.2,37c-8.7-2.1-18-3.2-27.6-3.2c-51.6,0-93.5,32.2-93.5,71.9
					c0,3.6,0.3,7.1,1,10.5H2920c0.6-4.8,1-9.8,1-14.8C2921,1647.8,2879.1,1602.4,2827.5,1602.4z"/>
			</g>
			<g>
				<path class="st20" d="M836,1497.1c-0.6-3.4-0.9-6.9-0.9-10.5c0-39.7,37.2-71.9,83.1-71.9c45.9,0,83.1,32.2,83.1,71.9
					c0,3.6-0.3,7.1-0.9,10.5H836z"/>
				<path class="st6" d="M741.9,1479.5c-0.6-4.8-0.9-9.8-0.9-14.8c0-56,37.2-101.4,83.1-101.4c45.9,0,83.1,45.4,83.1,101.4
					c0,5-0.3,10-0.9,14.8H741.9z"/>
				<path class="st6" d="M772.4,1541.6c0.6-3.4,0.9-6.9,0.9-10.5c0-39.7-37.2-71.9-83.1-71.9s-83.1,32.2-83.1,71.9
					c0,3.6,0.3,7.1,0.9,10.5H772.4z"/>
				<path class="st20" d="M905.4,1541.6c0.7-4.8,1.1-9.8,1.1-14.8c0-56-47.2-101.4-105.4-101.4s-105.4,45.4-105.4,101.4
					c0,5,0.4,10,1.1,14.8H905.4z"/>
				<path class="st6" d="M824.5,1425.4c29.1,0,55.1,14.4,72.2,37c8.7-2.1,18-3.2,27.6-3.2c51.6,0,93.5,32.2,93.5,71.9
					c0,3.6-0.3,7.1-1,10.5H732c-0.7-4.8-1-9.8-1-14.8C731,1470.8,772.9,1425.4,824.5,1425.4z"/>
			</g>
			<rect x="2183" y="391.5" class="st23" width="6.5" height="44.3"/>
			<rect x="2131.5" y="391.5" class="st23" width="6.5" height="44.3"/>
			<rect x="2080.1" y="391.5" class="st23" width="6.5" height="44.3"/>
			<rect x="2028.7" y="391.5" class="st23" width="6.5" height="44.3"/>
			<rect x="2189.6" y="781.3" class="st38" width="59.8" height="740.9"/>
			<rect x="1977.3" y="391.5" class="st23" width="6.5" height="44.3"/>
			<rect x="1925.9" y="391.5" class="st23" width="6.5" height="44.3"/>
			<rect x="1874.5" y="391.5" class="st23" width="6.5" height="44.3"/>
			<rect x="1823.1" y="391.5" class="st23" width="6.5" height="44.3"/>
			<rect x="1518.7" y="385.3" class="st38" width="258.6" height="44.4"/>
			<rect x="2187.6" y="484.6" class="st38" width="420.4" height="243"/>
			<rect x="2187.6" y="484.6" class="st38" width="49.6" height="243"/>
			<rect x="1984.5" y="472.9" class="st8" width="642.7" height="23.4"/>
			<rect x="2496.4" y="529.8" class="st39" width="96" height="128.3"/>
			<rect x="2376.4" y="529.8" class="st39" width="96" height="128.3"/>
			<rect x="2258.8" y="529.8" class="st39" width="96" height="128.3"/>
			<rect x="1046.1" y="484.6" class="st38" width="420.4" height="243"/>
			<rect x="1417" y="484.6" class="st38" width="49.6" height="243"/>
			<rect x="2186.6" y="731.3" class="st38" width="531.4" height="810.3"/>
			<rect x="1983.6" y="719.5" class="st8" width="754.9" height="23.4"/>
			<rect x="2476" y="781.1" class="st39" width="204.3" height="128.3"/>
			<rect x="2476" y="930" class="st39" width="204.3" height="128.3"/>
			<rect x="2476" y="1078.8" class="st39" width="204.3" height="128.3"/>
			<rect x="2476" y="1227.6" class="st39" width="204.3" height="128.3"/>
			<rect x="2476" y="1376.5" class="st39" width="204.3" height="128.3"/>
			<rect x="2249.6" y="781.1" class="st39" width="204.3" height="128.3"/>
			<rect x="2249.6" y="930" class="st39" width="204.3" height="128.3"/>
			<rect x="2249.6" y="1078.8" class="st39" width="204.3" height="128.3"/>
			<rect x="2249.6" y="1227.6" class="st39" width="204.3" height="128.3"/>
			<rect x="2249.6" y="1376.5" class="st39" width="204.3" height="128.3"/>
			<rect x="935.2" y="731.3" class="st38" width="531.4" height="810.3"/>
			<rect x="928.9" y="1522.3" class="st18" width="537.7" height="19.3"/>
			<rect x="2185" y="1522.3" class="st18" width="537.7" height="19.3"/>
			<rect x="1417" y="731.3" class="st38" width="49.6" height="810.3"/>
			<rect x="914.8" y="719.5" class="st8" width="754.9" height="23.4"/>
			<rect x="1026.9" y="472.9" class="st8" width="642.7" height="23.4"/>
			<rect x="1466.6" y="440.3" class="st38" width="722.9" height="168.3"/>
			<rect x="1466.6" y="745.5" class="st38" width="722.9" height="796.1"/>
			<rect x="1509.5" y="812.7" class="st39" width="636.6" height="399.8"/>
			<rect x="972.9" y="781.1" class="st39" width="204.3" height="128.3"/>
			<rect x="972.9" y="930" class="st39" width="204.3" height="128.3"/>
			<rect x="972.9" y="1078.8" class="st39" width="204.3" height="128.3"/>
			<rect x="972.9" y="1227.6" class="st39" width="204.3" height="128.3"/>
			<rect x="972.9" y="1376.5" class="st39" width="204.3" height="128.3"/>
			<rect x="1199.4" y="781.1" class="st39" width="204.3" height="128.3"/>
			<rect x="1061.8" y="529.8" class="st39" width="96" height="128.3"/>
			<rect x="1181.8" y="529.8" class="st39" width="96" height="128.3"/>
			<rect x="1299.3" y="529.8" class="st39" width="96" height="128.3"/>
			<rect x="1199.4" y="930" class="st39" width="204.3" height="128.3"/>
			<rect x="1199.4" y="1078.8" class="st39" width="204.3" height="128.3"/>
			<rect x="1199.4" y="1227.6" class="st39" width="204.3" height="128.3"/>
			<rect x="1199.4" y="1376.5" class="st39" width="204.3" height="128.3"/>
			<rect x="1729.3" y="1341.9" class="st23" width="207.4" height="201.5"/>
			<rect x="1059.1" y="653.5" class="st8" width="101.2" height="6.7"/>
			<rect x="1179.1" y="653.5" class="st8" width="101.2" height="6.7"/>
			<rect x="1296.7" y="653.5" class="st8" width="101.2" height="6.7"/>
			<rect x="2255" y="653.5" class="st8" width="101.2" height="6.7"/>
			<rect x="2375" y="653.5" class="st8" width="101.2" height="6.7"/>
			<rect x="2492.5" y="653.5" class="st8" width="101.2" height="6.7"/>
			<polygon class="st0" points="1070.8,1498.1 953.4,1498.1 1089.2,781.1 1206.5,781.1 			"/>
			<rect x="935.2" y="781.1" class="st38" width="37.7" height="729.5"/>
			<polygon class="st0" points="1221.6,1498.1 1156.3,1498.1 1292.1,781.1 1357.4,781.1 			"/>
			<rect x="1196.8" y="902.8" class="st8" width="209.3" height="6.7"/>
			<rect x="970.4" y="1051.6" class="st8" width="209.3" height="6.7"/>
			<rect x="1196.8" y="1051.6" class="st8" width="209.3" height="6.7"/>
			<rect x="970.4" y="1200.4" class="st8" width="209.3" height="6.7"/>
			<rect x="1196.8" y="1200.4" class="st8" width="209.3" height="6.7"/>
			<rect x="970.4" y="1349.3" class="st8" width="209.3" height="6.7"/>
			<rect x="1196.8" y="1349.3" class="st8" width="209.3" height="6.7"/>
			<rect x="1509.5" y="1212.5" class="st8" width="648.1" height="6.7"/>
			<rect x="970.4" y="1498.1" class="st8" width="209.3" height="6.7"/>
			<rect x="1196.8" y="1498.1" class="st8" width="209.3" height="6.7"/>
			<rect x="970.4" y="902.8" class="st8" width="209.3" height="6.7"/>
			<rect x="1177.1" y="780.3" class="st38" width="22.2" height="730.3"/>
			<rect x="965.3" y="1355.9" class="st38" width="440.8" height="20.6"/>
			<rect x="965.3" y="1207.1" class="st38" width="440.8" height="20.6"/>
			<rect x="965.3" y="1058.3" class="st38" width="440.8" height="20.6"/>
			<rect x="965.3" y="909.4" class="st38" width="440.8" height="20.6"/>
			<polygon class="st0" points="2312.8,1498.1 2195.4,1498.1 2331.2,781.1 2448.5,781.1 			"/>
			<polygon class="st0" points="2498.3,1498.1 2433,1498.1 2568.8,781.1 2634.1,781.1 			"/>
			<rect x="2453.9" y="780.3" class="st38" width="22.2" height="730.3"/>
			<rect x="2242.1" y="1355.9" class="st38" width="440.8" height="20.6"/>
			<rect x="2242.1" y="1207.1" class="st38" width="440.8" height="20.6"/>
			<rect x="2242.1" y="1058.3" class="st38" width="440.8" height="20.6"/>
			<rect x="2242.1" y="909.4" class="st38" width="440.8" height="20.6"/>
			<polygon class="st0" points="1107.2,653.5 1076.9,653.5 1112.1,529.8 1142.4,529.8 			"/>
			<polygon class="st0" points="1232,653.5 1210.8,653.5 1246,529.8 1267.2,529.8 			"/>
			<polygon class="st0" points="1321.9,653.5 1305,653.5 1340.2,529.8 1357.1,529.8 			"/>
			<polygon class="st0" points="2300.6,653.5 2270.4,653.5 2305.6,529.8 2335.8,529.8 			"/>
			<polygon class="st0" points="2425.5,653.5 2404.3,653.5 2439.5,529.8 2460.7,529.8 			"/>
			<polygon class="st0" points="2515.3,653.5 2498.5,653.5 2533.7,529.8 2550.5,529.8 			"/>
			<rect x="2473.1" y="902.8" class="st8" width="209.3" height="6.7"/>
			<rect x="2246.7" y="1051.6" class="st8" width="209.3" height="6.7"/>
			<rect x="2473.1" y="1051.6" class="st8" width="209.3" height="6.7"/>
			<rect x="2246.7" y="1200.4" class="st8" width="209.3" height="6.7"/>
			<rect x="2473.1" y="1200.4" class="st8" width="209.3" height="6.7"/>
			<rect x="2246.7" y="1349.3" class="st8" width="209.3" height="6.7"/>
			<rect x="2473.1" y="1349.3" class="st8" width="209.3" height="6.7"/>
			<rect x="2246.7" y="1498.1" class="st8" width="209.3" height="6.7"/>
			<rect x="2473.1" y="1498.1" class="st8" width="209.3" height="6.7"/>
			<rect x="2246.7" y="902.8" class="st8" width="209.3" height="6.7"/>
			<rect x="1466.6" y="440.3" class="st38" width="722.9" height="56.1"/>
			<rect x="1450.6" y="429.6" class="st8" width="754.9" height="23.4"/>
			<rect x="1512.3" y="361.8" class="st8" width="271.5" height="23.4"/>
			<rect x="1495.1" y="1284" class="st8" width="665.9" height="58"/>
			<rect x="1832.2" y="1341.9" class="st18" width="1.7" height="201.5"/>
			<rect x="2108.6" y="1341.9" class="st18" width="37.5" height="199.7"/>
			<rect x="1509.5" y="1341.9" class="st18" width="37.5" height="199.7"/>
			<rect x="1744.5" y="1352.6" class="st39" width="74.3" height="145.5"/>
			<rect x="1847.2" y="1352.6" class="st39" width="74.3" height="145.5"/>
			<polygon class="st40" points="1783.6,1498.1 1751.2,1498.1 1776.8,1352.6 1809.2,1352.6 			"/>
			<polygon class="st40" points="1887.8,1498.1 1855.4,1498.1 1881,1352.6 1913.4,1352.6 			"/>
			<polygon class="st0" points="1639.5,1212.5 1550.8,1212.5 1650.9,812.7 1739.6,812.7 			"/>
			<polygon class="st0" points="2031.6,1212.5 1863.1,1212.5 1963.2,812.7 2131.7,812.7 			"/>
			<rect x="1664.2" y="808.2" class="st38" width="5.4" height="424.8"/>
			<rect x="1987.6" y="808.2" class="st38" width="5.5" height="424.8"/>
			<rect x="1823.7" y="808.2" class="st38" width="5.4" height="424.8"/>
			<rect x="1501.7" y="1017.6" class="st38" width="661.5" height="5.8"/>
			<rect x="2195.5" y="1165" class="st38" width="53.9" height="351.2"/>
			<path class="st9" d="M1941.9,1019.4c0,62.3-50.5,112.8-112.8,112.8s-112.8-50.5-112.8-112.8c0-62.3,50.5-112.8,112.8-112.8
				S1941.9,957.1,1941.9,1019.4z"/>
			
				<ellipse transform="matrix(0.5257 -0.8507 0.8507 0.5257 0.4352 2039.4255)" class="st23" cx="1829.1" cy="1019.3" rx="102.3" ry="102.3"/>
			<polygon class="st9" points="1840.1,951.2 1819.5,951 1818.9,1009.2 1760.7,1009.3 1760.7,1029.9 1818.7,1029.8 1818.1,1087.7 
				1838.6,1087.9 1839.2,1029.7 1897.4,1029.6 1897.4,1009 1839.5,1009.1 			"/>
			<rect x="1777.3" y="391.5" class="st23" width="412.1" height="6.5"/>
			<g>
				<g>
					<path class="st22" d="M893.1,1389.7c-10-26-19.7-52-26.8-79.1c-21.8-83.3-16.6-144-15.7-173.1c0.1-3.9-6.1-4.9-6.6-0.9
						c-1.9,13.7-2.3,27.6-2.4,41.4c-0.2,23.4,1.3,46.7,4.2,70.1c-16,4.2-31.2-2.1-43.5-13.3c-21.4-19.4-29-45.2-32.3-73.8
						c-0.3-2.9-0.5-5.7-2.8-7.4c-0.5-1.5-2.7-2-3.3,0.3c-3.4,3.5-1.7,10.5-1.2,15c7,60.9,44,90.5,73.8,90.2c3.3,0,7.2-0.2,10.8-1.2
						c2.1,14.6,4.9,29,8.3,43.4c6.4,27.3,15.4,53.6,25.4,79.7c33.9,89.2,44.8,134.8,54.4,160.6c1.5,5.2,9.1,3,7.8-2.2
						C942.5,1537.3,916,1449.4,893.1,1389.7z"/>
					<path class="st22" d="M1029,1155.2c-0.3-1.9-1.4-3.2-1.9-5c-0.6-2.4-4.4-2.6-4.8,0c-0.2,1.5-1.1,2.4-1.4,3.9
						c-1,4.9,1.5,32.7-5.1,75.2c-1.7,11.3-3.7,22.5-7.4,33.3c-6.1,17.4-17.1,36.2-30.9,48.1c-0.4-24.9-1.9-49.7-4.9-74.4
						c-1.8-14.8-4-29.5-6.8-44.1c-1.3-7.1-2.8-14.2-4.3-21.3c-1.6-7.4-3.2-14.6-6.7-21.3c-1.1-2.1-4.2-1.1-4.2,1.2
						c0,6.6,1.3,12.7,2.7,19.1c1.4,6.4,2.6,12.8,3.8,19.2c8.8,47.6,12.1,89.8,12.1,137.4c-14.6-18.3-27.3-40.3-36.7-61.9
						c-11.3-25.9-19-53.9-22.1-82.2c-0.9-7.9-1.4-15.9-1.6-23.9c-0.1-4.1-0.2-8.3-0.3-12.4c0-2.1-0.9-8.5-4.4-6.7
						c-3.3,1.7-3,5.6-3.2,8.9c-0.3,3.7-0.3,7.3-0.3,11c0.1,7.1,0.5,14.1,1.1,21.1c4.7,50.9,23.9,101.2,53,142.4
						c4.4,6.3,9,13,14.4,18.5c-1.2,81.4-13.3,184.3-13.5,192.5c0,1.8,0.4,3.7,0.6,5.5c0.6,3.7,5.4,2.8,6.4,0
						c1.9-5.4,1.7-7.5,4.5-37.2c5-53,10.6-174.3,10.5-179.3c17.3-12.5,29.5-31.6,37.5-51.6c4.2-10.6,6.7-21.5,8.6-32.8
						C1030.3,1199.9,1030.1,1161.5,1029,1155.2z"/>
				</g>
				<path class="st8" d="M910.1,1088.7c0.7-5.9,1-11.9,1-18c0-68.1-42.2-123.3-94.3-123.3s-94.3,55.2-94.3,123.3
					c0,6.1,0.3,12.1,1,18H910.1z"/>
				<path class="st20" d="M1016.9,1058.4c0.7-8.3,1-16.7,1-25.4c0-96-42.2-173.9-94.3-173.9s-94.3,77.9-94.3,173.9
					c0,8.6,0.3,17.1,1,25.4H1016.9z"/>
				<path class="st8" d="M831.4,1165c-0.8-8.3-1.3-16.7-1.3-25.4c0-96,53.5-173.9,119.6-173.9s119.6,77.9,119.6,173.9
					c0,8.6-0.4,17.1-1.3,25.4H831.4z"/>
				<path class="st20" d="M923.2,965.7c-33,0-62.5,24.7-81.9,63.4c-9.9-3.6-20.4-5.5-31.3-5.5c-58.6,0-106.1,55.2-106.1,123.3
					c0,6.1,0.4,12.1,1.1,18h323.2c0.7-8.3,1.1-16.7,1.1-25.4C1029.3,1043.6,981.8,965.7,923.2,965.7z"/>
			</g>
			<g>
				<path class="st22" d="M2914.7,1161.9c-0.4-2.4-3.9-4.3-5.4-2.1c-1.5,2.1-1.6,0.7-2.8,5.3c-3.4,13.1-9.2,25.8-16.4,36.9
					c-13.7,21.3-28.5,32-45.5,42.6c5.6-16.7,8.5-34.5,7.1-52.5c-0.5-6.6-1.4-13.3-5-19.4c-1-1.7-4-1.3-4.1,0.5
					c-0.5,9.3,2.6,16.3,1.5,32.9c-2.6,39.6-26.5,81.7-50.8,111.1c-0.5-49.8-4.5-106.4-19.8-156.7c-2.5-8.2-5.9-16.1-9.1-24.1
					c-0.8-1.9-3.4-1.1-2.8,0.8c0.8,2.7,9.3,37.3,9.9,39.6c8.8,38.3,12.9,80.7,14,119.3c-24.8-28.7-43.1-62.4-53.9-97.5
					c-3.2-10.4-5-21.1-8.9-31.3c-0.5-1.4-2.9-1.6-3,0c-1.1,15.3,7.8,42.2,13.7,56.9c11.9,29.7,28.6,56.4,49.9,80.2
					c0.8,0.9-2.6,233.5-1.4,236.4c2,5,11.1,8.5,11.5-0.4c0.1-3.6,0.4-145,0.4-210.5c2.7-1.6,4.2-4.3,10.6-12.5
					c14.8-18.9,28.9-42.3,37.5-64.5c6.7-0.4,52.6-23.8,70.6-77c0.5-1.5,2.8-8.7,3.1-10.3C2915.4,1164.4,2914.9,1163.2,2914.7,1161.9
					z"/>
				<path class="st8" d="M2755.3,1085.8c0.6-7.2,0.8-14.7,0.8-22.2c0-84.1-35.7-152.3-79.7-152.3c-44,0-79.7,68.2-79.7,152.3
					c0,7.5,0.3,15,0.8,22.2H2755.3z"/>
				<path class="st20" d="M2845.6,1048.4c0.6-10.2,0.8-20.7,0.8-31.3c0-118.6-35.7-214.8-79.7-214.8c-44,0-79.7,96.2-79.7,214.8
					c0,10.6,0.3,21.1,0.8,31.3H2845.6z"/>
				<path class="st20" d="M2816.4,1180c-0.6-7.2-0.8-14.7-0.8-22.2c0-84.1,35.7-152.3,79.7-152.3c44,0,79.7,68.2,79.7,152.3
					c0,7.5-0.3,15-0.8,22.2H2816.4z"/>
				<path class="st8" d="M2688.8,1180c-0.7-10.2-1.1-20.7-1.1-31.3c0-118.6,45.3-214.8,101.1-214.8c55.8,0,101.1,96.2,101.1,214.8
					c0,10.6-0.4,21.1-1.1,31.3H2688.8z"/>
				<path class="st20" d="M2766.4,933.9c-27.9,0-52.8,30.5-69.3,78.3c-8.4-4.4-17.3-6.8-26.5-6.8c-49.5,0-89.7,68.2-89.7,152.3
					c0,7.5,0.3,15,0.9,22.2h273.3c0.6-10.2,0.9-20.7,0.9-31.3C2856.1,1030.1,2815.9,933.9,2766.4,933.9z"/>
			</g>
			<rect x="567.6" y="1537.2" class="st8" width="2502.3" height="8.7"/>
			<rect x="2189.6" y="742.9" class="st38" width="49.6" height="794.5"/>
			<rect x="1437.4" y="608.6" class="st23" width="781.2" height="168.3"/>
			<rect x="1437.4" y="705.8" class="st41" width="781.2" height="71.1"/>
			<rect x="1512.3" y="515.5" class="st42" width="46.9" height="18"/>
			<rect x="1475.3" y="542.9" class="st42" width="46.9" height="18"/>
			<rect x="1504.6" y="572.6" class="st42" width="48" height="15.2"/>
			<rect x="1535.8" y="544.4" class="st42" width="46.7" height="15.2"/>
			<rect x="1830.6" y="574.2" class="st42" width="37.9" height="13.6"/>
			<rect x="1855.7" y="552" class="st42" width="37.9" height="13.6"/>
			<rect x="1635.5" y="1389.7" class="st42" width="37.9" height="13.6"/>
			<rect x="1660.7" y="1367.5" class="st42" width="37.9" height="13.6"/>
			<rect x="2040" y="1383" class="st42" width="37.9" height="13.6"/>
			<rect x="2058.8" y="1407.8" class="st42" width="37.9" height="13.6"/>
			<rect x="2035.3" y="521.7" class="st42" width="46.9" height="18"/>
			<rect x="2174.1" y="569.8" class="st42" width="15.3" height="18"/>
			<rect x="2157.1" y="540.9" class="st42" width="32.6" height="18"/>
			<rect x="2058.6" y="545.4" class="st42" width="46.9" height="18"/>
			<rect x="1710.8" y="551.4" class="st42" width="46.9" height="18"/>
			<rect x="1682.7" y="524.4" class="st42" width="46.9" height="18"/>
			<rect x="2042" y="572.6" class="st42" width="48" height="15.2"/>
			<rect x="1963" y="1446.6" class="st42" width="46.9" height="18"/>
			<rect x="1986.2" y="1470.2" class="st42" width="46.9" height="18"/>
			<rect x="1969.6" y="1497.5" class="st42" width="48" height="15.2"/>
			<rect x="1607.3" y="1450.3" class="st42" width="46.9" height="18"/>
			<rect x="1584" y="1473.9" class="st42" width="46.9" height="18"/>
			<rect x="1599.5" y="1501.2" class="st42" width="48" height="15.2"/>
			<rect x="2003.3" y="548.5" class="st42" width="46.7" height="15.2"/>
			<g>
				<g>
					<path class="st9" d="M1651.7,730.6v8.2l-9.3,2.1l3.8-22.2h9.1l-0.6,21.7c-9.4,5.1-19.8,7.2-30.3,7.2
						c-30.3,0-50.7-21.9-50.7-52.5c0-30,21.3-52.5,50.5-52.5c8.1,0,18.7,1.3,28.9,7.2l0.6,21.7h-9.1l-3.8-22.2l9.3,2.1v9.1
						c-8.5-7.9-17-10.5-24.1-10.5c-20.2,0-36.6,15.7-36.6,45c0,29.2,14.7,45,35.5,45C1633.5,740.2,1643.1,737.7,1651.7,730.6z"/>
					<path class="st9" d="M1668,651v-6h42v6l-19.5,2.2h-3L1668,651z M1689,737.2v8.2h-21v-6l19.5-2.2H1689z M1681.8,645h14.4
						c-0.4,15.4-0.4,31-0.4,46.5V702c0,12.7,0,28.3,0.4,43.5h-14.4c0.4-15.4,0.4-31,0.4-46.5v-7.5
						C1682.3,675.7,1682.3,660.1,1681.8,645z M1744.1,717.3l-1.5,28.2H1689V738h48.3l-8.2,7.5l6-28.2H1744.1z"/>
					<path class="st9" d="M1757.6,651v-6h42v6l-19.5,2.2h-3L1757.6,651z M1780.1,737.2l19.5,2.2v6h-42v-6l19.5-2.2H1780.1z
						 M1771.8,691.5c0-15.4,0-31-0.5-46.5h14.4c-0.5,15.1-0.5,30.7-0.5,46.5v7.5c0,15.4,0,31,0.5,46.5h-14.4
						c0.5-15.1,0.5-30.7,0.5-46.5V691.5z"/>
					<path class="st9" d="M1812.3,739.5l15.7-2.2h3l17.2,2.2v6h-36V739.5z M1821.8,649.6l9.3,3.6l-18-2.2v-6h22.5l62.2,85.6v15.9
						h-4.8L1821.8,649.6z M1825.1,645l7.5,6v94.5h-7.5V645z M1874.6,645h36v6l-15,2.2h-3l-18-2.2V645z M1890.3,645h7.5v101.5
						l-7.5-7.5V645z"/>
					<path class="st9" d="M1923.3,651v-6h42v6l-19.5,2.2h-3L1923.3,651z M1945.8,737.2l19.5,2.2v6h-42v-6l19.5-2.2H1945.8z
						 M1937.6,691.5c0-15.4,0-31-0.4-46.5h14.4c-0.4,15.1-0.4,30.7-0.4,46.5v7.5c0,15.4,0,31,0.4,46.5h-14.4
						c0.4-15.1,0.4-30.7,0.4-46.5V691.5z"/>
					<path class="st9" d="M2057.3,730.6v8.2l-9.3,2.1l3.8-22.2h9.2l-0.6,21.7c-9.5,5.1-19.8,7.2-30.3,7.2
						c-30.3,0-50.7-21.9-50.7-52.5c0-30,21.3-52.5,50.5-52.5c8.1,0,18.7,1.3,28.9,7.2l0.6,21.7h-9.2l-3.8-22.2l9.3,2.1v9.1
						c-8.6-7.9-17-10.5-24.2-10.5c-20.2,0-36.6,15.7-36.6,45c0,29.2,14.7,45,35.5,45C2039.1,740.2,2048.7,737.7,2057.3,730.6z"/>
				</g>
			</g>
		</g>
		<path class="st43" d="M566.1,1675.8c0,0-332-164.5-203.8-333.9c0,0,7.6-24.6,146-121.1c0,0,108.7-64.1,12-189.5
			c0,0-85.4-68.8-47.6-311.9c0,0,26.8-174.1,213.7-194.5c0,0,234.3-24.1,353.2-125.6c0,0,85.7-80.9,132.2-163.4
			c0,0,86.4-181.1,417.5-232.7c0,0,167.3-42.7,380.6,67.3c0,0,93.4,44.9,273.7,257.1c0,0,63.9,68.3,348.6,79.8
			c0,0,290.2-14.5,292.2,218c0,0-26.3,204-19.2,266.4c0,0,2,53.8,49.9,86.8c0,0,137.1,60.3,193.3,334.3c0,0,22.9,170.7-27.8,253.8
			l-54.4,87l-2.6,2.7l-1.8,1.9c0,0,9.4,8.6,13.3,15.8l14.6-1.5l21.3,8.7l-26.1,19.1l-0.9,18.1l-27.7-0.2c0,0-13,12.6-41.5,15.4
			c0,0-73,3.3-103,10.9c0,0-138.2,37.3-150.7,48.3c0,0-48.4,18.4-127.9,17.3c0,0-84.6-5.1-99.6-10.6l-100.3-13.7c0,0-48.9-1.3-83,9
			l-266.6,47.9l-283.6,3.7l-165-0.9c0,0-88.5-5.4-114.6-17.2c0,0-144.3-45.2-177.9-44c0,0-180-10.2-253.1-3.1
			c0,0-231.3,6.9-273.1-4.1c0,0-122.6-16.9-135-23.6c0,0-45.9-3.5-74-74.1L566.1,1675.8z"/>
	</g>
</g>
</svg>
